%TF.GenerationSoftware,KiCad,Pcbnew,9.0.7*%
%TF.CreationDate,2026-06-29T14:59:53+05:30*%
%TF.ProjectId,keyboard,6b657962-6f61-4726-942e-6b696361645f,rev?*%
%TF.SameCoordinates,Original*%
%TF.FileFunction,Soldermask,Top*%
%TF.FilePolarity,Negative*%
%FSLAX46Y46*%
G04 Gerber Fmt 4.6, Leading zero omitted, Abs format (unit mm)*
G04 Created by KiCad (PCBNEW 9.0.7) date 2026-06-29 14:59:53*
%MOMM*%
%LPD*%
G01*
G04 APERTURE LIST*
G04 Aperture macros list*
%AMRoundRect*
0 Rectangle with rounded corners*
0 $1 Rounding radius*
0 $2 $3 $4 $5 $6 $7 $8 $9 X,Y pos of 4 corners*
0 Add a 4 corners polygon primitive as box body*
4,1,4,$2,$3,$4,$5,$6,$7,$8,$9,$2,$3,0*
0 Add four circle primitives for the rounded corners*
1,1,$1+$1,$2,$3*
1,1,$1+$1,$4,$5*
1,1,$1+$1,$6,$7*
1,1,$1+$1,$8,$9*
0 Add four rect primitives between the rounded corners*
20,1,$1+$1,$2,$3,$4,$5,0*
20,1,$1+$1,$4,$5,$6,$7,0*
20,1,$1+$1,$6,$7,$8,$9,0*
20,1,$1+$1,$8,$9,$2,$3,0*%
G04 Aperture macros list end*
%ADD10RoundRect,0.225000X-0.225000X-0.375000X0.225000X-0.375000X0.225000X0.375000X-0.225000X0.375000X0*%
%ADD11C,1.700000*%
%ADD12C,4.000000*%
%ADD13C,2.200000*%
%ADD14R,1.700000X1.700000*%
%ADD15RoundRect,0.225000X-0.375000X0.225000X-0.375000X-0.225000X0.375000X-0.225000X0.375000X0.225000X0*%
%ADD16R,2.000000X2.000000*%
%ADD17C,2.000000*%
%ADD18R,3.200000X2.000000*%
%ADD19O,1.800000X1.800000*%
%ADD20O,1.500000X1.500000*%
%ADD21O,1.700000X1.700000*%
G04 APERTURE END LIST*
D10*
%TO.C,D78*%
X315056250Y-130175000D03*
X318356250Y-130175000D03*
%TD*%
D11*
%TO.C,n3*%
X73501250Y-45243750D03*
D12*
X78581250Y-45243750D03*
D11*
X83661250Y-45243750D03*
D13*
X81121250Y-40163750D03*
X74771250Y-42703750D03*
%TD*%
D11*
%TO.C,U2*%
X159226250Y-64293750D03*
D12*
X164306250Y-64293750D03*
D11*
X169386250Y-64293750D03*
D13*
X166846250Y-59213750D03*
X160496250Y-61753750D03*
%TD*%
D10*
%TO.C,D28*%
X119000000Y-92075000D03*
X122300000Y-92075000D03*
%TD*%
D11*
%TO.C,L1*%
X202088750Y-83343750D03*
D12*
X207168750Y-83343750D03*
D11*
X212248750Y-83343750D03*
D13*
X209708750Y-78263750D03*
X203358750Y-80803750D03*
%TD*%
D11*
%TO.C,F8*%
X197326250Y-21431250D03*
D12*
X202406250Y-21431250D03*
D11*
X207486250Y-21431250D03*
D13*
X204946250Y-16351250D03*
X198596250Y-18891250D03*
%TD*%
D10*
%TO.C,D38*%
X154560000Y-92075000D03*
X157860000Y-92075000D03*
%TD*%
%TO.C,D68*%
X264035000Y-130175000D03*
X267335000Y-130175000D03*
%TD*%
D11*
%TO.C,n0*%
X206851250Y-45243750D03*
D12*
X211931250Y-45243750D03*
D11*
X217011250Y-45243750D03*
D13*
X214471250Y-40163750D03*
X208121250Y-42703750D03*
%TD*%
D10*
%TO.C,D45*%
X207900000Y-29845000D03*
X211200000Y-29845000D03*
%TD*%
D11*
%TO.C,RARROW1*%
X344963750Y-121443750D03*
D12*
X350043750Y-121443750D03*
D11*
X355123750Y-121443750D03*
D13*
X352583750Y-116363750D03*
X346233750Y-118903750D03*
%TD*%
D10*
%TO.C,D27*%
X113920000Y-73025000D03*
X117220000Y-73025000D03*
%TD*%
D11*
%TO.C,OBRACKET1*%
X235426250Y-64293750D03*
D12*
X240506250Y-64293750D03*
D11*
X245586250Y-64293750D03*
D13*
X243046250Y-59213750D03*
X236696250Y-61753750D03*
%TD*%
D10*
%TO.C,D59*%
X226315000Y-73025000D03*
X229615000Y-73025000D03*
%TD*%
D11*
%TO.C,F5*%
X140176250Y-21431250D03*
D12*
X145256250Y-21431250D03*
D11*
X150336250Y-21431250D03*
D13*
X147796250Y-16351250D03*
X141446250Y-18891250D03*
%TD*%
D11*
%TO.C,S1*%
X68738750Y-83343750D03*
D12*
X73818750Y-83343750D03*
D11*
X78898750Y-83343750D03*
D13*
X76358750Y-78263750D03*
X70008750Y-80803750D03*
%TD*%
D11*
%TO.C,n7*%
X149701250Y-45243750D03*
D12*
X154781250Y-45243750D03*
D11*
X159861250Y-45243750D03*
D13*
X157321250Y-40163750D03*
X150971250Y-42703750D03*
%TD*%
D11*
%TO.C,PGUP1*%
X344963750Y-45243750D03*
D12*
X350043750Y-45243750D03*
D11*
X355123750Y-45243750D03*
D13*
X352583750Y-40163750D03*
X346233750Y-42703750D03*
%TD*%
D10*
%TO.C,D51*%
X237110000Y-29845000D03*
X240410000Y-29845000D03*
%TD*%
D11*
%TO.C,rSHIFT1*%
X266382500Y-102393750D03*
D12*
X271462500Y-102393750D03*
D11*
X276542500Y-102393750D03*
D13*
X274002500Y-97313750D03*
X267652500Y-99853750D03*
%TD*%
D10*
%TO.C,D9*%
X56135000Y-72390000D03*
X59435000Y-72390000D03*
%TD*%
D11*
%TO.C,E1*%
X83026250Y-64293750D03*
D12*
X88106250Y-64293750D03*
D11*
X93186250Y-64293750D03*
D13*
X90646250Y-59213750D03*
X84296250Y-61753750D03*
%TD*%
D11*
%TO.C,P1*%
X216376250Y-64293750D03*
D12*
X221456250Y-64293750D03*
D11*
X226536250Y-64293750D03*
D13*
X223996250Y-59213750D03*
X217646250Y-61753750D03*
%TD*%
D10*
%TO.C,D41*%
X160275000Y-53975000D03*
X163575000Y-53975000D03*
%TD*%
D11*
%TO.C,D67*%
X87788750Y-83343750D03*
D12*
X92868750Y-83343750D03*
D11*
X97948750Y-83343750D03*
D13*
X95408750Y-78263750D03*
X89058750Y-80803750D03*
%TD*%
D11*
%TO.C,F10*%
X244951250Y-21431250D03*
D12*
X250031250Y-21431250D03*
D11*
X255111250Y-21431250D03*
D13*
X252571250Y-16351250D03*
X246221250Y-18891250D03*
%TD*%
D10*
%TO.C,D79*%
X334106250Y-130175000D03*
X337406250Y-130175000D03*
%TD*%
D11*
%TO.C,CAPS1*%
X23495000Y-83343750D03*
D12*
X28575000Y-83343750D03*
D11*
X33655000Y-83343750D03*
D13*
X31115000Y-78263750D03*
X24765000Y-80803750D03*
%TD*%
D11*
%TO.C,BSLASH1*%
X278288750Y-64293750D03*
D12*
X283368750Y-64293750D03*
D11*
X288448750Y-64293750D03*
D13*
X285908750Y-59213750D03*
X279558750Y-61753750D03*
%TD*%
D10*
%TO.C,D85*%
X339980000Y-53975000D03*
X343280000Y-53975000D03*
%TD*%
%TO.C,D70*%
X255525000Y-53975000D03*
X258825000Y-53975000D03*
%TD*%
D14*
%TO.C,OLED DISPLAY1*%
X304800000Y-17780000D03*
D11*
X304800000Y-20320000D03*
X304800000Y-22860000D03*
X304800000Y-25400000D03*
%TD*%
%TO.C,rCTRL1*%
X280670000Y-121443750D03*
D12*
X285750000Y-121443750D03*
D11*
X290830000Y-121443750D03*
D13*
X288290000Y-116363750D03*
X281940000Y-118903750D03*
%TD*%
D11*
%TO.C,W1*%
X63976250Y-64293750D03*
D12*
X69056250Y-64293750D03*
D11*
X74136250Y-64293750D03*
D13*
X71596250Y-59213750D03*
X65246250Y-61753750D03*
%TD*%
D15*
%TO.C,D83*%
X321468750Y-59945000D03*
X321468750Y-63245000D03*
%TD*%
D11*
%TO.C,F3*%
X92551250Y-21431250D03*
D12*
X97631250Y-21431250D03*
D11*
X102711250Y-21431250D03*
D13*
X100171250Y-16351250D03*
X93821250Y-18891250D03*
%TD*%
D10*
%TO.C,D13*%
X85345000Y-29845000D03*
X88645000Y-29845000D03*
%TD*%
D11*
%TO.C,PLUS1*%
X244951250Y-45243750D03*
D12*
X250031250Y-45243750D03*
D11*
X255111250Y-45243750D03*
D13*
X252571250Y-40163750D03*
X246221250Y-42703750D03*
%TD*%
D10*
%TO.C,D66*%
X249175000Y-92075000D03*
X252475000Y-92075000D03*
%TD*%
D11*
%TO.C,TAB1*%
X21113750Y-64293750D03*
D12*
X26193750Y-64293750D03*
D11*
X31273750Y-64293750D03*
D13*
X28733750Y-59213750D03*
X22383750Y-61753750D03*
%TD*%
D11*
%TO.C,J1*%
X163988750Y-83343750D03*
D12*
X169068750Y-83343750D03*
D11*
X174148750Y-83343750D03*
D13*
X171608750Y-78263750D03*
X165258750Y-80803750D03*
%TD*%
D10*
%TO.C,D64*%
X235840000Y-53975000D03*
X239140000Y-53975000D03*
%TD*%
%TO.C,D30*%
X150605000Y-30480000D03*
X153905000Y-30480000D03*
%TD*%
D11*
%TO.C,TILDE1*%
X16351250Y-45243750D03*
D12*
X21431250Y-45243750D03*
D11*
X26511250Y-45243750D03*
D13*
X23971250Y-40163750D03*
X17621250Y-42703750D03*
%TD*%
D11*
%TO.C,n1*%
X35401250Y-45243750D03*
D12*
X40481250Y-45243750D03*
D11*
X45561250Y-45243750D03*
D13*
X43021250Y-40163750D03*
X36671250Y-42703750D03*
%TD*%
D11*
%TO.C,X1*%
X78263750Y-102393750D03*
D12*
X83343750Y-102393750D03*
D11*
X88423750Y-102393750D03*
D13*
X85883750Y-97313750D03*
X79533750Y-99853750D03*
%TD*%
D11*
%TO.C,n5*%
X111601250Y-45243750D03*
D12*
X116681250Y-45243750D03*
D11*
X121761250Y-45243750D03*
D13*
X119221250Y-40163750D03*
X112871250Y-42703750D03*
%TD*%
D10*
%TO.C,D5*%
X35718750Y-111125000D03*
X39018750Y-111125000D03*
%TD*%
D11*
%TO.C,DARROW1*%
X325913750Y-121443750D03*
D12*
X330993750Y-121443750D03*
D11*
X336073750Y-121443750D03*
D13*
X333533750Y-116363750D03*
X327183750Y-118903750D03*
%TD*%
D11*
%TO.C,Q1*%
X44926250Y-64293750D03*
D12*
X50006250Y-64293750D03*
D11*
X55086250Y-64293750D03*
D13*
X52546250Y-59213750D03*
X46196250Y-61753750D03*
%TD*%
D10*
%TO.C,D56*%
X217425000Y-130175000D03*
X220725000Y-130175000D03*
%TD*%
D11*
%TO.C,F7*%
X178276250Y-21431250D03*
D12*
X183356250Y-21431250D03*
D11*
X188436250Y-21431250D03*
D13*
X185896250Y-16351250D03*
X179546250Y-18891250D03*
%TD*%
D10*
%TO.C,D86*%
X320930000Y-53975000D03*
X324230000Y-53975000D03*
%TD*%
%TO.C,D73*%
X266700000Y-110490000D03*
X270000000Y-110490000D03*
%TD*%
D11*
%TO.C,F13*%
X106838750Y-83343750D03*
D12*
X111918750Y-83343750D03*
D11*
X116998750Y-83343750D03*
D13*
X114458750Y-78263750D03*
X108108750Y-80803750D03*
%TD*%
D11*
%TO.C,rWIN1*%
X233045000Y-121443750D03*
D12*
X238125000Y-121443750D03*
D11*
X243205000Y-121443750D03*
D13*
X240665000Y-116363750D03*
X234315000Y-118903750D03*
%TD*%
D10*
%TO.C,D22*%
X99695000Y-92075000D03*
X102995000Y-92075000D03*
%TD*%
%TO.C,D26*%
X104395000Y-53975000D03*
X107695000Y-53975000D03*
%TD*%
%TO.C,D77*%
X285750000Y-73025000D03*
X289050000Y-73025000D03*
%TD*%
D11*
%TO.C,SHIFT1*%
X28257500Y-102393750D03*
D12*
X33337500Y-102393750D03*
D11*
X38417500Y-102393750D03*
D13*
X35877500Y-97313750D03*
X29527500Y-99853750D03*
%TD*%
D10*
%TO.C,D37*%
X151385000Y-73025000D03*
X154685000Y-73025000D03*
%TD*%
D11*
%TO.C,A1*%
X49688750Y-83343750D03*
D12*
X54768750Y-83343750D03*
D11*
X59848750Y-83343750D03*
D13*
X57308750Y-78263750D03*
X50958750Y-80803750D03*
%TD*%
D11*
%TO.C,CTRL1*%
X18732500Y-121443750D03*
D12*
X23812500Y-121443750D03*
D11*
X28892500Y-121443750D03*
D13*
X26352500Y-116363750D03*
X20002500Y-118903750D03*
%TD*%
D11*
%TO.C,Z1*%
X59213750Y-102393750D03*
D12*
X64293750Y-102393750D03*
D11*
X69373750Y-102393750D03*
D13*
X66833750Y-97313750D03*
X60483750Y-99853750D03*
%TD*%
D11*
%TO.C,F9*%
X225901250Y-21431250D03*
D12*
X230981250Y-21431250D03*
D11*
X236061250Y-21431250D03*
D13*
X233521250Y-16351250D03*
X227171250Y-18891250D03*
%TD*%
D10*
%TO.C,D25*%
X124080000Y-29845000D03*
X127380000Y-29845000D03*
%TD*%
%TO.C,D33*%
X138050000Y-92075000D03*
X141350000Y-92075000D03*
%TD*%
%TO.C,D61*%
X234570000Y-111125000D03*
X237870000Y-111125000D03*
%TD*%
D11*
%TO.C,CBRACKET1*%
X254476250Y-64293750D03*
D12*
X259556250Y-64293750D03*
D11*
X264636250Y-64293750D03*
D13*
X262096250Y-59213750D03*
X255746250Y-61753750D03*
%TD*%
D11*
%TO.C,F11*%
X264001250Y-21431250D03*
D12*
X269081250Y-21431250D03*
D11*
X274161250Y-21431250D03*
D13*
X271621250Y-16351250D03*
X265271250Y-18891250D03*
%TD*%
D11*
%TO.C,COLON1*%
X221138750Y-83343750D03*
D12*
X226218750Y-83343750D03*
D11*
X231298750Y-83343750D03*
D13*
X228758750Y-78263750D03*
X222408750Y-80803750D03*
%TD*%
D10*
%TO.C,D55*%
X216155000Y-111125000D03*
X219455000Y-111125000D03*
%TD*%
D11*
%TO.C,ENTER1*%
X271145000Y-83343750D03*
D12*
X276225000Y-83343750D03*
D11*
X281305000Y-83343750D03*
D13*
X278765000Y-78263750D03*
X272415000Y-80803750D03*
%TD*%
D11*
%TO.C,F6*%
X159226250Y-21431250D03*
D12*
X164306250Y-21431250D03*
D11*
X169386250Y-21431250D03*
D13*
X166846250Y-16351250D03*
X160496250Y-18891250D03*
%TD*%
D11*
%TO.C,F2*%
X73501250Y-21431250D03*
D12*
X78581250Y-21431250D03*
D11*
X83661250Y-21431250D03*
D13*
X81121250Y-16351250D03*
X74771250Y-18891250D03*
%TD*%
D11*
%TO.C,COMMA1*%
X192563750Y-102393750D03*
D12*
X197643750Y-102393750D03*
D11*
X202723750Y-102393750D03*
D13*
X200183750Y-97313750D03*
X193833750Y-99853750D03*
%TD*%
D10*
%TO.C,D60*%
X230760000Y-92075000D03*
X234060000Y-92075000D03*
%TD*%
%TO.C,D69*%
X293625000Y-29845000D03*
X296925000Y-29845000D03*
%TD*%
D11*
%TO.C,O1*%
X197326250Y-64293750D03*
D12*
X202406250Y-64293750D03*
D11*
X207486250Y-64293750D03*
D13*
X204946250Y-59213750D03*
X198596250Y-61753750D03*
%TD*%
D11*
%TO.C,R1*%
X102076250Y-64293750D03*
D12*
X107156250Y-64293750D03*
D11*
X112236250Y-64293750D03*
D13*
X109696250Y-59213750D03*
X103346250Y-61753750D03*
%TD*%
D11*
%TO.C,QUOTE1*%
X240188750Y-83343750D03*
D12*
X245268750Y-83343750D03*
D11*
X250348750Y-83343750D03*
D13*
X247808750Y-78263750D03*
X241458750Y-80803750D03*
%TD*%
D11*
%TO.C,n9*%
X187801250Y-45243750D03*
D12*
X192881250Y-45243750D03*
D11*
X197961250Y-45243750D03*
D13*
X195421250Y-40163750D03*
X189071250Y-42703750D03*
%TD*%
D10*
%TO.C,D14*%
X66675000Y-53975000D03*
X69975000Y-53975000D03*
%TD*%
%TO.C,D53*%
X207265000Y-73025000D03*
X210565000Y-73025000D03*
%TD*%
%TO.C,D47*%
X187835000Y-73025000D03*
X191135000Y-73025000D03*
%TD*%
%TO.C,D80*%
X334106250Y-111125000D03*
X337406250Y-111125000D03*
%TD*%
%TO.C,D32*%
X132335000Y-73025000D03*
X135635000Y-73025000D03*
%TD*%
%TO.C,D74*%
X288800000Y-130175000D03*
X292100000Y-130175000D03*
%TD*%
%TO.C,D48*%
X193295000Y-92075000D03*
X196595000Y-92075000D03*
%TD*%
%TO.C,D10*%
X61595000Y-92075000D03*
X64895000Y-92075000D03*
%TD*%
D15*
%TO.C,D82*%
X340518750Y-59310000D03*
X340518750Y-62610000D03*
%TD*%
D10*
%TO.C,D84*%
X355537500Y-53975000D03*
X358837500Y-53975000D03*
%TD*%
D11*
%TO.C,BACKSPACE1*%
X273526250Y-45243750D03*
D12*
X278606250Y-45243750D03*
D11*
X283686250Y-45243750D03*
D13*
X281146250Y-40163750D03*
X274796250Y-42703750D03*
%TD*%
D10*
%TO.C,D7*%
X65660000Y-29845000D03*
X68960000Y-29845000D03*
%TD*%
D11*
%TO.C,rALT1*%
X209232500Y-121443750D03*
D12*
X214312500Y-121443750D03*
D11*
X219392500Y-121443750D03*
D13*
X216852500Y-116363750D03*
X210502500Y-118903750D03*
%TD*%
D11*
%TO.C,T1*%
X121126250Y-64293750D03*
D12*
X126206250Y-64293750D03*
D11*
X131286250Y-64293750D03*
D13*
X128746250Y-59213750D03*
X122396250Y-61753750D03*
%TD*%
D10*
%TO.C,D58*%
X217425000Y-53975000D03*
X220725000Y-53975000D03*
%TD*%
D11*
%TO.C,ALT1*%
X66357500Y-121443750D03*
D12*
X71437500Y-121443750D03*
D11*
X76517500Y-121443750D03*
D13*
X73977500Y-116363750D03*
X67627500Y-118903750D03*
%TD*%
D11*
%TO.C,DEL1*%
X306863750Y-64293750D03*
D12*
X311943750Y-64293750D03*
D11*
X317023750Y-64293750D03*
D13*
X314483750Y-59213750D03*
X308133750Y-61753750D03*
%TD*%
D10*
%TO.C,D46*%
X178945000Y-53975000D03*
X182245000Y-53975000D03*
%TD*%
%TO.C,D12*%
X51945000Y-130175000D03*
X55245000Y-130175000D03*
%TD*%
%TO.C,D2*%
X27815000Y-53975000D03*
X31115000Y-53975000D03*
%TD*%
D11*
%TO.C,C1*%
X97313750Y-102393750D03*
D12*
X102393750Y-102393750D03*
D11*
X107473750Y-102393750D03*
D13*
X104933750Y-97313750D03*
X98583750Y-99853750D03*
%TD*%
D10*
%TO.C,D6*%
X27940000Y-130175000D03*
X31240000Y-130175000D03*
%TD*%
%TO.C,D34*%
X141480000Y-111125000D03*
X144780000Y-111125000D03*
%TD*%
D11*
%TO.C,I1*%
X178276250Y-64293750D03*
D12*
X183356250Y-64293750D03*
D11*
X188436250Y-64293750D03*
D13*
X185896250Y-59213750D03*
X179546250Y-61753750D03*
%TD*%
D11*
%TO.C,WIN1*%
X42545000Y-121443750D03*
D12*
X47625000Y-121443750D03*
D11*
X52705000Y-121443750D03*
D13*
X50165000Y-116363750D03*
X43815000Y-118903750D03*
%TD*%
D11*
%TO.C,MACRO1*%
X256857500Y-121443750D03*
D12*
X261937500Y-121443750D03*
D11*
X267017500Y-121443750D03*
D13*
X264477500Y-116363750D03*
X258127500Y-118903750D03*
%TD*%
D11*
%TO.C,PGDN1*%
X344963750Y-64293750D03*
D12*
X350043750Y-64293750D03*
D11*
X355123750Y-64293750D03*
D13*
X352583750Y-59213750D03*
X346233750Y-61753750D03*
%TD*%
D11*
%TO.C,n2*%
X54451250Y-45243750D03*
D12*
X59531250Y-45243750D03*
D11*
X64611250Y-45243750D03*
D13*
X62071250Y-40163750D03*
X55721250Y-42703750D03*
%TD*%
D11*
%TO.C,N10*%
X154463750Y-102393750D03*
D12*
X159543750Y-102393750D03*
D11*
X164623750Y-102393750D03*
D13*
X162083750Y-97313750D03*
X155733750Y-99853750D03*
%TD*%
D11*
%TO.C,LARROW1*%
X306863750Y-121443750D03*
D12*
X311943750Y-121443750D03*
D11*
X317023750Y-121443750D03*
D13*
X314483750Y-116363750D03*
X308133750Y-118903750D03*
%TD*%
D10*
%TO.C,D62*%
X240285000Y-130175000D03*
X243585000Y-130175000D03*
%TD*%
D11*
%TO.C,MINUS1*%
X225901250Y-45243750D03*
D12*
X230981250Y-45243750D03*
D11*
X236061250Y-45243750D03*
D13*
X233521250Y-40163750D03*
X227171250Y-42703750D03*
%TD*%
D11*
%TO.C,SLASH1*%
X230663750Y-102393750D03*
D12*
X235743750Y-102393750D03*
D11*
X240823750Y-102393750D03*
D13*
X238283750Y-97313750D03*
X231933750Y-99853750D03*
%TD*%
D11*
%TO.C,END1*%
X325913750Y-64293750D03*
D12*
X330993750Y-64293750D03*
D11*
X336073750Y-64293750D03*
D13*
X333533750Y-59213750D03*
X327183750Y-61753750D03*
%TD*%
D10*
%TO.C,D43*%
X174245000Y-92075000D03*
X177545000Y-92075000D03*
%TD*%
%TO.C,D40*%
X188850000Y-29845000D03*
X192150000Y-29845000D03*
%TD*%
%TO.C,D76*%
X283465000Y-53340000D03*
X286765000Y-53340000D03*
%TD*%
D11*
%TO.C,ESC1*%
X16351250Y-21431250D03*
D12*
X21431250Y-21431250D03*
D11*
X26511250Y-21431250D03*
D13*
X23971250Y-16351250D03*
X17621250Y-18891250D03*
%TD*%
D10*
%TO.C,D52*%
X197995000Y-53975000D03*
X201295000Y-53975000D03*
%TD*%
%TO.C,D3*%
X32260000Y-73025000D03*
X35560000Y-73025000D03*
%TD*%
D11*
%TO.C,F12*%
X283051250Y-21431250D03*
D12*
X288131250Y-21431250D03*
D11*
X293211250Y-21431250D03*
D13*
X290671250Y-16351250D03*
X284321250Y-18891250D03*
%TD*%
D11*
%TO.C,n6*%
X130651250Y-45243750D03*
D12*
X135731250Y-45243750D03*
D11*
X140811250Y-45243750D03*
D13*
X138271250Y-40163750D03*
X131921250Y-42703750D03*
%TD*%
D10*
%TO.C,D54*%
X211710000Y-92075000D03*
X215010000Y-92075000D03*
%TD*%
D11*
%TO.C,INS1*%
X306863750Y-45243750D03*
D12*
X311943750Y-45243750D03*
D11*
X317023750Y-45243750D03*
D13*
X314483750Y-40163750D03*
X308133750Y-42703750D03*
%TD*%
D10*
%TO.C,D39*%
X160275000Y-111125000D03*
X163575000Y-111125000D03*
%TD*%
%TO.C,D29*%
X123065000Y-111125000D03*
X126365000Y-111125000D03*
%TD*%
%TO.C,D23*%
X103760000Y-111125000D03*
X107060000Y-111125000D03*
%TD*%
D11*
%TO.C,H1*%
X144938750Y-83343750D03*
D12*
X150018750Y-83343750D03*
D11*
X155098750Y-83343750D03*
D13*
X152558750Y-78263750D03*
X146208750Y-80803750D03*
%TD*%
D10*
%TO.C,D8*%
X46865000Y-53975000D03*
X50165000Y-53975000D03*
%TD*%
D16*
%TO.C,SW1*%
X347450000Y-18812500D03*
D17*
X347450000Y-23812500D03*
X347450000Y-21312500D03*
D18*
X354950000Y-15712500D03*
X354950000Y-26912500D03*
D17*
X361950000Y-23812500D03*
X361950000Y-18812500D03*
%TD*%
D10*
%TO.C,D31*%
X123445000Y-53975000D03*
X126745000Y-53975000D03*
%TD*%
%TO.C,D63*%
X273940000Y-29845000D03*
X277240000Y-29845000D03*
%TD*%
%TO.C,D65*%
X245620000Y-73025000D03*
X248920000Y-73025000D03*
%TD*%
%TO.C,D4*%
X34800000Y-91440000D03*
X38100000Y-91440000D03*
%TD*%
D11*
%TO.C,Y1*%
X140176250Y-64293750D03*
D12*
X145256250Y-64293750D03*
D11*
X150336250Y-64293750D03*
D13*
X147796250Y-59213750D03*
X141446250Y-61753750D03*
%TD*%
D10*
%TO.C,D36*%
X141480000Y-53975000D03*
X144780000Y-53975000D03*
%TD*%
D11*
%TO.C,M1*%
X173513750Y-102393750D03*
D12*
X178593750Y-102393750D03*
D11*
X183673750Y-102393750D03*
D13*
X181133750Y-97313750D03*
X174783750Y-99853750D03*
%TD*%
D11*
%TO.C,K1*%
X183038750Y-83343750D03*
D12*
X188118750Y-83343750D03*
D11*
X193198750Y-83343750D03*
D13*
X190658750Y-78263750D03*
X184308750Y-80803750D03*
%TD*%
D11*
%TO.C,F1*%
X54451250Y-21431250D03*
D12*
X59531250Y-21431250D03*
D11*
X64611250Y-21431250D03*
D13*
X62071250Y-16351250D03*
X55721250Y-18891250D03*
%TD*%
D10*
%TO.C,D35*%
X170435000Y-30480000D03*
X173735000Y-30480000D03*
%TD*%
%TO.C,D57*%
X255525000Y-29845000D03*
X258825000Y-29845000D03*
%TD*%
%TO.C,D21*%
X94870000Y-73025000D03*
X98170000Y-73025000D03*
%TD*%
D11*
%TO.C,n8*%
X168751250Y-45243750D03*
D12*
X173831250Y-45243750D03*
D11*
X178911250Y-45243750D03*
D13*
X176371250Y-40163750D03*
X170021250Y-42703750D03*
%TD*%
D10*
%TO.C,D11*%
X66295000Y-111125000D03*
X69595000Y-111125000D03*
%TD*%
%TO.C,D42*%
X169800000Y-73025000D03*
X173100000Y-73025000D03*
%TD*%
D11*
%TO.C,V1*%
X116363750Y-102393750D03*
D12*
X121443750Y-102393750D03*
D11*
X126523750Y-102393750D03*
D13*
X123983750Y-97313750D03*
X117633750Y-99853750D03*
%TD*%
D15*
%TO.C,D81*%
X359568750Y-60262500D03*
X359568750Y-63562500D03*
%TD*%
D10*
%TO.C,D24*%
X145035000Y-130175000D03*
X148335000Y-130175000D03*
%TD*%
%TO.C,D44*%
X179325000Y-111125000D03*
X182625000Y-111125000D03*
%TD*%
D11*
%TO.C,B1*%
X135413750Y-102393750D03*
D12*
X140493750Y-102393750D03*
D11*
X145573750Y-102393750D03*
D13*
X143033750Y-97313750D03*
X136683750Y-99853750D03*
%TD*%
D10*
%TO.C,D15*%
X75820000Y-73025000D03*
X79120000Y-73025000D03*
%TD*%
%TO.C,D16*%
X80645000Y-92075000D03*
X83945000Y-92075000D03*
%TD*%
D11*
%TO.C,SPACE1*%
X137795000Y-121443750D03*
D12*
X142875000Y-121443750D03*
D11*
X147955000Y-121443750D03*
D13*
X145415000Y-116363750D03*
X139065000Y-118903750D03*
%TD*%
D10*
%TO.C,D1*%
X27656250Y-30480000D03*
X30956250Y-30480000D03*
%TD*%
D11*
%TO.C,HOME1*%
X325913750Y-45243750D03*
D12*
X330993750Y-45243750D03*
D11*
X336073750Y-45243750D03*
D13*
X333533750Y-40163750D03*
X327183750Y-42703750D03*
%TD*%
D11*
%TO.C,UARROW1*%
X325913750Y-102393750D03*
D12*
X330993750Y-102393750D03*
D11*
X336073750Y-102393750D03*
D13*
X333533750Y-97313750D03*
X327183750Y-99853750D03*
%TD*%
D11*
%TO.C,n4*%
X92551250Y-45243750D03*
D12*
X97631250Y-45243750D03*
D11*
X102711250Y-45243750D03*
D13*
X100171250Y-40163750D03*
X93821250Y-42703750D03*
%TD*%
D10*
%TO.C,D20*%
X85600000Y-53975000D03*
X88900000Y-53975000D03*
%TD*%
%TO.C,D18*%
X76200000Y-130175000D03*
X79500000Y-130175000D03*
%TD*%
%TO.C,D71*%
X263780000Y-73025000D03*
X267080000Y-73025000D03*
%TD*%
%TO.C,D50*%
X280925000Y-92075000D03*
X284225000Y-92075000D03*
%TD*%
D11*
%TO.C,F4*%
X111601250Y-21431250D03*
D12*
X116681250Y-21431250D03*
D11*
X121761250Y-21431250D03*
D13*
X119221250Y-16351250D03*
X112871250Y-18891250D03*
%TD*%
D10*
%TO.C,D49*%
X197740000Y-111125000D03*
X201040000Y-111125000D03*
%TD*%
%TO.C,D17*%
X85345000Y-111125000D03*
X88645000Y-111125000D03*
%TD*%
%TO.C,D72*%
X353156250Y-130175000D03*
X356456250Y-130175000D03*
%TD*%
D11*
%TO.C,PERIOD1*%
X211613750Y-102393750D03*
D12*
X216693750Y-102393750D03*
D11*
X221773750Y-102393750D03*
D13*
X219233750Y-97313750D03*
X212883750Y-99853750D03*
%TD*%
D10*
%TO.C,D19*%
X104140000Y-29845000D03*
X107440000Y-29845000D03*
%TD*%
D11*
%TO.C,G1*%
X125888750Y-83343750D03*
D12*
X130968750Y-83343750D03*
D11*
X136048750Y-83343750D03*
D13*
X133508750Y-78263750D03*
X127158750Y-80803750D03*
%TD*%
D19*
%TO.C,U1*%
X360320000Y-87180000D03*
D20*
X357290000Y-86880000D03*
X357290000Y-82030000D03*
D19*
X360320000Y-81730000D03*
D21*
X360450000Y-93345000D03*
X357910000Y-93345000D03*
D14*
X355370000Y-93345000D03*
D21*
X352830000Y-93345000D03*
X350290000Y-93345000D03*
X347750000Y-93345000D03*
X345210000Y-93345000D03*
D14*
X342670000Y-93345000D03*
D21*
X340130000Y-93345000D03*
X337590000Y-93345000D03*
X335050000Y-93345000D03*
X332510000Y-93345000D03*
D14*
X329970000Y-93345000D03*
D21*
X327430000Y-93345000D03*
X324890000Y-93345000D03*
X322350000Y-93345000D03*
X319810000Y-93345000D03*
D14*
X317270000Y-93345000D03*
D21*
X314730000Y-93345000D03*
X312190000Y-93345000D03*
X312190000Y-75565000D03*
X314730000Y-75565000D03*
D14*
X317270000Y-75565000D03*
D21*
X319810000Y-75565000D03*
X322350000Y-75565000D03*
X324890000Y-75565000D03*
X327430000Y-75565000D03*
D14*
X329970000Y-75565000D03*
D21*
X332510000Y-75565000D03*
X335050000Y-75565000D03*
X337590000Y-75565000D03*
X340130000Y-75565000D03*
D14*
X342670000Y-75565000D03*
D21*
X345210000Y-75565000D03*
X347750000Y-75565000D03*
X350290000Y-75565000D03*
X352830000Y-75565000D03*
D14*
X355370000Y-75565000D03*
D21*
X357910000Y-75565000D03*
X360450000Y-75565000D03*
X312420000Y-86995000D03*
D14*
X312420000Y-84455000D03*
D21*
X312420000Y-81915000D03*
%TD*%
M02*
