%TF.GenerationSoftware,KiCad,Pcbnew,9.0.7*%
%TF.CreationDate,2026-06-29T14:59:53+05:30*%
%TF.ProjectId,keyboard,6b657962-6f61-4726-942e-6b696361645f,rev?*%
%TF.SameCoordinates,Original*%
%TF.FileFunction,Copper,L1,Top*%
%TF.FilePolarity,Positive*%
%FSLAX46Y46*%
G04 Gerber Fmt 4.6, Leading zero omitted, Abs format (unit mm)*
G04 Created by KiCad (PCBNEW 9.0.7) date 2026-06-29 14:59:53*
%MOMM*%
%LPD*%
G01*
G04 APERTURE LIST*
G04 Aperture macros list*
%AMRoundRect*
0 Rectangle with rounded corners*
0 $1 Rounding radius*
0 $2 $3 $4 $5 $6 $7 $8 $9 X,Y pos of 4 corners*
0 Add a 4 corners polygon primitive as box body*
4,1,4,$2,$3,$4,$5,$6,$7,$8,$9,$2,$3,0*
0 Add four circle primitives for the rounded corners*
1,1,$1+$1,$2,$3*
1,1,$1+$1,$4,$5*
1,1,$1+$1,$6,$7*
1,1,$1+$1,$8,$9*
0 Add four rect primitives between the rounded corners*
20,1,$1+$1,$2,$3,$4,$5,0*
20,1,$1+$1,$4,$5,$6,$7,0*
20,1,$1+$1,$6,$7,$8,$9,0*
20,1,$1+$1,$8,$9,$2,$3,0*%
G04 Aperture macros list end*
%TA.AperFunction,SMDPad,CuDef*%
%ADD10RoundRect,0.225000X-0.225000X-0.375000X0.225000X-0.375000X0.225000X0.375000X-0.225000X0.375000X0*%
%TD*%
%TA.AperFunction,ComponentPad*%
%ADD11C,2.200000*%
%TD*%
%TA.AperFunction,ComponentPad*%
%ADD12R,1.700000X1.700000*%
%TD*%
%TA.AperFunction,ComponentPad*%
%ADD13C,1.700000*%
%TD*%
%TA.AperFunction,SMDPad,CuDef*%
%ADD14RoundRect,0.225000X-0.375000X0.225000X-0.375000X-0.225000X0.375000X-0.225000X0.375000X0.225000X0*%
%TD*%
%TA.AperFunction,ComponentPad*%
%ADD15R,2.000000X2.000000*%
%TD*%
%TA.AperFunction,ComponentPad*%
%ADD16C,2.000000*%
%TD*%
%TA.AperFunction,ComponentPad*%
%ADD17R,3.200000X2.000000*%
%TD*%
%TA.AperFunction,ComponentPad*%
%ADD18O,1.700000X1.700000*%
%TD*%
%TA.AperFunction,ViaPad*%
%ADD19C,0.600000*%
%TD*%
%TA.AperFunction,Conductor*%
%ADD20C,0.250000*%
%TD*%
G04 APERTURE END LIST*
D10*
%TO.P,D78,1,K*%
%TO.N,Net-(D78-K)*%
X315056250Y-130175000D03*
%TO.P,D78,2,A*%
%TO.N,ROW4*%
X318356250Y-130175000D03*
%TD*%
D11*
%TO.P,n3,1,1*%
%TO.N,Net-(D20-K)*%
X81121250Y-40163750D03*
%TO.P,n3,2,2*%
%TO.N,COL3*%
X74771250Y-42703750D03*
%TD*%
%TO.P,U2,1,1*%
%TO.N,Net-(D42-K)*%
X166846250Y-59213750D03*
%TO.P,U2,2,2*%
%TO.N,COL7*%
X160496250Y-61753750D03*
%TD*%
D10*
%TO.P,D28,1,K*%
%TO.N,Net-(D28-K)*%
X119000000Y-92075000D03*
%TO.P,D28,2,A*%
%TO.N,ROW3*%
X122300000Y-92075000D03*
%TD*%
D11*
%TO.P,L1,1,1*%
%TO.N,Net-(D54-K)*%
X209708750Y-78263750D03*
%TO.P,L1,2,2*%
%TO.N,COL9*%
X203358750Y-80803750D03*
%TD*%
%TO.P,F8,1,1*%
%TO.N,Net-(D45-K)*%
X204946250Y-16351250D03*
%TO.P,F8,2,2*%
%TO.N,COL8*%
X198596250Y-18891250D03*
%TD*%
D10*
%TO.P,D38,1,K*%
%TO.N,Net-(D38-K)*%
X154560000Y-92075000D03*
%TO.P,D38,2,A*%
%TO.N,ROW3*%
X157860000Y-92075000D03*
%TD*%
%TO.P,D68,1,K*%
%TO.N,Net-(D68-K)*%
X264035000Y-130175000D03*
%TO.P,D68,2,A*%
%TO.N,ROW5*%
X267335000Y-130175000D03*
%TD*%
D11*
%TO.P,n0,1,1*%
%TO.N,Net-(D58-K)*%
X214471250Y-40163750D03*
%TO.P,n0,2,2*%
%TO.N,COL10*%
X208121250Y-42703750D03*
%TD*%
D10*
%TO.P,D45,1,K*%
%TO.N,Net-(D45-K)*%
X207900000Y-29845000D03*
%TO.P,D45,2,A*%
%TO.N,ROW0*%
X211200000Y-29845000D03*
%TD*%
D11*
%TO.P,RARROW1,1,1*%
%TO.N,Net-(D72-K)*%
X352583750Y-116363750D03*
%TO.P,RARROW1,2,2*%
%TO.N,COL13*%
X346233750Y-118903750D03*
%TD*%
D10*
%TO.P,D27,1,K*%
%TO.N,Net-(D27-K)*%
X113920000Y-73025000D03*
%TO.P,D27,2,A*%
%TO.N,ROW2*%
X117220000Y-73025000D03*
%TD*%
D11*
%TO.P,OBRACKET1,1,1*%
%TO.N,Net-(D65-K)*%
X243046250Y-59213750D03*
%TO.P,OBRACKET1,2,2*%
%TO.N,COL11*%
X236696250Y-61753750D03*
%TD*%
D10*
%TO.P,D59,1,K*%
%TO.N,Net-(D59-K)*%
X226315000Y-73025000D03*
%TO.P,D59,2,A*%
%TO.N,ROW2*%
X229615000Y-73025000D03*
%TD*%
D11*
%TO.P,F5,1,1*%
%TO.N,Net-(D30-K)*%
X147796250Y-16351250D03*
%TO.P,F5,2,2*%
%TO.N,COL5*%
X141446250Y-18891250D03*
%TD*%
%TO.P,S1,1,1*%
%TO.N,Net-(D16-K)*%
X76358750Y-78263750D03*
%TO.P,S1,2,2*%
%TO.N,COL2*%
X70008750Y-80803750D03*
%TD*%
%TO.P,n7,1,1*%
%TO.N,Net-(D41-K)*%
X157321250Y-40163750D03*
%TO.P,n7,2,2*%
%TO.N,COL7*%
X150971250Y-42703750D03*
%TD*%
%TO.P,PGUP1,1,1*%
%TO.N,Net-(D84-K)*%
X352583750Y-40163750D03*
%TO.P,PGUP1,2,2*%
%TO.N,COL14*%
X346233750Y-42703750D03*
%TD*%
D10*
%TO.P,D51,1,K*%
%TO.N,Net-(D51-K)*%
X237110000Y-29845000D03*
%TO.P,D51,2,A*%
%TO.N,ROW0*%
X240410000Y-29845000D03*
%TD*%
D11*
%TO.P,rSHIFT1,1,1*%
%TO.N,Net-(D73-K)*%
X274002500Y-97313750D03*
%TO.P,rSHIFT1,2,2*%
%TO.N,COL11*%
X267652500Y-99853750D03*
%TD*%
D10*
%TO.P,D9,1,K*%
%TO.N,Net-(D9-K)*%
X56135000Y-72390000D03*
%TO.P,D9,2,A*%
%TO.N,ROW2*%
X59435000Y-72390000D03*
%TD*%
D11*
%TO.P,E1,1,1*%
%TO.N,Net-(D21-K)*%
X90646250Y-59213750D03*
%TO.P,E1,2,2*%
%TO.N,COL3*%
X84296250Y-61753750D03*
%TD*%
%TO.P,P1,1,1*%
%TO.N,Net-(D59-K)*%
X223996250Y-59213750D03*
%TO.P,P1,2,2*%
%TO.N,COL10*%
X217646250Y-61753750D03*
%TD*%
D10*
%TO.P,D41,1,K*%
%TO.N,Net-(D41-K)*%
X160275000Y-53975000D03*
%TO.P,D41,2,A*%
%TO.N,ROW1*%
X163575000Y-53975000D03*
%TD*%
D11*
%TO.P,D67,1,1*%
%TO.N,Net-(D22-K)*%
X95408750Y-78263750D03*
%TO.P,D67,2,2*%
%TO.N,COL3*%
X89058750Y-80803750D03*
%TD*%
%TO.P,F10,1,1*%
%TO.N,Net-(D57-K)*%
X252571250Y-16351250D03*
%TO.P,F10,2,2*%
%TO.N,COL10*%
X246221250Y-18891250D03*
%TD*%
D10*
%TO.P,D79,1,K*%
%TO.N,Net-(D79-K)*%
X334106250Y-130175000D03*
%TO.P,D79,2,A*%
%TO.N,ROW5*%
X337406250Y-130175000D03*
%TD*%
D11*
%TO.P,CAPS1,1,1*%
%TO.N,Net-(D4-K)*%
X31115000Y-78263750D03*
%TO.P,CAPS1,2,2*%
%TO.N,COL0*%
X24765000Y-80803750D03*
%TD*%
%TO.P,BSLASH1,1,1*%
%TO.N,Net-(D77-K)*%
X285908750Y-59213750D03*
%TO.P,BSLASH1,2,2*%
%TO.N,COL13*%
X279558750Y-61753750D03*
%TD*%
D10*
%TO.P,D85,1,K*%
%TO.N,Net-(D85-K)*%
X339980000Y-53975000D03*
%TO.P,D85,2,A*%
%TO.N,ROW1*%
X343280000Y-53975000D03*
%TD*%
%TO.P,D70,1,K*%
%TO.N,Net-(D70-K)*%
X255525000Y-53975000D03*
%TO.P,D70,2,A*%
%TO.N,ROW1*%
X258825000Y-53975000D03*
%TD*%
D12*
%TO.P,OLED DISPLAY1,1,Pin_1*%
%TO.N,Net-(OLED DISPLAY1-Pin_1)*%
X304800000Y-17780000D03*
D13*
%TO.P,OLED DISPLAY1,2,Pin_2*%
%TO.N,Net-(OLED DISPLAY1-Pin_2)*%
X304800000Y-20320000D03*
%TO.P,OLED DISPLAY1,3,Pin_3*%
%TO.N,/OLED_SDA*%
X304800000Y-22860000D03*
%TO.P,OLED DISPLAY1,4,Pin_4*%
%TO.N,/OLED_SCL*%
X304800000Y-25400000D03*
%TD*%
D11*
%TO.P,rCTRL1,1,1*%
%TO.N,Net-(D74-K)*%
X288290000Y-116363750D03*
%TO.P,rCTRL1,2,2*%
%TO.N,COL12*%
X281940000Y-118903750D03*
%TD*%
%TO.P,W1,1,1*%
%TO.N,Net-(D15-K)*%
X71596250Y-59213750D03*
%TO.P,W1,2,2*%
%TO.N,COL2*%
X65246250Y-61753750D03*
%TD*%
D14*
%TO.P,D83,1,K*%
%TO.N,Net-(D83-K)*%
X321468750Y-59945000D03*
%TO.P,D83,2,A*%
%TO.N,ROW3*%
X321468750Y-63245000D03*
%TD*%
D11*
%TO.P,F3,1,1*%
%TO.N,Net-(D19-K)*%
X100171250Y-16351250D03*
%TO.P,F3,2,2*%
%TO.N,COL3*%
X93821250Y-18891250D03*
%TD*%
D10*
%TO.P,D13,1,K*%
%TO.N,Net-(D13-K)*%
X85345000Y-29845000D03*
%TO.P,D13,2,A*%
%TO.N,ROW0*%
X88645000Y-29845000D03*
%TD*%
D11*
%TO.P,PLUS1,1,1*%
%TO.N,Net-(D70-K)*%
X252571250Y-40163750D03*
%TO.P,PLUS1,2,2*%
%TO.N,COL12*%
X246221250Y-42703750D03*
%TD*%
D10*
%TO.P,D66,1,K*%
%TO.N,Net-(D66-K)*%
X249175000Y-92075000D03*
%TO.P,D66,2,A*%
%TO.N,ROW3*%
X252475000Y-92075000D03*
%TD*%
D11*
%TO.P,TAB1,1,1*%
%TO.N,Net-(D3-K)*%
X28733750Y-59213750D03*
%TO.P,TAB1,2,2*%
%TO.N,COL0*%
X22383750Y-61753750D03*
%TD*%
%TO.P,J1,1,1*%
%TO.N,Net-(D43-K)*%
X171608750Y-78263750D03*
%TO.P,J1,2,2*%
%TO.N,COL7*%
X165258750Y-80803750D03*
%TD*%
D10*
%TO.P,D64,1,K*%
%TO.N,Net-(D64-K)*%
X235840000Y-53975000D03*
%TO.P,D64,2,A*%
%TO.N,ROW1*%
X239140000Y-53975000D03*
%TD*%
%TO.P,D30,1,K*%
%TO.N,Net-(D30-K)*%
X150605000Y-30480000D03*
%TO.P,D30,2,A*%
%TO.N,ROW0*%
X153905000Y-30480000D03*
%TD*%
D11*
%TO.P,TILDE1,1,1*%
%TO.N,Net-(D2-K)*%
X23971250Y-40163750D03*
%TO.P,TILDE1,2,2*%
%TO.N,COL0*%
X17621250Y-42703750D03*
%TD*%
%TO.P,n1,1,1*%
%TO.N,Net-(D8-K)*%
X43021250Y-40163750D03*
%TO.P,n1,2,2*%
%TO.N,COL1*%
X36671250Y-42703750D03*
%TD*%
%TO.P,X1,1,1*%
%TO.N,Net-(D17-K)*%
X85883750Y-97313750D03*
%TO.P,X1,2,2*%
%TO.N,COL2*%
X79533750Y-99853750D03*
%TD*%
%TO.P,n5,1,1*%
%TO.N,Net-(D31-K)*%
X119221250Y-40163750D03*
%TO.P,n5,2,2*%
%TO.N,COL5*%
X112871250Y-42703750D03*
%TD*%
D10*
%TO.P,D5,1,K*%
%TO.N,Net-(D5-K)*%
X35718750Y-111125000D03*
%TO.P,D5,2,A*%
%TO.N,ROW4*%
X39018750Y-111125000D03*
%TD*%
D11*
%TO.P,DARROW1,1,1*%
%TO.N,Net-(D79-K)*%
X333533750Y-116363750D03*
%TO.P,DARROW1,2,2*%
%TO.N,COL13*%
X327183750Y-118903750D03*
%TD*%
%TO.P,Q1,1,1*%
%TO.N,Net-(D9-K)*%
X52546250Y-59213750D03*
%TO.P,Q1,2,2*%
%TO.N,COL1*%
X46196250Y-61753750D03*
%TD*%
D10*
%TO.P,D56,1,K*%
%TO.N,Net-(D56-K)*%
X217425000Y-130175000D03*
%TO.P,D56,2,A*%
%TO.N,ROW5*%
X220725000Y-130175000D03*
%TD*%
D11*
%TO.P,F7,1,1*%
%TO.N,Net-(D40-K)*%
X185896250Y-16351250D03*
%TO.P,F7,2,2*%
%TO.N,COL7*%
X179546250Y-18891250D03*
%TD*%
D10*
%TO.P,D86,1,K*%
%TO.N,Net-(D86-K)*%
X320930000Y-53975000D03*
%TO.P,D86,2,A*%
%TO.N,ROW0*%
X324230000Y-53975000D03*
%TD*%
%TO.P,D73,1,K*%
%TO.N,Net-(D73-K)*%
X266700000Y-110490000D03*
%TO.P,D73,2,A*%
%TO.N,ROW4*%
X270000000Y-110490000D03*
%TD*%
D11*
%TO.P,F13,1,1*%
%TO.N,Net-(D28-K)*%
X114458750Y-78263750D03*
%TO.P,F13,2,2*%
%TO.N,COL4*%
X108108750Y-80803750D03*
%TD*%
%TO.P,rWIN1,1,1*%
%TO.N,Net-(D62-K)*%
X240665000Y-116363750D03*
%TO.P,rWIN1,2,2*%
%TO.N,COL10*%
X234315000Y-118903750D03*
%TD*%
D10*
%TO.P,D22,1,K*%
%TO.N,Net-(D22-K)*%
X99695000Y-92075000D03*
%TO.P,D22,2,A*%
%TO.N,ROW3*%
X102995000Y-92075000D03*
%TD*%
%TO.P,D26,1,K*%
%TO.N,Net-(D26-K)*%
X104395000Y-53975000D03*
%TO.P,D26,2,A*%
%TO.N,ROW1*%
X107695000Y-53975000D03*
%TD*%
%TO.P,D77,1,K*%
%TO.N,Net-(D77-K)*%
X285750000Y-73025000D03*
%TO.P,D77,2,A*%
%TO.N,ROW2*%
X289050000Y-73025000D03*
%TD*%
D11*
%TO.P,SHIFT1,1,1*%
%TO.N,Net-(D5-K)*%
X35877500Y-97313750D03*
%TO.P,SHIFT1,2,2*%
%TO.N,COL0*%
X29527500Y-99853750D03*
%TD*%
D10*
%TO.P,D37,1,K*%
%TO.N,Net-(D37-K)*%
X151385000Y-73025000D03*
%TO.P,D37,2,A*%
%TO.N,ROW2*%
X154685000Y-73025000D03*
%TD*%
D11*
%TO.P,A1,1,1*%
%TO.N,Net-(D10-K)*%
X57308750Y-78263750D03*
%TO.P,A1,2,2*%
%TO.N,COL1*%
X50958750Y-80803750D03*
%TD*%
%TO.P,CTRL1,1,1*%
%TO.N,Net-(D6-K)*%
X26352500Y-116363750D03*
%TO.P,CTRL1,2,2*%
%TO.N,COL0*%
X20002500Y-118903750D03*
%TD*%
%TO.P,Z1,1,1*%
%TO.N,Net-(D11-K)*%
X66833750Y-97313750D03*
%TO.P,Z1,2,2*%
%TO.N,COL1*%
X60483750Y-99853750D03*
%TD*%
%TO.P,F9,1,1*%
%TO.N,Net-(D51-K)*%
X233521250Y-16351250D03*
%TO.P,F9,2,2*%
%TO.N,COL9*%
X227171250Y-18891250D03*
%TD*%
D10*
%TO.P,D25,1,K*%
%TO.N,Net-(D25-K)*%
X124080000Y-29845000D03*
%TO.P,D25,2,A*%
%TO.N,ROW0*%
X127380000Y-29845000D03*
%TD*%
%TO.P,D33,1,K*%
%TO.N,Net-(D33-K)*%
X138050000Y-92075000D03*
%TO.P,D33,2,A*%
%TO.N,ROW3*%
X141350000Y-92075000D03*
%TD*%
%TO.P,D61,1,K*%
%TO.N,Net-(D61-K)*%
X234570000Y-111125000D03*
%TO.P,D61,2,A*%
%TO.N,ROW4*%
X237870000Y-111125000D03*
%TD*%
D11*
%TO.P,CBRACKET1,1,1*%
%TO.N,Net-(D71-K)*%
X262096250Y-59213750D03*
%TO.P,CBRACKET1,2,2*%
%TO.N,COL12*%
X255746250Y-61753750D03*
%TD*%
%TO.P,F11,1,1*%
%TO.N,Net-(D63-K)*%
X271621250Y-16351250D03*
%TO.P,F11,2,2*%
%TO.N,COL11*%
X265271250Y-18891250D03*
%TD*%
%TO.P,COLON1,1,1*%
%TO.N,Net-(D60-K)*%
X228758750Y-78263750D03*
%TO.P,COLON1,2,2*%
%TO.N,COL10*%
X222408750Y-80803750D03*
%TD*%
D10*
%TO.P,D55,1,K*%
%TO.N,Net-(D55-K)*%
X216155000Y-111125000D03*
%TO.P,D55,2,A*%
%TO.N,ROW4*%
X219455000Y-111125000D03*
%TD*%
D11*
%TO.P,ENTER1,1,1*%
%TO.N,Net-(D50-K)*%
X278765000Y-78263750D03*
%TO.P,ENTER1,2,2*%
%TO.N,COL12*%
X272415000Y-80803750D03*
%TD*%
%TO.P,F6,1,1*%
%TO.N,Net-(D35-K)*%
X166846250Y-16351250D03*
%TO.P,F6,2,2*%
%TO.N,COL6*%
X160496250Y-18891250D03*
%TD*%
%TO.P,F2,1,1*%
%TO.N,Net-(D13-K)*%
X81121250Y-16351250D03*
%TO.P,F2,2,2*%
%TO.N,COL2*%
X74771250Y-18891250D03*
%TD*%
%TO.P,COMMA1,1,1*%
%TO.N,Net-(D49-K)*%
X200183750Y-97313750D03*
%TO.P,COMMA1,2,2*%
%TO.N,COL8*%
X193833750Y-99853750D03*
%TD*%
D10*
%TO.P,D60,1,K*%
%TO.N,Net-(D60-K)*%
X230760000Y-92075000D03*
%TO.P,D60,2,A*%
%TO.N,ROW3*%
X234060000Y-92075000D03*
%TD*%
%TO.P,D69,1,K*%
%TO.N,Net-(D69-K)*%
X293625000Y-29845000D03*
%TO.P,D69,2,A*%
%TO.N,ROW0*%
X296925000Y-29845000D03*
%TD*%
D11*
%TO.P,O1,1,1*%
%TO.N,Net-(D53-K)*%
X204946250Y-59213750D03*
%TO.P,O1,2,2*%
%TO.N,COL9*%
X198596250Y-61753750D03*
%TD*%
%TO.P,R1,1,1*%
%TO.N,Net-(D27-K)*%
X109696250Y-59213750D03*
%TO.P,R1,2,2*%
%TO.N,COL4*%
X103346250Y-61753750D03*
%TD*%
%TO.P,QUOTE1,1,1*%
%TO.N,Net-(D66-K)*%
X247808750Y-78263750D03*
%TO.P,QUOTE1,2,2*%
%TO.N,COL11*%
X241458750Y-80803750D03*
%TD*%
%TO.P,n9,1,1*%
%TO.N,Net-(D52-K)*%
X195421250Y-40163750D03*
%TO.P,n9,2,2*%
%TO.N,COL9*%
X189071250Y-42703750D03*
%TD*%
D10*
%TO.P,D14,1,K*%
%TO.N,Net-(D14-K)*%
X66675000Y-53975000D03*
%TO.P,D14,2,A*%
%TO.N,ROW1*%
X69975000Y-53975000D03*
%TD*%
%TO.P,D53,1,K*%
%TO.N,Net-(D53-K)*%
X207265000Y-73025000D03*
%TO.P,D53,2,A*%
%TO.N,ROW2*%
X210565000Y-73025000D03*
%TD*%
%TO.P,D47,1,K*%
%TO.N,Net-(D47-K)*%
X187835000Y-73025000D03*
%TO.P,D47,2,A*%
%TO.N,ROW2*%
X191135000Y-73025000D03*
%TD*%
%TO.P,D80,1,K*%
%TO.N,Net-(D80-K)*%
X334106250Y-111125000D03*
%TO.P,D80,2,A*%
%TO.N,ROW4*%
X337406250Y-111125000D03*
%TD*%
%TO.P,D32,1,K*%
%TO.N,Net-(D32-K)*%
X132335000Y-73025000D03*
%TO.P,D32,2,A*%
%TO.N,ROW2*%
X135635000Y-73025000D03*
%TD*%
%TO.P,D74,1,K*%
%TO.N,Net-(D74-K)*%
X288800000Y-130175000D03*
%TO.P,D74,2,A*%
%TO.N,ROW5*%
X292100000Y-130175000D03*
%TD*%
%TO.P,D48,1,K*%
%TO.N,Net-(D48-K)*%
X193295000Y-92075000D03*
%TO.P,D48,2,A*%
%TO.N,ROW3*%
X196595000Y-92075000D03*
%TD*%
%TO.P,D10,1,K*%
%TO.N,Net-(D10-K)*%
X61595000Y-92075000D03*
%TO.P,D10,2,A*%
%TO.N,ROW3*%
X64895000Y-92075000D03*
%TD*%
D14*
%TO.P,D82,1,K*%
%TO.N,Net-(D82-K)*%
X340518750Y-59310000D03*
%TO.P,D82,2,A*%
%TO.N,ROW4*%
X340518750Y-62610000D03*
%TD*%
D10*
%TO.P,D84,1,K*%
%TO.N,Net-(D84-K)*%
X355537500Y-53975000D03*
%TO.P,D84,2,A*%
%TO.N,ROW2*%
X358837500Y-53975000D03*
%TD*%
D11*
%TO.P,BACKSPACE1,1,1*%
%TO.N,Net-(D76-K)*%
X281146250Y-40163750D03*
%TO.P,BACKSPACE1,2,2*%
%TO.N,COL13*%
X274796250Y-42703750D03*
%TD*%
D10*
%TO.P,D7,1,K*%
%TO.N,Net-(D7-K)*%
X65660000Y-29845000D03*
%TO.P,D7,2,A*%
%TO.N,ROW0*%
X68960000Y-29845000D03*
%TD*%
D11*
%TO.P,rALT1,1,1*%
%TO.N,Net-(D56-K)*%
X216852500Y-116363750D03*
%TO.P,rALT1,2,2*%
%TO.N,COL9*%
X210502500Y-118903750D03*
%TD*%
%TO.P,T1,1,1*%
%TO.N,Net-(D32-K)*%
X128746250Y-59213750D03*
%TO.P,T1,2,2*%
%TO.N,COL5*%
X122396250Y-61753750D03*
%TD*%
D10*
%TO.P,D58,1,K*%
%TO.N,Net-(D58-K)*%
X217425000Y-53975000D03*
%TO.P,D58,2,A*%
%TO.N,ROW1*%
X220725000Y-53975000D03*
%TD*%
D11*
%TO.P,ALT1,1,1*%
%TO.N,Net-(D18-K)*%
X73977500Y-116363750D03*
%TO.P,ALT1,2,2*%
%TO.N,COL2*%
X67627500Y-118903750D03*
%TD*%
%TO.P,DEL1,1,1*%
%TO.N,Net-(D83-K)*%
X314483750Y-59213750D03*
%TO.P,DEL1,2,2*%
%TO.N,COL14*%
X308133750Y-61753750D03*
%TD*%
D10*
%TO.P,D46,1,K*%
%TO.N,Net-(D46-K)*%
X178945000Y-53975000D03*
%TO.P,D46,2,A*%
%TO.N,ROW1*%
X182245000Y-53975000D03*
%TD*%
%TO.P,D12,1,K*%
%TO.N,Net-(D12-K)*%
X51945000Y-130175000D03*
%TO.P,D12,2,A*%
%TO.N,ROW5*%
X55245000Y-130175000D03*
%TD*%
%TO.P,D2,1,K*%
%TO.N,Net-(D2-K)*%
X27815000Y-53975000D03*
%TO.P,D2,2,A*%
%TO.N,ROW1*%
X31115000Y-53975000D03*
%TD*%
D11*
%TO.P,C1,1,1*%
%TO.N,Net-(D23-K)*%
X104933750Y-97313750D03*
%TO.P,C1,2,2*%
%TO.N,COL3*%
X98583750Y-99853750D03*
%TD*%
D10*
%TO.P,D6,1,K*%
%TO.N,Net-(D6-K)*%
X27940000Y-130175000D03*
%TO.P,D6,2,A*%
%TO.N,ROW5*%
X31240000Y-130175000D03*
%TD*%
%TO.P,D34,1,K*%
%TO.N,Net-(D34-K)*%
X141480000Y-111125000D03*
%TO.P,D34,2,A*%
%TO.N,ROW4*%
X144780000Y-111125000D03*
%TD*%
D11*
%TO.P,I1,1,1*%
%TO.N,Net-(D47-K)*%
X185896250Y-59213750D03*
%TO.P,I1,2,2*%
%TO.N,COL8*%
X179546250Y-61753750D03*
%TD*%
%TO.P,WIN1,1,1*%
%TO.N,Net-(D12-K)*%
X50165000Y-116363750D03*
%TO.P,WIN1,2,2*%
%TO.N,COL1*%
X43815000Y-118903750D03*
%TD*%
%TO.P,MACRO1,1,1*%
%TO.N,Net-(D68-K)*%
X264477500Y-116363750D03*
%TO.P,MACRO1,2,2*%
%TO.N,COL11*%
X258127500Y-118903750D03*
%TD*%
%TO.P,PGDN1,1,1*%
%TO.N,Net-(D81-K)*%
X352583750Y-59213750D03*
%TO.P,PGDN1,2,2*%
%TO.N,COL14*%
X346233750Y-61753750D03*
%TD*%
%TO.P,n2,1,1*%
%TO.N,Net-(D14-K)*%
X62071250Y-40163750D03*
%TO.P,n2,2,2*%
%TO.N,COL2*%
X55721250Y-42703750D03*
%TD*%
%TO.P,N10,1,1*%
%TO.N,Net-(D39-K)*%
X162083750Y-97313750D03*
%TO.P,N10,2,2*%
%TO.N,COL6*%
X155733750Y-99853750D03*
%TD*%
%TO.P,LARROW1,1,1*%
%TO.N,Net-(D78-K)*%
X314483750Y-116363750D03*
%TO.P,LARROW1,2,2*%
%TO.N,COL12*%
X308133750Y-118903750D03*
%TD*%
D10*
%TO.P,D62,1,K*%
%TO.N,Net-(D62-K)*%
X240285000Y-130175000D03*
%TO.P,D62,2,A*%
%TO.N,ROW5*%
X243585000Y-130175000D03*
%TD*%
D11*
%TO.P,MINUS1,1,1*%
%TO.N,Net-(D64-K)*%
X233521250Y-40163750D03*
%TO.P,MINUS1,2,2*%
%TO.N,COL11*%
X227171250Y-42703750D03*
%TD*%
%TO.P,SLASH1,1,1*%
%TO.N,Net-(D61-K)*%
X238283750Y-97313750D03*
%TO.P,SLASH1,2,2*%
%TO.N,COL10*%
X231933750Y-99853750D03*
%TD*%
%TO.P,END1,1,1*%
%TO.N,Net-(D82-K)*%
X333533750Y-59213750D03*
%TO.P,END1,2,2*%
%TO.N,COL14*%
X327183750Y-61753750D03*
%TD*%
D10*
%TO.P,D43,1,K*%
%TO.N,Net-(D43-K)*%
X174245000Y-92075000D03*
%TO.P,D43,2,A*%
%TO.N,ROW3*%
X177545000Y-92075000D03*
%TD*%
%TO.P,D40,1,K*%
%TO.N,Net-(D40-K)*%
X188850000Y-29845000D03*
%TO.P,D40,2,A*%
%TO.N,ROW0*%
X192150000Y-29845000D03*
%TD*%
%TO.P,D76,1,K*%
%TO.N,Net-(D76-K)*%
X283465000Y-53340000D03*
%TO.P,D76,2,A*%
%TO.N,ROW1*%
X286765000Y-53340000D03*
%TD*%
D11*
%TO.P,ESC1,1,1*%
%TO.N,Net-(D1-K)*%
X23971250Y-16351250D03*
%TO.P,ESC1,2,2*%
%TO.N,COL0*%
X17621250Y-18891250D03*
%TD*%
D10*
%TO.P,D52,1,K*%
%TO.N,Net-(D52-K)*%
X197995000Y-53975000D03*
%TO.P,D52,2,A*%
%TO.N,ROW1*%
X201295000Y-53975000D03*
%TD*%
%TO.P,D3,1,K*%
%TO.N,Net-(D3-K)*%
X32260000Y-73025000D03*
%TO.P,D3,2,A*%
%TO.N,ROW2*%
X35560000Y-73025000D03*
%TD*%
D11*
%TO.P,F12,1,1*%
%TO.N,Net-(D69-K)*%
X290671250Y-16351250D03*
%TO.P,F12,2,2*%
%TO.N,COL12*%
X284321250Y-18891250D03*
%TD*%
%TO.P,n6,1,1*%
%TO.N,Net-(D36-K)*%
X138271250Y-40163750D03*
%TO.P,n6,2,2*%
%TO.N,COL6*%
X131921250Y-42703750D03*
%TD*%
D10*
%TO.P,D54,1,K*%
%TO.N,Net-(D54-K)*%
X211710000Y-92075000D03*
%TO.P,D54,2,A*%
%TO.N,ROW3*%
X215010000Y-92075000D03*
%TD*%
D11*
%TO.P,INS1,1,1*%
%TO.N,Net-(D86-K)*%
X314483750Y-40163750D03*
%TO.P,INS1,2,2*%
%TO.N,COL14*%
X308133750Y-42703750D03*
%TD*%
D10*
%TO.P,D39,1,K*%
%TO.N,Net-(D39-K)*%
X160275000Y-111125000D03*
%TO.P,D39,2,A*%
%TO.N,ROW4*%
X163575000Y-111125000D03*
%TD*%
%TO.P,D29,1,K*%
%TO.N,Net-(D29-K)*%
X123065000Y-111125000D03*
%TO.P,D29,2,A*%
%TO.N,ROW4*%
X126365000Y-111125000D03*
%TD*%
%TO.P,D23,1,K*%
%TO.N,Net-(D23-K)*%
X103760000Y-111125000D03*
%TO.P,D23,2,A*%
%TO.N,ROW4*%
X107060000Y-111125000D03*
%TD*%
D11*
%TO.P,H1,1,1*%
%TO.N,Net-(D38-K)*%
X152558750Y-78263750D03*
%TO.P,H1,2,2*%
%TO.N,COL6*%
X146208750Y-80803750D03*
%TD*%
D10*
%TO.P,D8,1,K*%
%TO.N,Net-(D8-K)*%
X46865000Y-53975000D03*
%TO.P,D8,2,A*%
%TO.N,ROW1*%
X50165000Y-53975000D03*
%TD*%
D15*
%TO.P,SW1,A,A*%
%TO.N,Net-(U1-GPIO2)*%
X347450000Y-18812500D03*
D16*
%TO.P,SW1,B,B*%
%TO.N,Net-(U1-GPIO3)*%
X347450000Y-23812500D03*
%TO.P,SW1,C,C*%
%TO.N,Net-(OLED DISPLAY1-Pin_2)*%
X347450000Y-21312500D03*
D17*
%TO.P,SW1,MP*%
%TO.N,N/C*%
X354950000Y-15712500D03*
X354950000Y-26912500D03*
D16*
%TO.P,SW1,S1,S1*%
%TO.N,Net-(U1-GPIO1)*%
X361950000Y-23812500D03*
%TO.P,SW1,S2,S2*%
%TO.N,Net-(OLED DISPLAY1-Pin_2)*%
X361950000Y-18812500D03*
%TD*%
D10*
%TO.P,D31,1,K*%
%TO.N,Net-(D31-K)*%
X123445000Y-53975000D03*
%TO.P,D31,2,A*%
%TO.N,ROW1*%
X126745000Y-53975000D03*
%TD*%
%TO.P,D63,1,K*%
%TO.N,Net-(D63-K)*%
X273940000Y-29845000D03*
%TO.P,D63,2,A*%
%TO.N,ROW0*%
X277240000Y-29845000D03*
%TD*%
%TO.P,D65,1,K*%
%TO.N,Net-(D65-K)*%
X245620000Y-73025000D03*
%TO.P,D65,2,A*%
%TO.N,ROW2*%
X248920000Y-73025000D03*
%TD*%
%TO.P,D4,1,K*%
%TO.N,Net-(D4-K)*%
X34800000Y-91440000D03*
%TO.P,D4,2,A*%
%TO.N,ROW3*%
X38100000Y-91440000D03*
%TD*%
D11*
%TO.P,Y1,1,1*%
%TO.N,Net-(D37-K)*%
X147796250Y-59213750D03*
%TO.P,Y1,2,2*%
%TO.N,COL6*%
X141446250Y-61753750D03*
%TD*%
D10*
%TO.P,D36,1,K*%
%TO.N,Net-(D36-K)*%
X141480000Y-53975000D03*
%TO.P,D36,2,A*%
%TO.N,ROW1*%
X144780000Y-53975000D03*
%TD*%
D11*
%TO.P,M1,1,1*%
%TO.N,Net-(D44-K)*%
X181133750Y-97313750D03*
%TO.P,M1,2,2*%
%TO.N,COL7*%
X174783750Y-99853750D03*
%TD*%
%TO.P,K1,1,1*%
%TO.N,Net-(D48-K)*%
X190658750Y-78263750D03*
%TO.P,K1,2,2*%
%TO.N,COL8*%
X184308750Y-80803750D03*
%TD*%
%TO.P,F1,1,1*%
%TO.N,Net-(D7-K)*%
X62071250Y-16351250D03*
%TO.P,F1,2,2*%
%TO.N,COL1*%
X55721250Y-18891250D03*
%TD*%
D10*
%TO.P,D35,1,K*%
%TO.N,Net-(D35-K)*%
X170435000Y-30480000D03*
%TO.P,D35,2,A*%
%TO.N,ROW0*%
X173735000Y-30480000D03*
%TD*%
%TO.P,D57,1,K*%
%TO.N,Net-(D57-K)*%
X255525000Y-29845000D03*
%TO.P,D57,2,A*%
%TO.N,ROW0*%
X258825000Y-29845000D03*
%TD*%
%TO.P,D21,1,K*%
%TO.N,Net-(D21-K)*%
X94870000Y-73025000D03*
%TO.P,D21,2,A*%
%TO.N,ROW2*%
X98170000Y-73025000D03*
%TD*%
D11*
%TO.P,n8,1,1*%
%TO.N,Net-(D46-K)*%
X176371250Y-40163750D03*
%TO.P,n8,2,2*%
%TO.N,COL8*%
X170021250Y-42703750D03*
%TD*%
D10*
%TO.P,D11,1,K*%
%TO.N,Net-(D11-K)*%
X66295000Y-111125000D03*
%TO.P,D11,2,A*%
%TO.N,ROW4*%
X69595000Y-111125000D03*
%TD*%
%TO.P,D42,1,K*%
%TO.N,Net-(D42-K)*%
X169800000Y-73025000D03*
%TO.P,D42,2,A*%
%TO.N,ROW2*%
X173100000Y-73025000D03*
%TD*%
D11*
%TO.P,V1,1,1*%
%TO.N,Net-(D29-K)*%
X123983750Y-97313750D03*
%TO.P,V1,2,2*%
%TO.N,COL4*%
X117633750Y-99853750D03*
%TD*%
D14*
%TO.P,D81,1,K*%
%TO.N,Net-(D81-K)*%
X359568750Y-60262500D03*
%TO.P,D81,2,A*%
%TO.N,ROW5*%
X359568750Y-63562500D03*
%TD*%
D10*
%TO.P,D24,1,K*%
%TO.N,Net-(D24-K)*%
X145035000Y-130175000D03*
%TO.P,D24,2,A*%
%TO.N,ROW5*%
X148335000Y-130175000D03*
%TD*%
%TO.P,D44,1,K*%
%TO.N,Net-(D44-K)*%
X179325000Y-111125000D03*
%TO.P,D44,2,A*%
%TO.N,ROW4*%
X182625000Y-111125000D03*
%TD*%
D11*
%TO.P,B1,1,1*%
%TO.N,Net-(D34-K)*%
X143033750Y-97313750D03*
%TO.P,B1,2,2*%
%TO.N,COL5*%
X136683750Y-99853750D03*
%TD*%
D10*
%TO.P,D15,1,K*%
%TO.N,Net-(D15-K)*%
X75820000Y-73025000D03*
%TO.P,D15,2,A*%
%TO.N,ROW2*%
X79120000Y-73025000D03*
%TD*%
%TO.P,D16,1,K*%
%TO.N,Net-(D16-K)*%
X80645000Y-92075000D03*
%TO.P,D16,2,A*%
%TO.N,ROW3*%
X83945000Y-92075000D03*
%TD*%
D11*
%TO.P,SPACE1,1,1*%
%TO.N,Net-(D24-K)*%
X145415000Y-116363750D03*
%TO.P,SPACE1,2,2*%
%TO.N,COL5*%
X139065000Y-118903750D03*
%TD*%
D10*
%TO.P,D1,1,K*%
%TO.N,Net-(D1-K)*%
X27656250Y-30480000D03*
%TO.P,D1,2,A*%
%TO.N,ROW0*%
X30956250Y-30480000D03*
%TD*%
D11*
%TO.P,HOME1,1,1*%
%TO.N,Net-(D85-K)*%
X333533750Y-40163750D03*
%TO.P,HOME1,2,2*%
%TO.N,COL14*%
X327183750Y-42703750D03*
%TD*%
%TO.P,UARROW1,1,1*%
%TO.N,Net-(D80-K)*%
X333533750Y-97313750D03*
%TO.P,UARROW1,2,2*%
%TO.N,COL13*%
X327183750Y-99853750D03*
%TD*%
%TO.P,n4,1,1*%
%TO.N,Net-(D26-K)*%
X100171250Y-40163750D03*
%TO.P,n4,2,2*%
%TO.N,COL4*%
X93821250Y-42703750D03*
%TD*%
D10*
%TO.P,D20,1,K*%
%TO.N,Net-(D20-K)*%
X85600000Y-53975000D03*
%TO.P,D20,2,A*%
%TO.N,ROW1*%
X88900000Y-53975000D03*
%TD*%
%TO.P,D18,1,K*%
%TO.N,Net-(D18-K)*%
X76200000Y-130175000D03*
%TO.P,D18,2,A*%
%TO.N,ROW5*%
X79500000Y-130175000D03*
%TD*%
%TO.P,D71,1,K*%
%TO.N,Net-(D71-K)*%
X263780000Y-73025000D03*
%TO.P,D71,2,A*%
%TO.N,ROW2*%
X267080000Y-73025000D03*
%TD*%
%TO.P,D50,1,K*%
%TO.N,Net-(D50-K)*%
X280925000Y-92075000D03*
%TO.P,D50,2,A*%
%TO.N,ROW3*%
X284225000Y-92075000D03*
%TD*%
D11*
%TO.P,F4,1,1*%
%TO.N,Net-(D25-K)*%
X119221250Y-16351250D03*
%TO.P,F4,2,2*%
%TO.N,COL4*%
X112871250Y-18891250D03*
%TD*%
D10*
%TO.P,D49,1,K*%
%TO.N,Net-(D49-K)*%
X197740000Y-111125000D03*
%TO.P,D49,2,A*%
%TO.N,ROW4*%
X201040000Y-111125000D03*
%TD*%
%TO.P,D17,1,K*%
%TO.N,Net-(D17-K)*%
X85345000Y-111125000D03*
%TO.P,D17,2,A*%
%TO.N,ROW4*%
X88645000Y-111125000D03*
%TD*%
%TO.P,D72,1,K*%
%TO.N,Net-(D72-K)*%
X353156250Y-130175000D03*
%TO.P,D72,2,A*%
%TO.N,ROW3*%
X356456250Y-130175000D03*
%TD*%
D11*
%TO.P,PERIOD1,1,1*%
%TO.N,Net-(D55-K)*%
X219233750Y-97313750D03*
%TO.P,PERIOD1,2,2*%
%TO.N,COL9*%
X212883750Y-99853750D03*
%TD*%
D10*
%TO.P,D19,1,K*%
%TO.N,Net-(D19-K)*%
X104140000Y-29845000D03*
%TO.P,D19,2,A*%
%TO.N,ROW0*%
X107440000Y-29845000D03*
%TD*%
D11*
%TO.P,G1,1,1*%
%TO.N,Net-(D33-K)*%
X133508750Y-78263750D03*
%TO.P,G1,2,2*%
%TO.N,COL5*%
X127158750Y-80803750D03*
%TD*%
D18*
%TO.P,U1,1,GPIO0*%
%TO.N,COL14*%
X360450000Y-93345000D03*
%TO.P,U1,2,GPIO1*%
%TO.N,Net-(U1-GPIO1)*%
X357910000Y-93345000D03*
D12*
%TO.P,U1,3,GND*%
%TO.N,unconnected-(U1-GND-Pad3)_1*%
X355370000Y-93345000D03*
D18*
%TO.P,U1,4,GPIO2*%
%TO.N,Net-(U1-GPIO2)*%
X352830000Y-93345000D03*
%TO.P,U1,5,GPIO3*%
%TO.N,Net-(U1-GPIO3)*%
X350290000Y-93345000D03*
%TO.P,U1,6,GPIO4*%
%TO.N,/OLED_SDA*%
X347750000Y-93345000D03*
%TO.P,U1,7,GPIO5*%
%TO.N,/OLED_SCL*%
X345210000Y-93345000D03*
D12*
%TO.P,U1,8,GND*%
%TO.N,unconnected-(U1-GND-Pad8)_1*%
X342670000Y-93345000D03*
D18*
%TO.P,U1,9,GPIO6*%
%TO.N,ROW0*%
X340130000Y-93345000D03*
%TO.P,U1,10,GPIO7*%
%TO.N,ROW1*%
X337590000Y-93345000D03*
%TO.P,U1,11,GPIO8*%
%TO.N,ROW2*%
X335050000Y-93345000D03*
%TO.P,U1,12,GPIO9*%
%TO.N,ROW3*%
X332510000Y-93345000D03*
D12*
%TO.P,U1,13,GND*%
%TO.N,unconnected-(U1-GND-Pad13)_1*%
X329970000Y-93345000D03*
D18*
%TO.P,U1,14,GPIO10*%
%TO.N,ROW4*%
X327430000Y-93345000D03*
%TO.P,U1,15,GPIO11*%
%TO.N,ROW5*%
X324890000Y-93345000D03*
%TO.P,U1,16,GPIO12*%
%TO.N,COL0*%
X322350000Y-93345000D03*
%TO.P,U1,17,GPIO13*%
%TO.N,COL1*%
X319810000Y-93345000D03*
D12*
%TO.P,U1,18,GND*%
%TO.N,unconnected-(U1-GND-Pad18)*%
X317270000Y-93345000D03*
D18*
%TO.P,U1,19,GPIO14*%
%TO.N,COL2*%
X314730000Y-93345000D03*
%TO.P,U1,20,GPIO15*%
%TO.N,COL3*%
X312190000Y-93345000D03*
%TO.P,U1,21,GPIO16*%
%TO.N,COL4*%
X312190000Y-75565000D03*
%TO.P,U1,22,GPIO17*%
%TO.N,COL5*%
X314730000Y-75565000D03*
D12*
%TO.P,U1,23,GND*%
%TO.N,unconnected-(U1-GND-Pad23)_1*%
X317270000Y-75565000D03*
D18*
%TO.P,U1,24,GPIO18*%
%TO.N,COL6*%
X319810000Y-75565000D03*
%TO.P,U1,25,GPIO19*%
%TO.N,COL7*%
X322350000Y-75565000D03*
%TO.P,U1,26,GPIO20*%
%TO.N,COL8*%
X324890000Y-75565000D03*
%TO.P,U1,27,GPIO21*%
%TO.N,COL9*%
X327430000Y-75565000D03*
D12*
%TO.P,U1,28,GND*%
%TO.N,unconnected-(U1-GND-Pad28)_1*%
X329970000Y-75565000D03*
D18*
%TO.P,U1,29,GPIO22*%
%TO.N,COL10*%
X332510000Y-75565000D03*
%TO.P,U1,30,RUN*%
%TO.N,unconnected-(U1-RUN-Pad30)_1*%
X335050000Y-75565000D03*
%TO.P,U1,31,GPIO26_ADC0*%
%TO.N,COL11*%
X337590000Y-75565000D03*
%TO.P,U1,32,GPIO27_ADC1*%
%TO.N,COL12*%
X340130000Y-75565000D03*
D12*
%TO.P,U1,33,AGND*%
%TO.N,unconnected-(U1-AGND-Pad33)*%
X342670000Y-75565000D03*
D18*
%TO.P,U1,34,GPIO28_ADC2*%
%TO.N,COL13*%
X345210000Y-75565000D03*
%TO.P,U1,35,ADC_VREF*%
%TO.N,unconnected-(U1-ADC_VREF-Pad35)*%
X347750000Y-75565000D03*
%TO.P,U1,36,3V3*%
%TO.N,unconnected-(U1-3V3-Pad36)*%
X350290000Y-75565000D03*
%TO.P,U1,37,3V3_EN*%
%TO.N,Net-(OLED DISPLAY1-Pin_1)*%
X352830000Y-75565000D03*
D12*
%TO.P,U1,38,GND*%
%TO.N,Net-(OLED DISPLAY1-Pin_2)*%
X355370000Y-75565000D03*
D18*
%TO.P,U1,39,VSYS*%
%TO.N,unconnected-(U1-VSYS-Pad39)_1*%
X357910000Y-75565000D03*
%TO.P,U1,40,VBUS*%
%TO.N,unconnected-(U1-VBUS-Pad40)*%
X360450000Y-75565000D03*
%TO.P,U1,41,SWCLK*%
%TO.N,unconnected-(U1-SWCLK-Pad41)_1*%
X312420000Y-86995000D03*
D12*
%TO.P,U1,42,GND*%
%TO.N,unconnected-(U1-GND-Pad42)_1*%
X312420000Y-84455000D03*
D18*
%TO.P,U1,43,SWDIO*%
%TO.N,unconnected-(U1-SWDIO-Pad43)_1*%
X312420000Y-81915000D03*
%TD*%
D19*
%TO.N,COL1*%
X315801944Y-84413059D03*
%TO.N,COL2*%
X80645000Y-74930000D03*
X298450000Y-75565000D03*
X314960000Y-84455000D03*
%TO.N,COL5*%
X294640000Y-113665000D03*
X300990000Y-92710000D03*
X145415000Y-113665000D03*
%TO.N,COL13*%
X334645000Y-118745000D03*
X333375000Y-100330000D03*
X324612000Y-98044000D03*
X332740000Y-118745000D03*
X310896000Y-97536000D03*
%TO.N,COL3*%
X301563058Y-86421942D03*
X300990000Y-76835000D03*
%TO.N,COL0*%
X316865000Y-83185000D03*
%TO.N,COL12*%
X326390000Y-97155000D03*
X321945000Y-97049558D03*
%TO.N,COL10*%
X327660000Y-82550000D03*
X329231000Y-81188059D03*
%TO.N,COL8*%
X311150000Y-88900000D03*
X202565000Y-95250000D03*
%TO.N,ROW0*%
X171450000Y-32385000D03*
X237490000Y-32385000D03*
X323850000Y-58420000D03*
X192405000Y-32385000D03*
X255270000Y-32385000D03*
X86995000Y-32385000D03*
X273050000Y-32385000D03*
X64135000Y-32385000D03*
X294005000Y-32385000D03*
X128905000Y-32385000D03*
X207645000Y-32385000D03*
X151765000Y-32385000D03*
X321310000Y-55880000D03*
X329565000Y-85090000D03*
X45085000Y-32385000D03*
X328295000Y-65405000D03*
X330835000Y-86360000D03*
X105410000Y-32385000D03*
%TO.N,ROW1*%
X236220000Y-56515000D03*
X140970000Y-56515000D03*
X85090000Y-56515000D03*
X339090000Y-56515000D03*
X67310000Y-56515000D03*
X104140000Y-56515000D03*
X327660000Y-90639997D03*
X281305000Y-56515000D03*
X159385000Y-56515000D03*
X123190000Y-56515000D03*
X46355000Y-56515000D03*
X329565000Y-90639997D03*
X38100000Y-56515000D03*
X217170000Y-56515000D03*
X177800000Y-56515000D03*
X198120000Y-56515000D03*
X255905000Y-56515000D03*
%TO.N,ROW2*%
X151130000Y-75565000D03*
X94615000Y-75565000D03*
X333375000Y-85725000D03*
X329565000Y-91440000D03*
X266065000Y-75565000D03*
X170180000Y-75565000D03*
X327660000Y-91440000D03*
X363220000Y-54610000D03*
X132080000Y-75565000D03*
X55245000Y-75565000D03*
X226695000Y-75565000D03*
X333375000Y-87630000D03*
X207645000Y-75565000D03*
X187960000Y-75565000D03*
X245745000Y-75565000D03*
X44450000Y-75565000D03*
X333375000Y-90014997D03*
X360680000Y-53975000D03*
X75565000Y-75565000D03*
X114300000Y-75565000D03*
X287655000Y-75565000D03*
%TO.N,ROW3*%
X175260000Y-93980000D03*
X330959442Y-88389442D03*
X139065000Y-93980000D03*
X329565000Y-99060000D03*
X323714000Y-65541000D03*
X81280000Y-93980000D03*
X329692000Y-87884000D03*
X281305000Y-93980000D03*
X48260000Y-93980000D03*
X321056000Y-104140000D03*
X231775000Y-93980000D03*
X100965000Y-93980000D03*
X212725000Y-93980000D03*
X120015000Y-93980000D03*
X155575000Y-93980000D03*
X61595000Y-93980000D03*
X194310000Y-93980000D03*
X250825000Y-93980000D03*
%TO.N,ROW4*%
X324104000Y-108204000D03*
X123825000Y-113030000D03*
X332574997Y-90014997D03*
X198755000Y-113030000D03*
X142240000Y-113030000D03*
X104775000Y-113030000D03*
X161925000Y-113030000D03*
X180340000Y-113030000D03*
X340995000Y-68580000D03*
X217170000Y-113030000D03*
X45720000Y-113030000D03*
X235585000Y-113030000D03*
X329184000Y-112776000D03*
X332740000Y-86995000D03*
X86360000Y-113030000D03*
X271780000Y-110490000D03*
X266065000Y-113030000D03*
X319971558Y-98991558D03*
X66675000Y-113030000D03*
%TO.N,ROW5*%
X332105000Y-85725000D03*
X335756250Y-132550000D03*
X302260000Y-116205000D03*
X322455558Y-98300558D03*
%TO.N,Net-(D81-K)*%
X358140000Y-59055000D03*
%TO.N,COL14*%
X335280000Y-43815000D03*
X353695000Y-71755000D03*
X332740000Y-47625000D03*
%TO.N,COL4*%
X116205000Y-76200000D03*
%TO.N,COL6*%
X159385000Y-93345000D03*
%TO.N,COL7*%
X309880000Y-88900000D03*
X183515000Y-94615000D03*
%TO.N,COL9*%
X295275000Y-114300000D03*
X316230000Y-88265000D03*
X304800000Y-96520000D03*
%TO.N,COL11*%
X313055000Y-90170000D03*
X327660000Y-83820000D03*
X272415000Y-99695000D03*
X329565000Y-81915000D03*
%TO.N,Net-(OLED DISPLAY1-Pin_2)*%
X342900000Y-20955000D03*
%TO.N,/OLED_SCL*%
X363855000Y-76835000D03*
X349665000Y-83820000D03*
X345440000Y-55880000D03*
X351155000Y-81915000D03*
X353695000Y-55880000D03*
%TO.N,/OLED_SDA*%
X348624442Y-88255558D03*
X348615000Y-72390000D03*
X347782695Y-38606311D03*
X347462000Y-64770000D03*
%TO.N,Net-(U1-GPIO1)*%
X361950000Y-57785000D03*
X358784442Y-90795558D03*
%TO.N,Net-(U1-GPIO3)*%
X364733381Y-74383490D03*
%TO.N,Net-(U1-GPIO2)*%
X344805000Y-37465000D03*
%TD*%
D20*
%TO.N,COL1*%
X312548926Y-79743000D02*
X315801944Y-82996018D01*
X295277810Y-13970000D02*
X296545000Y-15237190D01*
X60642500Y-13970000D02*
X295277810Y-13970000D01*
X50958750Y-90328750D02*
X60483750Y-99853750D01*
X296545000Y-15237190D02*
X296545000Y-18932711D01*
X55721250Y-18891250D02*
X60642500Y-13970000D01*
X46196250Y-61753750D02*
X46196250Y-76041250D01*
X304984000Y-79743000D02*
X312548926Y-79743000D01*
X298901000Y-21288711D02*
X298901000Y-73660000D01*
X55721250Y-18891250D02*
X55721250Y-23653750D01*
X36671250Y-42703750D02*
X36671250Y-52228750D01*
X36671250Y-52228750D02*
X46196250Y-61753750D01*
X44437576Y-118903750D02*
X43815000Y-118903750D01*
X55721250Y-23653750D02*
X36671250Y-42703750D01*
X296545000Y-18932711D02*
X298901000Y-21288711D01*
X60483750Y-102857576D02*
X44437576Y-118903750D01*
X60483750Y-99853750D02*
X60483750Y-102857576D01*
X298901000Y-73660000D02*
X304984000Y-79743000D01*
X315801944Y-82996018D02*
X315801944Y-84413059D01*
X46196250Y-76041250D02*
X50958750Y-80803750D01*
X50958750Y-80803750D02*
X50958750Y-90328750D01*
%TO.N,Net-(D10-K)*%
X57308750Y-78263750D02*
X57308750Y-87788750D01*
X57308750Y-87788750D02*
X61595000Y-92075000D01*
%TO.N,COL2*%
X55721250Y-42703750D02*
X57486716Y-42703750D01*
X65246250Y-76041250D02*
X65246250Y-61753750D01*
X70008750Y-80803750D02*
X73977500Y-76835000D01*
X312813116Y-80645000D02*
X314835558Y-82667442D01*
X55721250Y-52228750D02*
X55721250Y-42703750D01*
X79533750Y-99853750D02*
X79533750Y-106997500D01*
X74771250Y-25419216D02*
X74771250Y-18891250D01*
X303530000Y-80645000D02*
X311785000Y-80645000D01*
X74307424Y-18891250D02*
X74771250Y-18891250D01*
X314839058Y-82670942D02*
X314960000Y-82791884D01*
X78740000Y-76835000D02*
X80645000Y-74930000D01*
X57486716Y-42703750D02*
X74771250Y-25419216D01*
X79533750Y-99853750D02*
X70008750Y-90328750D01*
X73977500Y-76835000D02*
X78740000Y-76835000D01*
X298450000Y-75565000D02*
X303530000Y-80645000D01*
X65246250Y-61753750D02*
X55721250Y-52228750D01*
X79533750Y-106997500D02*
X67627500Y-118903750D01*
X314835558Y-82667442D02*
X314839058Y-82670942D01*
X70008750Y-80803750D02*
X65246250Y-76041250D01*
X70008750Y-90328750D02*
X70008750Y-80803750D01*
X311785000Y-80645000D02*
X312813116Y-80645000D01*
X314960000Y-82791884D02*
X314960000Y-84455000D01*
%TO.N,Net-(D18-K)*%
X73977500Y-120637576D02*
X76200000Y-122860076D01*
X73977500Y-116363750D02*
X73977500Y-120637576D01*
X76200000Y-122860076D02*
X76200000Y-130175000D01*
%TO.N,Net-(D34-K)*%
X141480000Y-111125000D02*
X143033750Y-109571250D01*
X143033750Y-109571250D02*
X143033750Y-97313750D01*
%TO.N,COL5*%
X131445000Y-27336866D02*
X131445000Y-31750000D01*
X122396250Y-76041250D02*
X127158750Y-80803750D01*
X145415000Y-113665000D02*
X144303750Y-113665000D01*
X120650000Y-34925000D02*
X112871250Y-42703750D01*
X141446250Y-18891250D02*
X139890616Y-18891250D01*
X122396250Y-61753750D02*
X122396250Y-76041250D01*
X131445000Y-31750000D02*
X128270000Y-34925000D01*
X144224375Y-113744375D02*
X139065000Y-118903750D01*
X136683750Y-99853750D02*
X127158750Y-90328750D01*
X112871250Y-52228750D02*
X122396250Y-61753750D01*
X112871250Y-42703750D02*
X112871250Y-52228750D01*
X144303750Y-113665000D02*
X144224375Y-113744375D01*
X300990000Y-107947190D02*
X300990000Y-92710000D01*
X142069077Y-113744375D02*
X136683750Y-108359048D01*
X128270000Y-34925000D02*
X120650000Y-34925000D01*
X127158750Y-90328750D02*
X127158750Y-80803750D01*
X294640000Y-113665000D02*
X295272190Y-113665000D01*
X144224375Y-113744375D02*
X142069077Y-113744375D01*
X295272190Y-113665000D02*
X300990000Y-107947190D01*
X139890616Y-18891250D02*
X131445000Y-27336866D01*
X136683750Y-108359048D02*
X136683750Y-99853750D01*
%TO.N,COL13*%
X324802500Y-98234500D02*
X324612000Y-98044000D01*
X327183750Y-118903750D02*
X327183750Y-100682060D01*
X308356000Y-97536000D02*
X279558750Y-68738750D01*
X274796250Y-42703750D02*
X274796250Y-56991250D01*
X327183750Y-100682060D02*
X327597905Y-100267905D01*
X279558750Y-61753750D02*
X279558750Y-68738750D01*
X324612000Y-98044000D02*
X325374000Y-98044000D01*
X274796250Y-56991250D02*
X279558750Y-61753750D01*
X334803750Y-118903750D02*
X334645000Y-118745000D01*
X327183750Y-99853750D02*
X332898750Y-99853750D01*
X332581250Y-118903750D02*
X327183750Y-118903750D01*
X332740000Y-118745000D02*
X332581250Y-118903750D01*
X346233750Y-118903750D02*
X334803750Y-118903750D01*
X332898750Y-99853750D02*
X333375000Y-100330000D01*
X310896000Y-97536000D02*
X308356000Y-97536000D01*
X325374000Y-98044000D02*
X326960095Y-99630095D01*
%TO.N,Net-(D76-K)*%
X281146250Y-51021250D02*
X283465000Y-53340000D01*
X281146250Y-40163750D02*
X281146250Y-51021250D01*
%TO.N,Net-(D77-K)*%
X285750000Y-73025000D02*
X285750000Y-59372500D01*
X285750000Y-59372500D02*
X285908750Y-59213750D01*
%TO.N,Net-(D23-K)*%
X104933750Y-109951250D02*
X104933750Y-97313750D01*
X103760000Y-111125000D02*
X104933750Y-109951250D01*
%TO.N,COL3*%
X295910000Y-18935521D02*
X298152000Y-21177521D01*
X74771250Y-42703750D02*
X74771250Y-42333284D01*
X93821250Y-23283284D02*
X93821250Y-18891250D01*
X89058750Y-80803750D02*
X84296250Y-76041250D01*
X74771250Y-52228750D02*
X74771250Y-42703750D01*
X295144250Y-14474250D02*
X295275000Y-14605000D01*
X98238250Y-14474250D02*
X295144250Y-14474250D01*
X84296250Y-61753750D02*
X74771250Y-52228750D01*
X298450000Y-21475521D02*
X298450000Y-74295000D01*
X301563058Y-86421942D02*
X308486116Y-93345000D01*
X98583750Y-99853750D02*
X89058750Y-90328750D01*
X308486116Y-93345000D02*
X312190000Y-93345000D01*
X84296250Y-76041250D02*
X84296250Y-61753750D01*
X89058750Y-90328750D02*
X89058750Y-80803750D01*
X295910000Y-15240000D02*
X295910000Y-18935521D01*
X74771250Y-42333284D02*
X93821250Y-23283284D01*
X93821250Y-18891250D02*
X98238250Y-14474250D01*
X298450000Y-74295000D02*
X300990000Y-76835000D01*
X295275000Y-14605000D02*
X295910000Y-15240000D01*
X298152000Y-21177521D02*
X298450000Y-21475521D01*
%TO.N,Net-(D4-K)*%
X31115000Y-78263750D02*
X31115000Y-87755000D01*
X31115000Y-87755000D02*
X34800000Y-91440000D01*
%TO.N,COL0*%
X17621250Y-56991250D02*
X22383750Y-61753750D01*
X20002500Y-118903750D02*
X29527500Y-109378750D01*
X299720000Y-20955000D02*
X299720000Y-22860000D01*
X191135000Y-13335000D02*
X294640000Y-13335000D01*
X299720000Y-22860000D02*
X299720000Y-73025000D01*
X17621250Y-18891250D02*
X17621250Y-42703750D01*
X295910000Y-13335000D02*
X297180000Y-14605000D01*
X297180000Y-18415000D02*
X299720000Y-20955000D01*
X17621250Y-42703750D02*
X17621250Y-56991250D01*
X29527500Y-99853750D02*
X24765000Y-95091250D01*
X299720000Y-73025000D02*
X305435000Y-78740000D01*
X24765000Y-95091250D02*
X24765000Y-80803750D01*
X22383750Y-61753750D02*
X22383750Y-78422500D01*
X312420000Y-78740000D02*
X316865000Y-83185000D01*
X297180000Y-14605000D02*
X297180000Y-18415000D01*
X22383750Y-78422500D02*
X24765000Y-80803750D01*
X23177500Y-13335000D02*
X81280000Y-13335000D01*
X17621250Y-18891250D02*
X23177500Y-13335000D01*
X294640000Y-13335000D02*
X295910000Y-13335000D01*
X29527500Y-109378750D02*
X29527500Y-99853750D01*
X81280000Y-13335000D02*
X191135000Y-13335000D01*
X305435000Y-78740000D02*
X312420000Y-78740000D01*
%TO.N,COL12*%
X321681500Y-105038500D02*
X321681500Y-102870000D01*
X284321250Y-24288750D02*
X275139000Y-33471000D01*
X275139000Y-33471000D02*
X255454000Y-33471000D01*
X311782250Y-114937750D02*
X321681500Y-105038500D01*
X281940000Y-115572750D02*
X281940000Y-118903750D01*
X255454000Y-33471000D02*
X246221250Y-42703750D01*
X272415000Y-84455000D02*
X272415000Y-80803750D01*
X308133750Y-118903750D02*
X308133750Y-115734250D01*
X319345558Y-98732260D02*
X319345558Y-100534058D01*
X246221250Y-42703750D02*
X246221250Y-52228750D01*
X281305000Y-114937750D02*
X281940000Y-115572750D01*
X280149000Y-113781750D02*
X280149000Y-92189000D01*
X321945000Y-97049558D02*
X321028260Y-97049558D01*
X280149000Y-92189000D02*
X272415000Y-84455000D01*
X328794000Y-95885000D02*
X328794000Y-86901000D01*
X321028260Y-97049558D02*
X319345558Y-98732260D01*
X284321250Y-18891250D02*
X284321250Y-24288750D01*
X328794000Y-95885000D02*
X327524000Y-97155000D01*
X255746250Y-66376716D02*
X270173284Y-80803750D01*
X281305000Y-114937750D02*
X280149000Y-113781750D01*
X328794000Y-86901000D02*
X340130000Y-75565000D01*
X309880000Y-114937750D02*
X311782250Y-114937750D01*
X327524000Y-97155000D02*
X326390000Y-97155000D01*
X308930250Y-114937750D02*
X309880000Y-114937750D01*
X246221250Y-52228750D02*
X255746250Y-61753750D01*
X319345558Y-100534058D02*
X321681500Y-102870000D01*
X270173284Y-80803750D02*
X272415000Y-80803750D01*
X255746250Y-61753750D02*
X255746250Y-66376716D01*
X308133750Y-115734250D02*
X308930250Y-114937750D01*
X308930250Y-114937750D02*
X281305000Y-114937750D01*
%TO.N,Net-(D71-K)*%
X262096250Y-71341250D02*
X263780000Y-73025000D01*
X262096250Y-59213750D02*
X262096250Y-71341250D01*
%TO.N,Net-(D60-K)*%
X228758750Y-90073750D02*
X230760000Y-92075000D01*
X228758750Y-78263750D02*
X228758750Y-90073750D01*
%TO.N,COL10*%
X217646250Y-61753750D02*
X217646250Y-76041250D01*
X246221250Y-18891250D02*
X250187250Y-14925250D01*
X250187250Y-14925250D02*
X291261919Y-14925250D01*
X222408750Y-95091250D02*
X227171250Y-99853750D01*
X212087250Y-38737750D02*
X208121250Y-42703750D01*
X227171250Y-114141250D02*
X231933750Y-118903750D01*
X297701000Y-79261000D02*
X307975000Y-89535000D01*
X332510000Y-77909059D02*
X332510000Y-75565000D01*
X320675000Y-89535000D02*
X327660000Y-82550000D01*
X307975000Y-89535000D02*
X320675000Y-89535000D01*
X227171250Y-99853750D02*
X227171250Y-114141250D01*
X329231000Y-81188059D02*
X332510000Y-77909059D01*
X246221250Y-18891250D02*
X246221250Y-22119216D01*
X291261919Y-14925250D02*
X297701000Y-21364331D01*
X217646250Y-76041250D02*
X222408750Y-80803750D01*
X231933750Y-99853750D02*
X227171250Y-99853750D01*
X297701000Y-21364331D02*
X297701000Y-79261000D01*
X229602716Y-38737750D02*
X212087250Y-38737750D01*
X208121250Y-42703750D02*
X208121250Y-52228750D01*
X231933750Y-118903750D02*
X234315000Y-118903750D01*
X222408750Y-80803750D02*
X222408750Y-95091250D01*
X246221250Y-22119216D02*
X229602716Y-38737750D01*
X208121250Y-52228750D02*
X217646250Y-61753750D01*
%TO.N,COL8*%
X202565000Y-95250000D02*
X198437500Y-95250000D01*
X194694702Y-95250000D02*
X184308750Y-84864048D01*
X198596250Y-27463750D02*
X190500000Y-35560000D01*
X198596250Y-18891250D02*
X198596250Y-27463750D01*
X179546250Y-61753750D02*
X179546250Y-76041250D01*
X177165000Y-35560000D02*
X170021250Y-42703750D01*
X170021250Y-42703750D02*
X170021250Y-52228750D01*
X170021250Y-52228750D02*
X179546250Y-61753750D01*
X311150000Y-88900000D02*
X314325000Y-88900000D01*
X184308750Y-84864048D02*
X184308750Y-80803750D01*
X190500000Y-35560000D02*
X177165000Y-35560000D01*
X198437500Y-95250000D02*
X194694702Y-95250000D01*
X198437500Y-95250000D02*
X193833750Y-99853750D01*
X179546250Y-76041250D02*
X184308750Y-80803750D01*
X324890000Y-78335000D02*
X324890000Y-75565000D01*
X314325000Y-88900000D02*
X324890000Y-78335000D01*
%TO.N,Net-(D49-K)*%
X200183750Y-97313750D02*
X200183750Y-108681250D01*
X200183750Y-108681250D02*
X197740000Y-111125000D01*
%TO.N,Net-(D6-K)*%
X26352500Y-128587500D02*
X26352500Y-116363750D01*
X27940000Y-130175000D02*
X26352500Y-128587500D01*
%TO.N,Net-(D1-K)*%
X23971250Y-16351250D02*
X23971250Y-26795000D01*
X23971250Y-26795000D02*
X27656250Y-30480000D01*
%TO.N,ROW0*%
X294385000Y-32385000D02*
X296925000Y-29845000D01*
X208660000Y-32385000D02*
X211200000Y-29845000D01*
X276225000Y-29845000D02*
X277240000Y-29845000D01*
X105410000Y-32385000D02*
X123825000Y-32385000D01*
X151765000Y-32385000D02*
X152000000Y-32385000D01*
X237870000Y-32385000D02*
X255270000Y-32385000D01*
X30956250Y-30480000D02*
X35560000Y-30480000D01*
X123825000Y-32385000D02*
X124840000Y-32385000D01*
X294005000Y-32385000D02*
X294385000Y-32385000D01*
X171830000Y-32385000D02*
X173735000Y-30480000D01*
X171450000Y-32385000D02*
X171830000Y-32385000D01*
X330835000Y-86360000D02*
X333145000Y-86360000D01*
X64770000Y-32385000D02*
X67310000Y-29845000D01*
X35560000Y-30480000D02*
X37465000Y-32385000D01*
X323215000Y-53975000D02*
X324230000Y-53975000D01*
X188595000Y-32385000D02*
X192405000Y-32385000D01*
X328606000Y-65716000D02*
X328295000Y-65405000D01*
X237490000Y-32385000D02*
X237870000Y-32385000D01*
X273685000Y-32385000D02*
X276225000Y-29845000D01*
X37465000Y-32385000D02*
X45085000Y-32385000D01*
X256285000Y-32385000D02*
X258825000Y-29845000D01*
X171450000Y-32385000D02*
X188595000Y-32385000D01*
X328606000Y-84131000D02*
X328606000Y-65716000D01*
X189610000Y-32385000D02*
X192150000Y-29845000D01*
X86995000Y-31495000D02*
X88645000Y-29845000D01*
X152000000Y-32385000D02*
X153905000Y-30480000D01*
X333145000Y-86360000D02*
X340130000Y-93345000D01*
X328606000Y-84131000D02*
X329565000Y-85090000D01*
X105410000Y-31875000D02*
X107440000Y-29845000D01*
X237870000Y-32385000D02*
X240410000Y-29845000D01*
X273050000Y-32385000D02*
X273685000Y-32385000D01*
X124840000Y-32385000D02*
X127380000Y-29845000D01*
X105410000Y-32385000D02*
X105410000Y-31875000D01*
X123825000Y-32385000D02*
X128905000Y-32385000D01*
X207645000Y-32385000D02*
X208660000Y-32385000D01*
X323850000Y-58420000D02*
X323850000Y-56515000D01*
X321310000Y-55880000D02*
X323215000Y-55880000D01*
X64135000Y-32385000D02*
X64770000Y-32385000D01*
X323850000Y-56515000D02*
X323215000Y-55880000D01*
X67310000Y-29845000D02*
X68960000Y-29845000D01*
X188595000Y-32385000D02*
X189610000Y-32385000D01*
X86995000Y-32385000D02*
X86995000Y-31495000D01*
X255270000Y-32385000D02*
X256285000Y-32385000D01*
X321310000Y-55880000D02*
X323215000Y-53975000D01*
%TO.N,Net-(D2-K)*%
X23971250Y-50131250D02*
X27815000Y-53975000D01*
X23971250Y-40163750D02*
X23971250Y-50131250D01*
%TO.N,ROW1*%
X85725000Y-56515000D02*
X88265000Y-53975000D01*
X48895000Y-53975000D02*
X50165000Y-53975000D01*
X198120000Y-56515000D02*
X200660000Y-53975000D01*
X177800000Y-56515000D02*
X180340000Y-53975000D01*
X236600000Y-56515000D02*
X239140000Y-53975000D01*
X283590000Y-56515000D02*
X286765000Y-53340000D01*
X217170000Y-56515000D02*
X218185000Y-56515000D01*
X341630000Y-53975000D02*
X343280000Y-53975000D01*
X105155000Y-56515000D02*
X107695000Y-53975000D01*
X104140000Y-56515000D02*
X105155000Y-56515000D01*
X31750000Y-53975000D02*
X34290000Y-56515000D01*
X327660000Y-90639997D02*
X327494997Y-90805000D01*
X339090000Y-56515000D02*
X341630000Y-53975000D01*
X125730000Y-53975000D02*
X126745000Y-53975000D01*
X46355000Y-56515000D02*
X48895000Y-53975000D01*
X159385000Y-56515000D02*
X160020000Y-56515000D01*
X307975000Y-90805000D02*
X290830000Y-73660000D01*
X236220000Y-56515000D02*
X236600000Y-56515000D01*
X327494997Y-90805000D02*
X307975000Y-90805000D01*
X31115000Y-53975000D02*
X31750000Y-53975000D01*
X69850000Y-53975000D02*
X69975000Y-53975000D01*
X34290000Y-56515000D02*
X38100000Y-56515000D01*
X88265000Y-53975000D02*
X88900000Y-53975000D01*
X255905000Y-56515000D02*
X256285000Y-56515000D01*
X180340000Y-53975000D02*
X182245000Y-53975000D01*
X290830000Y-73660000D02*
X290830000Y-57405000D01*
X334884997Y-90639997D02*
X337590000Y-93345000D01*
X256285000Y-56515000D02*
X258825000Y-53975000D01*
X162560000Y-53975000D02*
X163575000Y-53975000D01*
X218185000Y-56515000D02*
X220725000Y-53975000D01*
X160020000Y-56515000D02*
X162560000Y-53975000D01*
X290830000Y-57405000D02*
X286765000Y-53340000D01*
X85090000Y-56515000D02*
X85725000Y-56515000D01*
X143510000Y-53975000D02*
X144780000Y-53975000D01*
X67310000Y-56515000D02*
X69850000Y-53975000D01*
X281305000Y-56515000D02*
X283590000Y-56515000D01*
X123190000Y-56515000D02*
X125730000Y-53975000D01*
X200660000Y-53975000D02*
X201295000Y-53975000D01*
X140970000Y-56515000D02*
X143510000Y-53975000D01*
X329565000Y-90639997D02*
X334884997Y-90639997D01*
%TO.N,ROW2*%
X38100000Y-75565000D02*
X44450000Y-75565000D01*
X133095000Y-75565000D02*
X135635000Y-73025000D01*
X360680000Y-53975000D02*
X358837500Y-53975000D01*
X114300000Y-75565000D02*
X114680000Y-75565000D01*
X289050000Y-73025000D02*
X307465000Y-91440000D01*
X333145000Y-91440000D02*
X335050000Y-93345000D01*
X208025000Y-75565000D02*
X210565000Y-73025000D01*
X114680000Y-75565000D02*
X117220000Y-73025000D01*
X188595000Y-75565000D02*
X191135000Y-73025000D01*
X248285000Y-73025000D02*
X248920000Y-73025000D01*
X360210926Y-78105000D02*
X340360000Y-78105000D01*
X35560000Y-73025000D02*
X38100000Y-75565000D01*
X76580000Y-75565000D02*
X79120000Y-73025000D01*
X75565000Y-75565000D02*
X76580000Y-75565000D01*
X55245000Y-75565000D02*
X56260000Y-75565000D01*
X333375000Y-85090000D02*
X333375000Y-85725000D01*
X187960000Y-75565000D02*
X188595000Y-75565000D01*
X94615000Y-75565000D02*
X95630000Y-75565000D01*
X95630000Y-75565000D02*
X98170000Y-73025000D01*
X229235000Y-73025000D02*
X229615000Y-73025000D01*
X172720000Y-73025000D02*
X173100000Y-73025000D01*
X287655000Y-74420000D02*
X289050000Y-73025000D01*
X364146000Y-55536000D02*
X364146000Y-74169926D01*
X307465000Y-91440000D02*
X327660000Y-91440000D01*
X340360000Y-78105000D02*
X333375000Y-85090000D01*
X245745000Y-75565000D02*
X248285000Y-73025000D01*
X363220000Y-54610000D02*
X364146000Y-55536000D01*
X267080000Y-74550000D02*
X267080000Y-73025000D01*
X151130000Y-75565000D02*
X152145000Y-75565000D01*
X287655000Y-75565000D02*
X287655000Y-74420000D01*
X152145000Y-75565000D02*
X154685000Y-73025000D01*
X170180000Y-75565000D02*
X172720000Y-73025000D01*
X266065000Y-75565000D02*
X267080000Y-74550000D01*
X207645000Y-75565000D02*
X208025000Y-75565000D01*
X226695000Y-75565000D02*
X229235000Y-73025000D01*
X333375000Y-87630000D02*
X333375000Y-90014997D01*
X329565000Y-91440000D02*
X333145000Y-91440000D01*
X56260000Y-75565000D02*
X59435000Y-72390000D01*
X132080000Y-75565000D02*
X133095000Y-75565000D01*
X364146000Y-74169926D02*
X360210926Y-78105000D01*
%TO.N,Net-(D3-K)*%
X28733750Y-59213750D02*
X28733750Y-69498750D01*
X28733750Y-69498750D02*
X32260000Y-73025000D01*
%TO.N,ROW3*%
X196215000Y-92075000D02*
X196595000Y-92075000D01*
X302011116Y-92075000D02*
X307215558Y-97279442D01*
X231775000Y-93980000D02*
X233680000Y-92075000D01*
X214630000Y-92075000D02*
X215010000Y-92075000D01*
X314076116Y-104140000D02*
X321056000Y-104140000D01*
X329726500Y-98898500D02*
X329726500Y-96128500D01*
X233680000Y-92075000D02*
X234060000Y-92075000D01*
X120015000Y-93980000D02*
X120395000Y-93980000D01*
X175260000Y-93980000D02*
X177165000Y-92075000D01*
X102870000Y-92075000D02*
X102995000Y-92075000D01*
X281305000Y-93980000D02*
X282320000Y-93980000D01*
X81280000Y-93980000D02*
X83185000Y-92075000D01*
X356456250Y-117291250D02*
X332510000Y-93345000D01*
X155955000Y-93980000D02*
X157860000Y-92075000D01*
X177165000Y-92075000D02*
X177545000Y-92075000D01*
X329565000Y-99060000D02*
X329726500Y-98898500D01*
X321468750Y-63295750D02*
X321468750Y-63245000D01*
X40640000Y-93980000D02*
X48260000Y-93980000D01*
X282320000Y-93980000D02*
X284225000Y-92075000D01*
X330454000Y-87884000D02*
X330959442Y-88389442D01*
X252475000Y-92330000D02*
X252475000Y-92075000D01*
X356456250Y-130175000D02*
X356456250Y-117291250D01*
X139445000Y-93980000D02*
X141350000Y-92075000D01*
X250825000Y-93980000D02*
X252475000Y-92330000D01*
X329726500Y-96128500D02*
X332510000Y-93345000D01*
X329692000Y-87884000D02*
X330454000Y-87884000D01*
X300990000Y-92075000D02*
X302011116Y-92075000D01*
X100965000Y-93980000D02*
X102870000Y-92075000D01*
X83185000Y-92075000D02*
X83945000Y-92075000D01*
X155575000Y-93980000D02*
X155955000Y-93980000D01*
X194310000Y-93980000D02*
X196215000Y-92075000D01*
X284225000Y-92075000D02*
X300990000Y-92075000D01*
X62230000Y-93980000D02*
X64135000Y-92075000D01*
X323714000Y-65541000D02*
X321468750Y-63295750D01*
X120395000Y-93980000D02*
X122300000Y-92075000D01*
X139065000Y-93980000D02*
X139445000Y-93980000D01*
X61595000Y-93980000D02*
X62230000Y-93980000D01*
X64135000Y-92075000D02*
X64895000Y-92075000D01*
X212725000Y-93980000D02*
X214630000Y-92075000D01*
X307215558Y-97279442D02*
X314076116Y-104140000D01*
X38100000Y-91440000D02*
X40640000Y-93980000D01*
%TO.N,ROW4*%
X180340000Y-113030000D02*
X182245000Y-111125000D01*
X217170000Y-113030000D02*
X217550000Y-113030000D01*
X266065000Y-113030000D02*
X266700000Y-113030000D01*
X41275000Y-111125000D02*
X39018750Y-111125000D01*
X332574997Y-90014997D02*
X332574997Y-87160003D01*
X104775000Y-113030000D02*
X105155000Y-113030000D01*
X68580000Y-111125000D02*
X69595000Y-111125000D01*
X340518750Y-68103750D02*
X340518750Y-62610000D01*
X163575000Y-111380000D02*
X163575000Y-111125000D01*
X142240000Y-113030000D02*
X144145000Y-111125000D01*
X198755000Y-113030000D02*
X200660000Y-111125000D01*
X322306500Y-106406500D02*
X324104000Y-108204000D01*
X125730000Y-111125000D02*
X126365000Y-111125000D01*
X235965000Y-113030000D02*
X237870000Y-111125000D01*
X319971558Y-98991558D02*
X322648442Y-98991558D01*
X322306500Y-99333500D02*
X322306500Y-106406500D01*
X322648442Y-98991558D02*
X322306500Y-99333500D01*
X270000000Y-110490000D02*
X271780000Y-110490000D01*
X144145000Y-111125000D02*
X144780000Y-111125000D01*
X66675000Y-113030000D02*
X68580000Y-111125000D01*
X266700000Y-113030000D02*
X269240000Y-110490000D01*
X105155000Y-113030000D02*
X107060000Y-111125000D01*
X161925000Y-113030000D02*
X163575000Y-111380000D01*
X182245000Y-111125000D02*
X182625000Y-111125000D01*
X322648442Y-98991558D02*
X327430000Y-94210000D01*
X340995000Y-68580000D02*
X340518750Y-68103750D01*
X318356250Y-113951750D02*
X324104000Y-108204000D01*
X327430000Y-94210000D02*
X327430000Y-93345000D01*
X200660000Y-111125000D02*
X201040000Y-111125000D01*
X318356250Y-130175000D02*
X318356250Y-113951750D01*
X269240000Y-110490000D02*
X270000000Y-110490000D01*
X235585000Y-113030000D02*
X235965000Y-113030000D01*
X217550000Y-113030000D02*
X219455000Y-111125000D01*
X329184000Y-112776000D02*
X335755250Y-112776000D01*
X123825000Y-113030000D02*
X125730000Y-111125000D01*
X88265000Y-111125000D02*
X88645000Y-111125000D01*
X43180000Y-113030000D02*
X41275000Y-111125000D01*
X86360000Y-113030000D02*
X88265000Y-111125000D01*
X335755250Y-112776000D02*
X337406250Y-111125000D01*
X45720000Y-113030000D02*
X43180000Y-113030000D01*
X332574997Y-87160003D02*
X332740000Y-86995000D01*
%TO.N,Net-(D5-K)*%
X35877500Y-110966250D02*
X35718750Y-111125000D01*
X35877500Y-97313750D02*
X35877500Y-110966250D01*
%TO.N,ROW5*%
X78230000Y-131445000D02*
X79500000Y-130175000D01*
X147065000Y-131445000D02*
X148335000Y-130175000D01*
X78105000Y-131445000D02*
X78230000Y-131445000D01*
X32385000Y-131445000D02*
X54610000Y-131445000D01*
X260350000Y-131445000D02*
X266065000Y-131445000D01*
X243585000Y-130175000D02*
X242315000Y-131445000D01*
X220725000Y-130175000D02*
X219710000Y-130175000D01*
X78105000Y-131445000D02*
X147065000Y-131445000D01*
X236600000Y-131445000D02*
X242315000Y-131445000D01*
X31240000Y-130300000D02*
X32385000Y-131445000D01*
X292100000Y-126365000D02*
X302260000Y-116205000D01*
X218440000Y-131445000D02*
X236600000Y-131445000D01*
X266065000Y-131445000D02*
X290830000Y-131445000D01*
X147065000Y-131445000D02*
X213995000Y-131445000D01*
X31240000Y-130175000D02*
X31240000Y-130300000D01*
X219710000Y-130175000D02*
X218440000Y-131445000D01*
X339725000Y-77470000D02*
X332105000Y-85090000D01*
X242315000Y-131445000D02*
X260350000Y-131445000D01*
X363220000Y-74458116D02*
X359568750Y-70806866D01*
X360208116Y-77470000D02*
X339725000Y-77470000D01*
X332105000Y-85090000D02*
X332105000Y-85725000D01*
X337406250Y-130900000D02*
X337406250Y-130175000D01*
X322455558Y-98300558D02*
X324890000Y-95866116D01*
X290830000Y-131445000D02*
X292100000Y-130175000D01*
X267335000Y-130175000D02*
X266065000Y-131445000D01*
X54610000Y-131445000D02*
X55245000Y-130810000D01*
X213995000Y-131445000D02*
X218440000Y-131445000D01*
X359568750Y-70806866D02*
X359568750Y-63562500D01*
X363220000Y-74458116D02*
X360208116Y-77470000D01*
X335756250Y-132550000D02*
X337406250Y-130900000D01*
X55245000Y-130810000D02*
X55245000Y-130175000D01*
X54610000Y-131445000D02*
X78105000Y-131445000D01*
X324890000Y-95866116D02*
X324890000Y-93345000D01*
X292100000Y-130175000D02*
X292100000Y-126365000D01*
%TO.N,Net-(D7-K)*%
X62071250Y-16351250D02*
X62071250Y-26256250D01*
X62071250Y-26256250D02*
X65660000Y-29845000D01*
%TO.N,Net-(D8-K)*%
X43021250Y-50131250D02*
X46865000Y-53975000D01*
X43021250Y-40163750D02*
X43021250Y-50131250D01*
%TO.N,Net-(D9-K)*%
X52546250Y-68801250D02*
X56135000Y-72390000D01*
X52546250Y-59213750D02*
X52546250Y-68801250D01*
%TO.N,Net-(D11-K)*%
X66833750Y-110586250D02*
X66295000Y-111125000D01*
X66833750Y-97313750D02*
X66833750Y-110586250D01*
%TO.N,Net-(D12-K)*%
X50165000Y-128395000D02*
X51945000Y-130175000D01*
X50165000Y-116363750D02*
X50165000Y-128395000D01*
%TO.N,Net-(D13-K)*%
X81121250Y-16351250D02*
X81121250Y-25621250D01*
X81121250Y-25621250D02*
X85345000Y-29845000D01*
%TO.N,Net-(D14-K)*%
X62071250Y-40163750D02*
X62071250Y-49371250D01*
X62071250Y-49371250D02*
X66675000Y-53975000D01*
%TO.N,Net-(D15-K)*%
X75820000Y-63437500D02*
X75820000Y-73025000D01*
X71596250Y-59213750D02*
X75820000Y-63437500D01*
%TO.N,Net-(D16-K)*%
X80645000Y-82550000D02*
X80645000Y-92075000D01*
X76358750Y-78263750D02*
X80645000Y-82550000D01*
%TO.N,Net-(D17-K)*%
X85883750Y-97313750D02*
X85883750Y-110586250D01*
X85883750Y-110586250D02*
X85345000Y-111125000D01*
%TO.N,Net-(D19-K)*%
X104140000Y-29845000D02*
X100171250Y-25876250D01*
X100171250Y-25876250D02*
X100171250Y-16351250D01*
%TO.N,Net-(D20-K)*%
X81121250Y-40163750D02*
X81121250Y-49496250D01*
X81121250Y-49496250D02*
X85600000Y-53975000D01*
%TO.N,Net-(D21-K)*%
X90646250Y-68801250D02*
X94870000Y-73025000D01*
X90646250Y-59213750D02*
X90646250Y-68801250D01*
%TO.N,Net-(D22-K)*%
X95408750Y-78263750D02*
X95408750Y-87788750D01*
X95408750Y-87788750D02*
X99695000Y-92075000D01*
%TO.N,Net-(D24-K)*%
X145415000Y-129795000D02*
X145415000Y-116363750D01*
X145035000Y-130175000D02*
X145415000Y-129795000D01*
%TO.N,Net-(D25-K)*%
X119221250Y-24986250D02*
X124080000Y-29845000D01*
X119221250Y-16351250D02*
X119221250Y-24986250D01*
%TO.N,Net-(D26-K)*%
X104395000Y-44387500D02*
X100171250Y-40163750D01*
X104395000Y-53975000D02*
X104395000Y-44387500D01*
%TO.N,Net-(D27-K)*%
X113920000Y-73025000D02*
X109696250Y-68801250D01*
X109696250Y-68801250D02*
X109696250Y-59213750D01*
%TO.N,Net-(D28-K)*%
X114458750Y-87533750D02*
X114458750Y-78263750D01*
X119000000Y-92075000D02*
X114458750Y-87533750D01*
%TO.N,Net-(D29-K)*%
X123983750Y-97313750D02*
X123983750Y-110206250D01*
X123983750Y-110206250D02*
X123065000Y-111125000D01*
%TO.N,Net-(D30-K)*%
X147796250Y-27671250D02*
X150605000Y-30480000D01*
X147796250Y-16351250D02*
X147796250Y-27671250D01*
%TO.N,Net-(D31-K)*%
X119221250Y-49751250D02*
X123445000Y-53975000D01*
X119221250Y-40163750D02*
X119221250Y-49751250D01*
%TO.N,Net-(D32-K)*%
X128746250Y-59213750D02*
X128746250Y-69436250D01*
X128746250Y-69436250D02*
X132335000Y-73025000D01*
%TO.N,Net-(D33-K)*%
X138050000Y-82805000D02*
X138050000Y-92075000D01*
X133508750Y-78263750D02*
X138050000Y-82805000D01*
%TO.N,Net-(D35-K)*%
X166846250Y-16351250D02*
X166846250Y-26891250D01*
X166846250Y-26891250D02*
X170435000Y-30480000D01*
%TO.N,Net-(D36-K)*%
X138271250Y-40163750D02*
X138271250Y-50766250D01*
X138271250Y-50766250D02*
X141480000Y-53975000D01*
%TO.N,Net-(D37-K)*%
X147796250Y-59213750D02*
X147796250Y-69436250D01*
X147796250Y-69436250D02*
X151385000Y-73025000D01*
%TO.N,Net-(D38-K)*%
X152558750Y-78263750D02*
X152558750Y-90073750D01*
X152558750Y-90073750D02*
X154560000Y-92075000D01*
%TO.N,Net-(D39-K)*%
X162083750Y-97313750D02*
X162083750Y-109316250D01*
X162083750Y-109316250D02*
X160275000Y-111125000D01*
%TO.N,Net-(D40-K)*%
X185896250Y-26891250D02*
X188850000Y-29845000D01*
X185896250Y-16351250D02*
X185896250Y-26891250D01*
%TO.N,Net-(D41-K)*%
X157321250Y-40163750D02*
X157321250Y-51021250D01*
X157321250Y-51021250D02*
X160275000Y-53975000D01*
%TO.N,Net-(D42-K)*%
X166846250Y-70071250D02*
X169800000Y-73025000D01*
X166846250Y-59213750D02*
X166846250Y-70071250D01*
%TO.N,Net-(D43-K)*%
X171608750Y-78263750D02*
X171608750Y-89438750D01*
X171608750Y-89438750D02*
X174245000Y-92075000D01*
%TO.N,Net-(D44-K)*%
X179325000Y-111125000D02*
X181133750Y-109316250D01*
X181133750Y-109316250D02*
X181133750Y-97313750D01*
%TO.N,Net-(D45-K)*%
X204946250Y-16351250D02*
X204946250Y-26891250D01*
X204946250Y-26891250D02*
X207900000Y-29845000D01*
%TO.N,Net-(D46-K)*%
X176371250Y-51401250D02*
X178945000Y-53975000D01*
X176371250Y-40163750D02*
X176371250Y-51401250D01*
%TO.N,Net-(D47-K)*%
X185896250Y-59213750D02*
X185896250Y-71086250D01*
X185896250Y-71086250D02*
X187835000Y-73025000D01*
%TO.N,Net-(D48-K)*%
X190658750Y-78263750D02*
X190658750Y-89438750D01*
X190658750Y-89438750D02*
X193295000Y-92075000D01*
%TO.N,Net-(D50-K)*%
X278765000Y-78263750D02*
X278765000Y-89915000D01*
X278765000Y-89915000D02*
X280925000Y-92075000D01*
%TO.N,Net-(D51-K)*%
X233521250Y-26256250D02*
X237110000Y-29845000D01*
X233521250Y-16351250D02*
X233521250Y-26256250D01*
%TO.N,Net-(D52-K)*%
X195421250Y-44437576D02*
X197995000Y-47011326D01*
X195421250Y-40163750D02*
X195421250Y-44437576D01*
X197995000Y-47011326D02*
X197995000Y-53975000D01*
%TO.N,Net-(D53-K)*%
X204946250Y-59213750D02*
X204946250Y-70706250D01*
X204946250Y-70706250D02*
X207265000Y-73025000D01*
%TO.N,Net-(D54-K)*%
X209708750Y-90073750D02*
X211710000Y-92075000D01*
X209708750Y-78263750D02*
X209708750Y-90073750D01*
%TO.N,Net-(D55-K)*%
X219233750Y-108046250D02*
X219233750Y-97313750D01*
X216155000Y-111125000D02*
X219233750Y-108046250D01*
%TO.N,Net-(D56-K)*%
X216852500Y-127952500D02*
X216852500Y-116363750D01*
X217425000Y-128525000D02*
X217425000Y-130175000D01*
X217425000Y-128525000D02*
X216852500Y-127952500D01*
%TO.N,Net-(D57-K)*%
X252571250Y-26891250D02*
X255525000Y-29845000D01*
X252571250Y-16351250D02*
X252571250Y-26891250D01*
%TO.N,Net-(D58-K)*%
X214471250Y-51021250D02*
X217425000Y-53975000D01*
X214471250Y-40163750D02*
X214471250Y-51021250D01*
%TO.N,Net-(D59-K)*%
X223996250Y-70706250D02*
X226315000Y-73025000D01*
X223996250Y-59213750D02*
X223996250Y-70706250D01*
%TO.N,Net-(D61-K)*%
X238283750Y-107411250D02*
X238283750Y-97313750D01*
X234570000Y-111125000D02*
X238283750Y-107411250D01*
%TO.N,Net-(D62-K)*%
X240665000Y-129795000D02*
X240285000Y-130175000D01*
X240665000Y-116363750D02*
X240665000Y-129795000D01*
%TO.N,Net-(D63-K)*%
X271621250Y-16351250D02*
X271621250Y-27526250D01*
X271621250Y-27526250D02*
X273940000Y-29845000D01*
%TO.N,Net-(D64-K)*%
X233521250Y-40163750D02*
X233521250Y-51656250D01*
X233521250Y-51656250D02*
X235840000Y-53975000D01*
%TO.N,Net-(D65-K)*%
X243046250Y-70451250D02*
X245620000Y-73025000D01*
X243046250Y-59213750D02*
X243046250Y-70451250D01*
%TO.N,Net-(D66-K)*%
X249175000Y-92075000D02*
X247808750Y-90708750D01*
X247808750Y-90708750D02*
X247808750Y-78263750D01*
%TO.N,Net-(D68-K)*%
X264035000Y-130175000D02*
X264477500Y-129732500D01*
X264477500Y-129732500D02*
X264477500Y-116363750D01*
%TO.N,Net-(D69-K)*%
X290671250Y-16351250D02*
X290671250Y-26891250D01*
X290671250Y-26891250D02*
X293625000Y-29845000D01*
%TO.N,Net-(D70-K)*%
X252571250Y-51021250D02*
X255525000Y-53975000D01*
X252571250Y-40163750D02*
X252571250Y-51021250D01*
%TO.N,Net-(D72-K)*%
X353156250Y-130175000D02*
X353156250Y-116936250D01*
X353156250Y-116936250D02*
X352583750Y-116363750D01*
%TO.N,Net-(D73-K)*%
X266700000Y-110490000D02*
X269240000Y-107950000D01*
X269240000Y-107950000D02*
X269266421Y-107950000D01*
X274002500Y-103213921D02*
X274002500Y-97313750D01*
X269266421Y-107950000D02*
X274002500Y-103213921D01*
%TO.N,Net-(D74-K)*%
X288800000Y-116873750D02*
X288290000Y-116363750D01*
X288800000Y-130175000D02*
X288800000Y-116873750D01*
%TO.N,Net-(D78-K)*%
X315056250Y-130175000D02*
X315056250Y-116936250D01*
X315056250Y-116936250D02*
X314483750Y-116363750D01*
%TO.N,Net-(D79-K)*%
X333533750Y-116363750D02*
X333533750Y-129602500D01*
X333533750Y-129602500D02*
X334106250Y-130175000D01*
%TO.N,Net-(D80-K)*%
X334106250Y-97886250D02*
X334106250Y-111125000D01*
X333533750Y-97313750D02*
X334106250Y-97886250D01*
%TO.N,Net-(D81-K)*%
X359568750Y-60262500D02*
X359347500Y-60262500D01*
X359347500Y-60262500D02*
X358140000Y-59055000D01*
%TO.N,Net-(D82-K)*%
X340518750Y-59310000D02*
X333630000Y-59310000D01*
X333630000Y-59310000D02*
X333533750Y-59213750D01*
%TO.N,Net-(D83-K)*%
X315215000Y-59945000D02*
X314483750Y-59213750D01*
X321468750Y-59945000D02*
X315215000Y-59945000D01*
%TO.N,Net-(D84-K)*%
X352583750Y-51021250D02*
X352583750Y-40163750D01*
X355537500Y-53975000D02*
X352583750Y-51021250D01*
%TO.N,Net-(D85-K)*%
X339980000Y-53975000D02*
X333533750Y-47528750D01*
X333533750Y-47528750D02*
X333533750Y-40163750D01*
%TO.N,Net-(D86-K)*%
X314483750Y-47528750D02*
X314483750Y-40163750D01*
X320930000Y-53975000D02*
X314483750Y-47528750D01*
%TO.N,COL14*%
X308133750Y-61753750D02*
X308133750Y-42703750D01*
X353695000Y-64584829D02*
X350863921Y-61753750D01*
X332740000Y-47625000D02*
X331470000Y-48895000D01*
X336391250Y-42703750D02*
X335280000Y-43815000D01*
X328921000Y-48895000D02*
X328921000Y-46531171D01*
X331470000Y-48895000D02*
X328921000Y-48895000D01*
X327183750Y-50632250D02*
X328921000Y-48895000D01*
X308133750Y-61753750D02*
X327183750Y-61753750D01*
X328921000Y-46531171D02*
X327183750Y-44793921D01*
X353695000Y-71755000D02*
X353695000Y-64584829D01*
X327183750Y-61753750D02*
X327183750Y-50632250D01*
X350863921Y-61753750D02*
X346233750Y-61753750D01*
X346233750Y-42703750D02*
X336391250Y-42703750D01*
X327183750Y-44793921D02*
X327183750Y-42703750D01*
X327183750Y-61753750D02*
X346233750Y-61753750D01*
%TO.N,COL4*%
X103346250Y-76041250D02*
X108108750Y-80803750D01*
X93821250Y-52228750D02*
X103346250Y-61753750D01*
X108108750Y-80803750D02*
X112712500Y-76200000D01*
X93821250Y-42068750D02*
X93821250Y-42703750D01*
X112712500Y-76200000D02*
X116205000Y-76200000D01*
X112871250Y-23018750D02*
X93821250Y-42068750D01*
X112871250Y-18891250D02*
X112871250Y-23018750D01*
X103346250Y-61753750D02*
X103346250Y-76041250D01*
X117633750Y-99853750D02*
X108108750Y-90328750D01*
X93821250Y-42703750D02*
X93821250Y-52228750D01*
X108108750Y-90328750D02*
X108108750Y-80803750D01*
%TO.N,COL6*%
X157480000Y-93345000D02*
X155733750Y-95091250D01*
X146208750Y-85725000D02*
X155733750Y-95250000D01*
X141446250Y-61753750D02*
X141446250Y-76041250D01*
X160496250Y-18891250D02*
X160496250Y-22383750D01*
X141446250Y-76041250D02*
X146208750Y-80803750D01*
X157480000Y-93345000D02*
X159385000Y-93345000D01*
X146208750Y-80803750D02*
X146208750Y-85725000D01*
X155733750Y-95091250D02*
X155733750Y-95250000D01*
X131921250Y-42703750D02*
X131921250Y-52228750D01*
X160496250Y-22383750D02*
X144142250Y-38737750D01*
X131921250Y-52228750D02*
X141446250Y-61753750D01*
X155733750Y-95250000D02*
X155733750Y-99853750D01*
X135887250Y-38737750D02*
X131921250Y-42703750D01*
X144142250Y-38737750D02*
X135887250Y-38737750D01*
%TO.N,COL7*%
X150971250Y-42703750D02*
X150971250Y-52228750D01*
X175260000Y-94615000D02*
X174625000Y-94615000D01*
X174783750Y-95091250D02*
X175260000Y-94615000D01*
X322350000Y-78970000D02*
X322350000Y-75565000D01*
X175260000Y-94615000D02*
X183515000Y-94615000D01*
X179546250Y-18891250D02*
X179546250Y-23283284D01*
X154937250Y-38737750D02*
X150971250Y-42703750D01*
X309880000Y-88900000D02*
X310515000Y-88265000D01*
X174625000Y-94615000D02*
X165258750Y-85248750D01*
X310515000Y-88265000D02*
X313055000Y-88265000D01*
X160496250Y-76041250D02*
X165258750Y-80803750D01*
X313055000Y-88265000D02*
X322350000Y-78970000D01*
X150971250Y-52228750D02*
X160496250Y-61753750D01*
X160496250Y-61753750D02*
X160496250Y-76041250D01*
X174783750Y-99853750D02*
X174783750Y-95091250D01*
X179546250Y-23283284D02*
X164091784Y-38737750D01*
X164091784Y-38737750D02*
X154937250Y-38737750D01*
X165258750Y-85248750D02*
X165258750Y-80803750D01*
%TO.N,COL9*%
X208121250Y-99853750D02*
X208121250Y-116522500D01*
X205769116Y-38737750D02*
X193037250Y-38737750D01*
X198596250Y-61753750D02*
X198596250Y-76041250D01*
X227171250Y-18891250D02*
X225615616Y-18891250D01*
X203358750Y-80803750D02*
X203358750Y-95091250D01*
X208121250Y-116522500D02*
X210502500Y-118903750D01*
X189071250Y-42703750D02*
X189071250Y-52228750D01*
X208121250Y-99853750D02*
X212883750Y-99853750D01*
X189071250Y-52228750D02*
X198596250Y-61753750D01*
X193037250Y-38737750D02*
X189071250Y-42703750D01*
X198596250Y-76041250D02*
X203358750Y-80803750D01*
X295275000Y-114300000D02*
X304800000Y-104775000D01*
X203358750Y-95091250D02*
X208121250Y-99853750D01*
X316230000Y-88265000D02*
X327430000Y-77065000D01*
X327430000Y-77065000D02*
X327430000Y-75565000D01*
X225615616Y-18891250D02*
X205769116Y-38737750D01*
X304800000Y-104775000D02*
X304800000Y-96520000D01*
%TO.N,COL11*%
X255746250Y-100330000D02*
X256222500Y-99853750D01*
X241458750Y-80803750D02*
X241458750Y-85744216D01*
X227171250Y-52228750D02*
X236696250Y-61753750D01*
X267652500Y-99853750D02*
X256222500Y-99853750D01*
X272256250Y-99853750D02*
X272415000Y-99695000D01*
X255746250Y-116522500D02*
X255746250Y-100330000D01*
X236855000Y-33020000D02*
X227171250Y-42703750D01*
X257175000Y-33020000D02*
X236855000Y-33020000D01*
X258127500Y-118903750D02*
X255746250Y-116522500D01*
X321310000Y-90170000D02*
X327660000Y-83820000D01*
X227171250Y-42703750D02*
X227171250Y-52228750D01*
X255746250Y-100031716D02*
X255568284Y-99853750D01*
X236696250Y-76041250D02*
X241458750Y-80803750D01*
X241458750Y-85744216D02*
X255568284Y-99853750D01*
X236696250Y-61753750D02*
X236696250Y-76041250D01*
X255746250Y-100330000D02*
X255746250Y-100031716D01*
X313055000Y-90170000D02*
X321310000Y-90170000D01*
X331240000Y-81915000D02*
X337590000Y-75565000D01*
X265271250Y-18891250D02*
X265271250Y-24923750D01*
X329565000Y-81915000D02*
X331240000Y-81915000D01*
X265271250Y-24923750D02*
X257175000Y-33020000D01*
X267652500Y-99853750D02*
X272256250Y-99853750D01*
%TO.N,Net-(OLED DISPLAY1-Pin_2)*%
X356895250Y-32109750D02*
X352378125Y-27592625D01*
X342900000Y-20955000D02*
X342265000Y-20320000D01*
X355370000Y-69056250D02*
X356895250Y-67531000D01*
X342265000Y-20320000D02*
X304800000Y-20320000D01*
X359647500Y-18812500D02*
X352298750Y-26161250D01*
X352378125Y-27592625D02*
X352378125Y-26240625D01*
X355370000Y-75565000D02*
X355370000Y-69056250D01*
X361950000Y-18812500D02*
X359647500Y-18812500D01*
X356895250Y-67531000D02*
X356895250Y-32109750D01*
X352298750Y-26161250D02*
X347450000Y-21312500D01*
%TO.N,/OLED_SCL*%
X349665000Y-83820000D02*
X345210000Y-88275000D01*
X345440000Y-55880000D02*
X348615000Y-55880000D01*
X361315000Y-79375000D02*
X353695000Y-79375000D01*
X363855000Y-76835000D02*
X361315000Y-79375000D01*
X353695000Y-79375000D02*
X351790000Y-81280000D01*
X351790000Y-81280000D02*
X351155000Y-81915000D01*
X345210000Y-88275000D02*
X345210000Y-93345000D01*
X348615000Y-55880000D02*
X353695000Y-55880000D01*
%TO.N,/OLED_SDA*%
X348624442Y-92470558D02*
X347750000Y-93345000D01*
X304800000Y-22860000D02*
X320031000Y-38091000D01*
X347462000Y-71237000D02*
X348615000Y-72390000D01*
X347462000Y-64770000D02*
X347462000Y-71237000D01*
X320031000Y-38091000D02*
X347267384Y-38091000D01*
X348624442Y-88255558D02*
X348624442Y-92470558D01*
X347267384Y-38091000D02*
X347782695Y-38606311D01*
%TO.N,Net-(U1-GPIO1)*%
X357910000Y-91670000D02*
X357910000Y-93345000D01*
X361950000Y-23812500D02*
X361950000Y-57785000D01*
X358784442Y-90795558D02*
X357910000Y-91670000D01*
%TO.N,Net-(U1-GPIO3)*%
X350290000Y-81510000D02*
X350290000Y-93345000D01*
X360213736Y-78740000D02*
X353060000Y-78740000D01*
X364733381Y-74383490D02*
X364570246Y-74383490D01*
X353060000Y-78740000D02*
X350290000Y-81510000D01*
X364570246Y-74383490D02*
X360213736Y-78740000D01*
%TO.N,Net-(U1-GPIO2)*%
X347450000Y-18812500D02*
X344805000Y-21457500D01*
X344805000Y-21457500D02*
X344805000Y-37465000D01*
%TD*%
M02*
