%TF.GenerationSoftware,KiCad,Pcbnew,9.0.7*%
%TF.CreationDate,2026-06-29T14:59:53+05:30*%
%TF.ProjectId,keyboard,6b657962-6f61-4726-942e-6b696361645f,rev?*%
%TF.SameCoordinates,Original*%
%TF.FileFunction,Legend,Bot*%
%TF.FilePolarity,Positive*%
%FSLAX46Y46*%
G04 Gerber Fmt 4.6, Leading zero omitted, Abs format (unit mm)*
G04 Created by KiCad (PCBNEW 9.0.7) date 2026-06-29 14:59:53*
%MOMM*%
%LPD*%
G01*
G04 APERTURE LIST*
%ADD10C,0.100000*%
%ADD11C,1.250000*%
%ADD12C,0.250000*%
%ADD13C,0.500000*%
%ADD14C,0.150000*%
%ADD15C,0.120000*%
G04 APERTURE END LIST*
D10*
X324357419Y-81583884D02*
X323357419Y-81583884D01*
X323357419Y-81583884D02*
X323357419Y-81964836D01*
X323357419Y-81964836D02*
X323405038Y-82060074D01*
X323405038Y-82060074D02*
X323452657Y-82107693D01*
X323452657Y-82107693D02*
X323547895Y-82155312D01*
X323547895Y-82155312D02*
X323690752Y-82155312D01*
X323690752Y-82155312D02*
X323785990Y-82107693D01*
X323785990Y-82107693D02*
X323833609Y-82060074D01*
X323833609Y-82060074D02*
X323881228Y-81964836D01*
X323881228Y-81964836D02*
X323881228Y-81583884D01*
X324357419Y-82583884D02*
X323690752Y-82583884D01*
X323357419Y-82583884D02*
X323405038Y-82536265D01*
X323405038Y-82536265D02*
X323452657Y-82583884D01*
X323452657Y-82583884D02*
X323405038Y-82631503D01*
X323405038Y-82631503D02*
X323357419Y-82583884D01*
X323357419Y-82583884D02*
X323452657Y-82583884D01*
X324309800Y-83488645D02*
X324357419Y-83393407D01*
X324357419Y-83393407D02*
X324357419Y-83202931D01*
X324357419Y-83202931D02*
X324309800Y-83107693D01*
X324309800Y-83107693D02*
X324262180Y-83060074D01*
X324262180Y-83060074D02*
X324166942Y-83012455D01*
X324166942Y-83012455D02*
X323881228Y-83012455D01*
X323881228Y-83012455D02*
X323785990Y-83060074D01*
X323785990Y-83060074D02*
X323738371Y-83107693D01*
X323738371Y-83107693D02*
X323690752Y-83202931D01*
X323690752Y-83202931D02*
X323690752Y-83393407D01*
X323690752Y-83393407D02*
X323738371Y-83488645D01*
X324357419Y-84060074D02*
X324309800Y-83964836D01*
X324309800Y-83964836D02*
X324262180Y-83917217D01*
X324262180Y-83917217D02*
X324166942Y-83869598D01*
X324166942Y-83869598D02*
X323881228Y-83869598D01*
X323881228Y-83869598D02*
X323785990Y-83917217D01*
X323785990Y-83917217D02*
X323738371Y-83964836D01*
X323738371Y-83964836D02*
X323690752Y-84060074D01*
X323690752Y-84060074D02*
X323690752Y-84202931D01*
X323690752Y-84202931D02*
X323738371Y-84298169D01*
X323738371Y-84298169D02*
X323785990Y-84345788D01*
X323785990Y-84345788D02*
X323881228Y-84393407D01*
X323881228Y-84393407D02*
X324166942Y-84393407D01*
X324166942Y-84393407D02*
X324262180Y-84345788D01*
X324262180Y-84345788D02*
X324309800Y-84298169D01*
X324309800Y-84298169D02*
X324357419Y-84202931D01*
X324357419Y-84202931D02*
X324357419Y-84060074D01*
X324357419Y-85583884D02*
X323357419Y-85583884D01*
X323833609Y-85583884D02*
X323833609Y-86155312D01*
X324357419Y-86155312D02*
X323357419Y-86155312D01*
X323833609Y-86631503D02*
X323833609Y-86964836D01*
X324357419Y-87107693D02*
X324357419Y-86631503D01*
X324357419Y-86631503D02*
X323357419Y-86631503D01*
X323357419Y-86631503D02*
X323357419Y-87107693D01*
X324357419Y-88107693D02*
X323881228Y-87774360D01*
X324357419Y-87536265D02*
X323357419Y-87536265D01*
X323357419Y-87536265D02*
X323357419Y-87917217D01*
X323357419Y-87917217D02*
X323405038Y-88012455D01*
X323405038Y-88012455D02*
X323452657Y-88060074D01*
X323452657Y-88060074D02*
X323547895Y-88107693D01*
X323547895Y-88107693D02*
X323690752Y-88107693D01*
X323690752Y-88107693D02*
X323785990Y-88060074D01*
X323785990Y-88060074D02*
X323833609Y-88012455D01*
X323833609Y-88012455D02*
X323881228Y-87917217D01*
X323881228Y-87917217D02*
X323881228Y-87536265D01*
X323833609Y-88536265D02*
X323833609Y-88869598D01*
X324357419Y-89012455D02*
X324357419Y-88536265D01*
X324357419Y-88536265D02*
X323357419Y-88536265D01*
X323357419Y-88536265D02*
X323357419Y-89012455D01*
D11*
X196010965Y-121411667D02*
X196010965Y-127078334D01*
X196010965Y-127078334D02*
X196344298Y-127745001D01*
X196344298Y-127745001D02*
X196677632Y-128078334D01*
X196677632Y-128078334D02*
X197344298Y-128411667D01*
X197344298Y-128411667D02*
X198344298Y-128411667D01*
X198344298Y-128411667D02*
X199010965Y-128078334D01*
X196010965Y-125745001D02*
X196677632Y-126078334D01*
X196677632Y-126078334D02*
X198010965Y-126078334D01*
X198010965Y-126078334D02*
X198677632Y-125745001D01*
X198677632Y-125745001D02*
X199010965Y-125411667D01*
X199010965Y-125411667D02*
X199344298Y-124745001D01*
X199344298Y-124745001D02*
X199344298Y-122745001D01*
X199344298Y-122745001D02*
X199010965Y-122078334D01*
X199010965Y-122078334D02*
X198677632Y-121745001D01*
X198677632Y-121745001D02*
X198010965Y-121411667D01*
X198010965Y-121411667D02*
X196677632Y-121411667D01*
X196677632Y-121411667D02*
X196010965Y-121745001D01*
X192677632Y-126078334D02*
X192677632Y-121411667D01*
X192677632Y-119078334D02*
X193010965Y-119411667D01*
X193010965Y-119411667D02*
X192677632Y-119745001D01*
X192677632Y-119745001D02*
X192344299Y-119411667D01*
X192344299Y-119411667D02*
X192677632Y-119078334D01*
X192677632Y-119078334D02*
X192677632Y-119745001D01*
X190344299Y-121411667D02*
X187677632Y-121411667D01*
X189344299Y-119078334D02*
X189344299Y-125078334D01*
X189344299Y-125078334D02*
X189010966Y-125745001D01*
X189010966Y-125745001D02*
X188344299Y-126078334D01*
X188344299Y-126078334D02*
X187677632Y-126078334D01*
X185344299Y-126078334D02*
X185344299Y-119078334D01*
X182344299Y-126078334D02*
X182344299Y-122411667D01*
X182344299Y-122411667D02*
X182677632Y-121745001D01*
X182677632Y-121745001D02*
X183344299Y-121411667D01*
X183344299Y-121411667D02*
X184344299Y-121411667D01*
X184344299Y-121411667D02*
X185010966Y-121745001D01*
X185010966Y-121745001D02*
X185344299Y-122078334D01*
X176010966Y-121411667D02*
X176010966Y-126078334D01*
X179010966Y-121411667D02*
X179010966Y-125078334D01*
X179010966Y-125078334D02*
X178677633Y-125745001D01*
X178677633Y-125745001D02*
X178010966Y-126078334D01*
X178010966Y-126078334D02*
X177010966Y-126078334D01*
X177010966Y-126078334D02*
X176344299Y-125745001D01*
X176344299Y-125745001D02*
X176010966Y-125411667D01*
X172677633Y-126078334D02*
X172677633Y-119078334D01*
X172677633Y-121745001D02*
X172010966Y-121411667D01*
X172010966Y-121411667D02*
X170677633Y-121411667D01*
X170677633Y-121411667D02*
X170010966Y-121745001D01*
X170010966Y-121745001D02*
X169677633Y-122078334D01*
X169677633Y-122078334D02*
X169344300Y-122745001D01*
X169344300Y-122745001D02*
X169344300Y-124745001D01*
X169344300Y-124745001D02*
X169677633Y-125411667D01*
X169677633Y-125411667D02*
X170010966Y-125745001D01*
X170010966Y-125745001D02*
X170677633Y-126078334D01*
X170677633Y-126078334D02*
X172010966Y-126078334D01*
X172010966Y-126078334D02*
X172677633Y-125745001D01*
X166344300Y-125411667D02*
X166010967Y-125745001D01*
X166010967Y-125745001D02*
X166344300Y-126078334D01*
X166344300Y-126078334D02*
X166677633Y-125745001D01*
X166677633Y-125745001D02*
X166344300Y-125411667D01*
X166344300Y-125411667D02*
X166344300Y-126078334D01*
X160010967Y-125745001D02*
X160677634Y-126078334D01*
X160677634Y-126078334D02*
X162010967Y-126078334D01*
X162010967Y-126078334D02*
X162677634Y-125745001D01*
X162677634Y-125745001D02*
X163010967Y-125411667D01*
X163010967Y-125411667D02*
X163344300Y-124745001D01*
X163344300Y-124745001D02*
X163344300Y-122745001D01*
X163344300Y-122745001D02*
X163010967Y-122078334D01*
X163010967Y-122078334D02*
X162677634Y-121745001D01*
X162677634Y-121745001D02*
X162010967Y-121411667D01*
X162010967Y-121411667D02*
X160677634Y-121411667D01*
X160677634Y-121411667D02*
X160010967Y-121745001D01*
X156010967Y-126078334D02*
X156677634Y-125745001D01*
X156677634Y-125745001D02*
X157010967Y-125411667D01*
X157010967Y-125411667D02*
X157344300Y-124745001D01*
X157344300Y-124745001D02*
X157344300Y-122745001D01*
X157344300Y-122745001D02*
X157010967Y-122078334D01*
X157010967Y-122078334D02*
X156677634Y-121745001D01*
X156677634Y-121745001D02*
X156010967Y-121411667D01*
X156010967Y-121411667D02*
X155010967Y-121411667D01*
X155010967Y-121411667D02*
X154344300Y-121745001D01*
X154344300Y-121745001D02*
X154010967Y-122078334D01*
X154010967Y-122078334D02*
X153677634Y-122745001D01*
X153677634Y-122745001D02*
X153677634Y-124745001D01*
X153677634Y-124745001D02*
X154010967Y-125411667D01*
X154010967Y-125411667D02*
X154344300Y-125745001D01*
X154344300Y-125745001D02*
X155010967Y-126078334D01*
X155010967Y-126078334D02*
X156010967Y-126078334D01*
X150677634Y-126078334D02*
X150677634Y-121411667D01*
X150677634Y-122078334D02*
X150344301Y-121745001D01*
X150344301Y-121745001D02*
X149677634Y-121411667D01*
X149677634Y-121411667D02*
X148677634Y-121411667D01*
X148677634Y-121411667D02*
X148010967Y-121745001D01*
X148010967Y-121745001D02*
X147677634Y-122411667D01*
X147677634Y-122411667D02*
X147677634Y-126078334D01*
X147677634Y-122411667D02*
X147344301Y-121745001D01*
X147344301Y-121745001D02*
X146677634Y-121411667D01*
X146677634Y-121411667D02*
X145677634Y-121411667D01*
X145677634Y-121411667D02*
X145010967Y-121745001D01*
X145010967Y-121745001D02*
X144677634Y-122411667D01*
X144677634Y-122411667D02*
X144677634Y-126078334D01*
X136344301Y-118745001D02*
X142344301Y-127745001D01*
X134010968Y-126078334D02*
X134010968Y-119078334D01*
X134010968Y-119078334D02*
X131677635Y-124078334D01*
X131677635Y-124078334D02*
X129344301Y-119078334D01*
X129344301Y-119078334D02*
X129344301Y-126078334D01*
X125010968Y-126078334D02*
X125677635Y-125745001D01*
X125677635Y-125745001D02*
X126010968Y-125411667D01*
X126010968Y-125411667D02*
X126344301Y-124745001D01*
X126344301Y-124745001D02*
X126344301Y-122745001D01*
X126344301Y-122745001D02*
X126010968Y-122078334D01*
X126010968Y-122078334D02*
X125677635Y-121745001D01*
X125677635Y-121745001D02*
X125010968Y-121411667D01*
X125010968Y-121411667D02*
X124010968Y-121411667D01*
X124010968Y-121411667D02*
X123344301Y-121745001D01*
X123344301Y-121745001D02*
X123010968Y-122078334D01*
X123010968Y-122078334D02*
X122677635Y-122745001D01*
X122677635Y-122745001D02*
X122677635Y-124745001D01*
X122677635Y-124745001D02*
X123010968Y-125411667D01*
X123010968Y-125411667D02*
X123344301Y-125745001D01*
X123344301Y-125745001D02*
X124010968Y-126078334D01*
X124010968Y-126078334D02*
X125010968Y-126078334D01*
X119677635Y-121411667D02*
X119677635Y-126078334D01*
X119677635Y-122078334D02*
X119344302Y-121745001D01*
X119344302Y-121745001D02*
X118677635Y-121411667D01*
X118677635Y-121411667D02*
X117677635Y-121411667D01*
X117677635Y-121411667D02*
X117010968Y-121745001D01*
X117010968Y-121745001D02*
X116677635Y-122411667D01*
X116677635Y-122411667D02*
X116677635Y-126078334D01*
X110344302Y-126078334D02*
X110344302Y-122411667D01*
X110344302Y-122411667D02*
X110677635Y-121745001D01*
X110677635Y-121745001D02*
X111344302Y-121411667D01*
X111344302Y-121411667D02*
X112677635Y-121411667D01*
X112677635Y-121411667D02*
X113344302Y-121745001D01*
X110344302Y-125745001D02*
X111010969Y-126078334D01*
X111010969Y-126078334D02*
X112677635Y-126078334D01*
X112677635Y-126078334D02*
X113344302Y-125745001D01*
X113344302Y-125745001D02*
X113677635Y-125078334D01*
X113677635Y-125078334D02*
X113677635Y-124411667D01*
X113677635Y-124411667D02*
X113344302Y-123745001D01*
X113344302Y-123745001D02*
X112677635Y-123411667D01*
X112677635Y-123411667D02*
X111010969Y-123411667D01*
X111010969Y-123411667D02*
X110344302Y-123078334D01*
X107010969Y-123411667D02*
X101677636Y-123411667D01*
X99010969Y-121411667D02*
X95344302Y-121411667D01*
X95344302Y-121411667D02*
X99010969Y-126078334D01*
X99010969Y-126078334D02*
X95344302Y-126078334D01*
X93344302Y-121411667D02*
X89677635Y-121411667D01*
X89677635Y-121411667D02*
X93344302Y-126078334D01*
X93344302Y-126078334D02*
X89677635Y-126078334D01*
X84010968Y-126078334D02*
X84010968Y-122411667D01*
X84010968Y-122411667D02*
X84344301Y-121745001D01*
X84344301Y-121745001D02*
X85010968Y-121411667D01*
X85010968Y-121411667D02*
X86344301Y-121411667D01*
X86344301Y-121411667D02*
X87010968Y-121745001D01*
X84010968Y-125745001D02*
X84677635Y-126078334D01*
X84677635Y-126078334D02*
X86344301Y-126078334D01*
X86344301Y-126078334D02*
X87010968Y-125745001D01*
X87010968Y-125745001D02*
X87344301Y-125078334D01*
X87344301Y-125078334D02*
X87344301Y-124411667D01*
X87344301Y-124411667D02*
X87010968Y-123745001D01*
X87010968Y-123745001D02*
X86344301Y-123411667D01*
X86344301Y-123411667D02*
X84677635Y-123411667D01*
X84677635Y-123411667D02*
X84010968Y-123078334D01*
D12*
X44264098Y-20840809D02*
X44121241Y-20888428D01*
X44121241Y-20888428D02*
X44073622Y-20936047D01*
X44073622Y-20936047D02*
X44026003Y-21031285D01*
X44026003Y-21031285D02*
X44026003Y-21174142D01*
X44026003Y-21174142D02*
X44073622Y-21269380D01*
X44073622Y-21269380D02*
X44121241Y-21317000D01*
X44121241Y-21317000D02*
X44216479Y-21364619D01*
X44216479Y-21364619D02*
X44597431Y-21364619D01*
X44597431Y-21364619D02*
X44597431Y-20364619D01*
X44597431Y-20364619D02*
X44264098Y-20364619D01*
X44264098Y-20364619D02*
X44168860Y-20412238D01*
X44168860Y-20412238D02*
X44121241Y-20459857D01*
X44121241Y-20459857D02*
X44073622Y-20555095D01*
X44073622Y-20555095D02*
X44073622Y-20650333D01*
X44073622Y-20650333D02*
X44121241Y-20745571D01*
X44121241Y-20745571D02*
X44168860Y-20793190D01*
X44168860Y-20793190D02*
X44264098Y-20840809D01*
X44264098Y-20840809D02*
X44597431Y-20840809D01*
X43692669Y-20697952D02*
X43454574Y-21364619D01*
X43216479Y-20697952D02*
X43454574Y-21364619D01*
X43454574Y-21364619D02*
X43549812Y-21602714D01*
X43549812Y-21602714D02*
X43597431Y-21650333D01*
X43597431Y-21650333D02*
X43692669Y-21697952D01*
X42835526Y-21269380D02*
X42787907Y-21317000D01*
X42787907Y-21317000D02*
X42835526Y-21364619D01*
X42835526Y-21364619D02*
X42883145Y-21317000D01*
X42883145Y-21317000D02*
X42835526Y-21269380D01*
X42835526Y-21269380D02*
X42835526Y-21364619D01*
X42835526Y-20745571D02*
X42787907Y-20793190D01*
X42787907Y-20793190D02*
X42835526Y-20840809D01*
X42835526Y-20840809D02*
X42883145Y-20793190D01*
X42883145Y-20793190D02*
X42835526Y-20745571D01*
X42835526Y-20745571D02*
X42835526Y-20840809D01*
X41597431Y-21364619D02*
X41597431Y-20364619D01*
X41597431Y-20364619D02*
X41264098Y-21078904D01*
X41264098Y-21078904D02*
X40930765Y-20364619D01*
X40930765Y-20364619D02*
X40930765Y-21364619D01*
X40311717Y-21364619D02*
X40406955Y-21317000D01*
X40406955Y-21317000D02*
X40454574Y-21269380D01*
X40454574Y-21269380D02*
X40502193Y-21174142D01*
X40502193Y-21174142D02*
X40502193Y-20888428D01*
X40502193Y-20888428D02*
X40454574Y-20793190D01*
X40454574Y-20793190D02*
X40406955Y-20745571D01*
X40406955Y-20745571D02*
X40311717Y-20697952D01*
X40311717Y-20697952D02*
X40168860Y-20697952D01*
X40168860Y-20697952D02*
X40073622Y-20745571D01*
X40073622Y-20745571D02*
X40026003Y-20793190D01*
X40026003Y-20793190D02*
X39978384Y-20888428D01*
X39978384Y-20888428D02*
X39978384Y-21174142D01*
X39978384Y-21174142D02*
X40026003Y-21269380D01*
X40026003Y-21269380D02*
X40073622Y-21317000D01*
X40073622Y-21317000D02*
X40168860Y-21364619D01*
X40168860Y-21364619D02*
X40311717Y-21364619D01*
X39549812Y-20697952D02*
X39549812Y-21364619D01*
X39549812Y-20793190D02*
X39502193Y-20745571D01*
X39502193Y-20745571D02*
X39406955Y-20697952D01*
X39406955Y-20697952D02*
X39264098Y-20697952D01*
X39264098Y-20697952D02*
X39168860Y-20745571D01*
X39168860Y-20745571D02*
X39121241Y-20840809D01*
X39121241Y-20840809D02*
X39121241Y-21364619D01*
X38216479Y-21364619D02*
X38216479Y-20840809D01*
X38216479Y-20840809D02*
X38264098Y-20745571D01*
X38264098Y-20745571D02*
X38359336Y-20697952D01*
X38359336Y-20697952D02*
X38549812Y-20697952D01*
X38549812Y-20697952D02*
X38645050Y-20745571D01*
X38216479Y-21317000D02*
X38311717Y-21364619D01*
X38311717Y-21364619D02*
X38549812Y-21364619D01*
X38549812Y-21364619D02*
X38645050Y-21317000D01*
X38645050Y-21317000D02*
X38692669Y-21221761D01*
X38692669Y-21221761D02*
X38692669Y-21126523D01*
X38692669Y-21126523D02*
X38645050Y-21031285D01*
X38645050Y-21031285D02*
X38549812Y-20983666D01*
X38549812Y-20983666D02*
X38311717Y-20983666D01*
X38311717Y-20983666D02*
X38216479Y-20936047D01*
X37835526Y-20697952D02*
X37311717Y-20697952D01*
X37311717Y-20697952D02*
X37835526Y-21364619D01*
X37835526Y-21364619D02*
X37311717Y-21364619D01*
X37026002Y-20697952D02*
X36502193Y-20697952D01*
X36502193Y-20697952D02*
X37026002Y-21364619D01*
X37026002Y-21364619D02*
X36502193Y-21364619D01*
X35692669Y-21364619D02*
X35692669Y-20840809D01*
X35692669Y-20840809D02*
X35740288Y-20745571D01*
X35740288Y-20745571D02*
X35835526Y-20697952D01*
X35835526Y-20697952D02*
X36026002Y-20697952D01*
X36026002Y-20697952D02*
X36121240Y-20745571D01*
X35692669Y-21317000D02*
X35787907Y-21364619D01*
X35787907Y-21364619D02*
X36026002Y-21364619D01*
X36026002Y-21364619D02*
X36121240Y-21317000D01*
X36121240Y-21317000D02*
X36168859Y-21221761D01*
X36168859Y-21221761D02*
X36168859Y-21126523D01*
X36168859Y-21126523D02*
X36121240Y-21031285D01*
X36121240Y-21031285D02*
X36026002Y-20983666D01*
X36026002Y-20983666D02*
X35787907Y-20983666D01*
X35787907Y-20983666D02*
X35692669Y-20936047D01*
X34454573Y-21269380D02*
X34406954Y-21317000D01*
X34406954Y-21317000D02*
X34454573Y-21364619D01*
X34454573Y-21364619D02*
X34502192Y-21317000D01*
X34502192Y-21317000D02*
X34454573Y-21269380D01*
X34454573Y-21269380D02*
X34454573Y-21364619D01*
X34454573Y-20745571D02*
X34406954Y-20793190D01*
X34406954Y-20793190D02*
X34454573Y-20840809D01*
X34454573Y-20840809D02*
X34502192Y-20793190D01*
X34502192Y-20793190D02*
X34454573Y-20745571D01*
X34454573Y-20745571D02*
X34454573Y-20840809D01*
X33978383Y-21364619D02*
X33978383Y-20364619D01*
X33978383Y-20745571D02*
X33883145Y-20697952D01*
X33883145Y-20697952D02*
X33692669Y-20697952D01*
X33692669Y-20697952D02*
X33597431Y-20745571D01*
X33597431Y-20745571D02*
X33549812Y-20793190D01*
X33549812Y-20793190D02*
X33502193Y-20888428D01*
X33502193Y-20888428D02*
X33502193Y-21174142D01*
X33502193Y-21174142D02*
X33549812Y-21269380D01*
X33549812Y-21269380D02*
X33597431Y-21317000D01*
X33597431Y-21317000D02*
X33692669Y-21364619D01*
X33692669Y-21364619D02*
X33883145Y-21364619D01*
X33883145Y-21364619D02*
X33978383Y-21317000D01*
D13*
X50194862Y-18729238D02*
X50194862Y-16729238D01*
X49052005Y-18729238D02*
X49909148Y-17586380D01*
X49052005Y-16729238D02*
X50194862Y-17872095D01*
X47432957Y-18634000D02*
X47623433Y-18729238D01*
X47623433Y-18729238D02*
X48004386Y-18729238D01*
X48004386Y-18729238D02*
X48194862Y-18634000D01*
X48194862Y-18634000D02*
X48290100Y-18443523D01*
X48290100Y-18443523D02*
X48290100Y-17681619D01*
X48290100Y-17681619D02*
X48194862Y-17491142D01*
X48194862Y-17491142D02*
X48004386Y-17395904D01*
X48004386Y-17395904D02*
X47623433Y-17395904D01*
X47623433Y-17395904D02*
X47432957Y-17491142D01*
X47432957Y-17491142D02*
X47337719Y-17681619D01*
X47337719Y-17681619D02*
X47337719Y-17872095D01*
X47337719Y-17872095D02*
X48290100Y-18062571D01*
X46671052Y-17395904D02*
X46194862Y-18729238D01*
X45718671Y-17395904D02*
X46194862Y-18729238D01*
X46194862Y-18729238D02*
X46385338Y-19205428D01*
X46385338Y-19205428D02*
X46480576Y-19300666D01*
X46480576Y-19300666D02*
X46671052Y-19395904D01*
X44956766Y-18729238D02*
X44956766Y-16729238D01*
X44956766Y-17491142D02*
X44766290Y-17395904D01*
X44766290Y-17395904D02*
X44385337Y-17395904D01*
X44385337Y-17395904D02*
X44194861Y-17491142D01*
X44194861Y-17491142D02*
X44099623Y-17586380D01*
X44099623Y-17586380D02*
X44004385Y-17776857D01*
X44004385Y-17776857D02*
X44004385Y-18348285D01*
X44004385Y-18348285D02*
X44099623Y-18538761D01*
X44099623Y-18538761D02*
X44194861Y-18634000D01*
X44194861Y-18634000D02*
X44385337Y-18729238D01*
X44385337Y-18729238D02*
X44766290Y-18729238D01*
X44766290Y-18729238D02*
X44956766Y-18634000D01*
X42861528Y-18729238D02*
X43052004Y-18634000D01*
X43052004Y-18634000D02*
X43147242Y-18538761D01*
X43147242Y-18538761D02*
X43242480Y-18348285D01*
X43242480Y-18348285D02*
X43242480Y-17776857D01*
X43242480Y-17776857D02*
X43147242Y-17586380D01*
X43147242Y-17586380D02*
X43052004Y-17491142D01*
X43052004Y-17491142D02*
X42861528Y-17395904D01*
X42861528Y-17395904D02*
X42575813Y-17395904D01*
X42575813Y-17395904D02*
X42385337Y-17491142D01*
X42385337Y-17491142D02*
X42290099Y-17586380D01*
X42290099Y-17586380D02*
X42194861Y-17776857D01*
X42194861Y-17776857D02*
X42194861Y-18348285D01*
X42194861Y-18348285D02*
X42290099Y-18538761D01*
X42290099Y-18538761D02*
X42385337Y-18634000D01*
X42385337Y-18634000D02*
X42575813Y-18729238D01*
X42575813Y-18729238D02*
X42861528Y-18729238D01*
X41052004Y-18729238D02*
X41242480Y-18634000D01*
X41242480Y-18634000D02*
X41337718Y-18538761D01*
X41337718Y-18538761D02*
X41432956Y-18348285D01*
X41432956Y-18348285D02*
X41432956Y-17776857D01*
X41432956Y-17776857D02*
X41337718Y-17586380D01*
X41337718Y-17586380D02*
X41242480Y-17491142D01*
X41242480Y-17491142D02*
X41052004Y-17395904D01*
X41052004Y-17395904D02*
X40766289Y-17395904D01*
X40766289Y-17395904D02*
X40575813Y-17491142D01*
X40575813Y-17491142D02*
X40480575Y-17586380D01*
X40480575Y-17586380D02*
X40385337Y-17776857D01*
X40385337Y-17776857D02*
X40385337Y-18348285D01*
X40385337Y-18348285D02*
X40480575Y-18538761D01*
X40480575Y-18538761D02*
X40575813Y-18634000D01*
X40575813Y-18634000D02*
X40766289Y-18729238D01*
X40766289Y-18729238D02*
X41052004Y-18729238D01*
X39718670Y-17395904D02*
X39337718Y-18729238D01*
X39337718Y-18729238D02*
X38956765Y-17776857D01*
X38956765Y-17776857D02*
X38575813Y-18729238D01*
X38575813Y-18729238D02*
X38194861Y-17395904D01*
X37623432Y-17395904D02*
X37242480Y-18729238D01*
X37242480Y-18729238D02*
X36861527Y-17776857D01*
X36861527Y-17776857D02*
X36480575Y-18729238D01*
X36480575Y-18729238D02*
X36099623Y-17395904D01*
X34194861Y-18729238D02*
X34861528Y-17776857D01*
X35337718Y-18729238D02*
X35337718Y-16729238D01*
X35337718Y-16729238D02*
X34575813Y-16729238D01*
X34575813Y-16729238D02*
X34385337Y-16824476D01*
X34385337Y-16824476D02*
X34290099Y-16919714D01*
X34290099Y-16919714D02*
X34194861Y-17110190D01*
X34194861Y-17110190D02*
X34194861Y-17395904D01*
X34194861Y-17395904D02*
X34290099Y-17586380D01*
X34290099Y-17586380D02*
X34385337Y-17681619D01*
X34385337Y-17681619D02*
X34575813Y-17776857D01*
X34575813Y-17776857D02*
X35337718Y-17776857D01*
X32480575Y-18729238D02*
X32480575Y-16729238D01*
X32480575Y-18634000D02*
X32671051Y-18729238D01*
X32671051Y-18729238D02*
X33052004Y-18729238D01*
X33052004Y-18729238D02*
X33242480Y-18634000D01*
X33242480Y-18634000D02*
X33337718Y-18538761D01*
X33337718Y-18538761D02*
X33432956Y-18348285D01*
X33432956Y-18348285D02*
X33432956Y-17776857D01*
X33432956Y-17776857D02*
X33337718Y-17586380D01*
X33337718Y-17586380D02*
X33242480Y-17491142D01*
X33242480Y-17491142D02*
X33052004Y-17395904D01*
X33052004Y-17395904D02*
X32671051Y-17395904D01*
X32671051Y-17395904D02*
X32480575Y-17491142D01*
X30671051Y-18729238D02*
X30671051Y-16729238D01*
X30671051Y-18634000D02*
X30861527Y-18729238D01*
X30861527Y-18729238D02*
X31242480Y-18729238D01*
X31242480Y-18729238D02*
X31432956Y-18634000D01*
X31432956Y-18634000D02*
X31528194Y-18538761D01*
X31528194Y-18538761D02*
X31623432Y-18348285D01*
X31623432Y-18348285D02*
X31623432Y-17776857D01*
X31623432Y-17776857D02*
X31528194Y-17586380D01*
X31528194Y-17586380D02*
X31432956Y-17491142D01*
X31432956Y-17491142D02*
X31242480Y-17395904D01*
X31242480Y-17395904D02*
X30861527Y-17395904D01*
X30861527Y-17395904D02*
X30671051Y-17491142D01*
D14*
X335774819Y-83693095D02*
X336584342Y-83693095D01*
X336584342Y-83693095D02*
X336679580Y-83740714D01*
X336679580Y-83740714D02*
X336727200Y-83788333D01*
X336727200Y-83788333D02*
X336774819Y-83883571D01*
X336774819Y-83883571D02*
X336774819Y-84074047D01*
X336774819Y-84074047D02*
X336727200Y-84169285D01*
X336727200Y-84169285D02*
X336679580Y-84216904D01*
X336679580Y-84216904D02*
X336584342Y-84264523D01*
X336584342Y-84264523D02*
X335774819Y-84264523D01*
X336774819Y-85264523D02*
X336774819Y-84693095D01*
X336774819Y-84978809D02*
X335774819Y-84978809D01*
X335774819Y-84978809D02*
X335917676Y-84883571D01*
X335917676Y-84883571D02*
X336012914Y-84788333D01*
X336012914Y-84788333D02*
X336060533Y-84693095D01*
X347871494Y-96568372D02*
X347898431Y-96487560D01*
X347898431Y-96487560D02*
X347979243Y-96406748D01*
X347979243Y-96406748D02*
X348086993Y-96352873D01*
X348086993Y-96352873D02*
X348194742Y-96352873D01*
X348194742Y-96352873D02*
X348275555Y-96379810D01*
X348275555Y-96379810D02*
X348410242Y-96460623D01*
X348410242Y-96460623D02*
X348491054Y-96541435D01*
X348491054Y-96541435D02*
X348571866Y-96676122D01*
X348571866Y-96676122D02*
X348598803Y-96756934D01*
X348598803Y-96756934D02*
X348598803Y-96864684D01*
X348598803Y-96864684D02*
X348544929Y-96972433D01*
X348544929Y-96972433D02*
X348491054Y-97026308D01*
X348491054Y-97026308D02*
X348383304Y-97080183D01*
X348383304Y-97080183D02*
X348329429Y-97080183D01*
X348329429Y-97080183D02*
X348140868Y-96891621D01*
X348140868Y-96891621D02*
X348248617Y-96783871D01*
X348140868Y-97376494D02*
X347575182Y-96810809D01*
X347575182Y-96810809D02*
X347359683Y-97026308D01*
X347359683Y-97026308D02*
X347332746Y-97107120D01*
X347332746Y-97107120D02*
X347332746Y-97160995D01*
X347332746Y-97160995D02*
X347359683Y-97241807D01*
X347359683Y-97241807D02*
X347440495Y-97322619D01*
X347440495Y-97322619D02*
X347521307Y-97349557D01*
X347521307Y-97349557D02*
X347575182Y-97349557D01*
X347575182Y-97349557D02*
X347655994Y-97322619D01*
X347655994Y-97322619D02*
X347871494Y-97107120D01*
X346955622Y-97807493D02*
X347332746Y-98184616D01*
X346874810Y-97457306D02*
X347413558Y-97726680D01*
X347413558Y-97726680D02*
X347063372Y-98076867D01*
X343761240Y-70498873D02*
X343491866Y-70768247D01*
X343976739Y-70606623D02*
X343222492Y-70229499D01*
X343222492Y-70229499D02*
X343599615Y-70983746D01*
X342575994Y-70929871D02*
X342602932Y-70849059D01*
X342602932Y-70849059D02*
X342683744Y-70768247D01*
X342683744Y-70768247D02*
X342791494Y-70714372D01*
X342791494Y-70714372D02*
X342899243Y-70714372D01*
X342899243Y-70714372D02*
X342980055Y-70741310D01*
X342980055Y-70741310D02*
X343114742Y-70822122D01*
X343114742Y-70822122D02*
X343195555Y-70902934D01*
X343195555Y-70902934D02*
X343276367Y-71037621D01*
X343276367Y-71037621D02*
X343303304Y-71118433D01*
X343303304Y-71118433D02*
X343303304Y-71226183D01*
X343303304Y-71226183D02*
X343249429Y-71333932D01*
X343249429Y-71333932D02*
X343195555Y-71387807D01*
X343195555Y-71387807D02*
X343087805Y-71441682D01*
X343087805Y-71441682D02*
X343033930Y-71441682D01*
X343033930Y-71441682D02*
X342845368Y-71253120D01*
X342845368Y-71253120D02*
X342953118Y-71145371D01*
X342845368Y-71737993D02*
X342279683Y-71172308D01*
X342279683Y-71172308D02*
X342522120Y-72061242D01*
X342522120Y-72061242D02*
X341956434Y-71495557D01*
X342252746Y-72330616D02*
X341687060Y-71764931D01*
X341687060Y-71764931D02*
X341552373Y-71899618D01*
X341552373Y-71899618D02*
X341498498Y-72007367D01*
X341498498Y-72007367D02*
X341498498Y-72115117D01*
X341498498Y-72115117D02*
X341525436Y-72195929D01*
X341525436Y-72195929D02*
X341606248Y-72330616D01*
X341606248Y-72330616D02*
X341687060Y-72411428D01*
X341687060Y-72411428D02*
X341821747Y-72492241D01*
X341821747Y-72492241D02*
X341902560Y-72519178D01*
X341902560Y-72519178D02*
X342010309Y-72519178D01*
X342010309Y-72519178D02*
X342118059Y-72465303D01*
X342118059Y-72465303D02*
X342252746Y-72330616D01*
X350411494Y-96568372D02*
X350438431Y-96487560D01*
X350438431Y-96487560D02*
X350519243Y-96406748D01*
X350519243Y-96406748D02*
X350626993Y-96352873D01*
X350626993Y-96352873D02*
X350734742Y-96352873D01*
X350734742Y-96352873D02*
X350815555Y-96379810D01*
X350815555Y-96379810D02*
X350950242Y-96460623D01*
X350950242Y-96460623D02*
X351031054Y-96541435D01*
X351031054Y-96541435D02*
X351111866Y-96676122D01*
X351111866Y-96676122D02*
X351138803Y-96756934D01*
X351138803Y-96756934D02*
X351138803Y-96864684D01*
X351138803Y-96864684D02*
X351084929Y-96972433D01*
X351084929Y-96972433D02*
X351031054Y-97026308D01*
X351031054Y-97026308D02*
X350923304Y-97080183D01*
X350923304Y-97080183D02*
X350869429Y-97080183D01*
X350869429Y-97080183D02*
X350680868Y-96891621D01*
X350680868Y-96891621D02*
X350788617Y-96783871D01*
X350680868Y-97376494D02*
X350115182Y-96810809D01*
X350115182Y-96810809D02*
X349899683Y-97026308D01*
X349899683Y-97026308D02*
X349872746Y-97107120D01*
X349872746Y-97107120D02*
X349872746Y-97160995D01*
X349872746Y-97160995D02*
X349899683Y-97241807D01*
X349899683Y-97241807D02*
X349980495Y-97322619D01*
X349980495Y-97322619D02*
X350061307Y-97349557D01*
X350061307Y-97349557D02*
X350115182Y-97349557D01*
X350115182Y-97349557D02*
X350195994Y-97322619D01*
X350195994Y-97322619D02*
X350411494Y-97107120D01*
X349603372Y-97322619D02*
X349253185Y-97672806D01*
X349253185Y-97672806D02*
X349657246Y-97699743D01*
X349657246Y-97699743D02*
X349576434Y-97780555D01*
X349576434Y-97780555D02*
X349549497Y-97861367D01*
X349549497Y-97861367D02*
X349549497Y-97915242D01*
X349549497Y-97915242D02*
X349576434Y-97996054D01*
X349576434Y-97996054D02*
X349711121Y-98130741D01*
X349711121Y-98130741D02*
X349791933Y-98157679D01*
X349791933Y-98157679D02*
X349845808Y-98157679D01*
X349845808Y-98157679D02*
X349926620Y-98130741D01*
X349926620Y-98130741D02*
X350088245Y-97969117D01*
X350088245Y-97969117D02*
X350115182Y-97888305D01*
X350115182Y-97888305D02*
X350115182Y-97834430D01*
X330118431Y-96541435D02*
X330145368Y-96460623D01*
X330145368Y-96460623D02*
X330226180Y-96379811D01*
X330226180Y-96379811D02*
X330333930Y-96325936D01*
X330333930Y-96325936D02*
X330441680Y-96325936D01*
X330441680Y-96325936D02*
X330522492Y-96352873D01*
X330522492Y-96352873D02*
X330657179Y-96433685D01*
X330657179Y-96433685D02*
X330737991Y-96514498D01*
X330737991Y-96514498D02*
X330818803Y-96649185D01*
X330818803Y-96649185D02*
X330845741Y-96729997D01*
X330845741Y-96729997D02*
X330845741Y-96837746D01*
X330845741Y-96837746D02*
X330791866Y-96945496D01*
X330791866Y-96945496D02*
X330737991Y-96999371D01*
X330737991Y-96999371D02*
X330630241Y-97053246D01*
X330630241Y-97053246D02*
X330576367Y-97053246D01*
X330576367Y-97053246D02*
X330387805Y-96864684D01*
X330387805Y-96864684D02*
X330495554Y-96756934D01*
X330387805Y-97349557D02*
X329822119Y-96783872D01*
X329822119Y-96783872D02*
X330064556Y-97672806D01*
X330064556Y-97672806D02*
X329498871Y-97107120D01*
X329795182Y-97942180D02*
X329229497Y-97376494D01*
X329229497Y-97376494D02*
X329094810Y-97511181D01*
X329094810Y-97511181D02*
X329040935Y-97618931D01*
X329040935Y-97618931D02*
X329040935Y-97726680D01*
X329040935Y-97726680D02*
X329067872Y-97807493D01*
X329067872Y-97807493D02*
X329148685Y-97942180D01*
X329148685Y-97942180D02*
X329229497Y-98022992D01*
X329229497Y-98022992D02*
X329364184Y-98103804D01*
X329364184Y-98103804D02*
X329444996Y-98130741D01*
X329444996Y-98130741D02*
X329552746Y-98130741D01*
X329552746Y-98130741D02*
X329660495Y-98076867D01*
X329660495Y-98076867D02*
X329795182Y-97942180D01*
X322740868Y-70444998D02*
X322767805Y-70364185D01*
X322767805Y-70364185D02*
X322848618Y-70283373D01*
X322848618Y-70283373D02*
X322956367Y-70229498D01*
X322956367Y-70229498D02*
X323064117Y-70229498D01*
X323064117Y-70229498D02*
X323144929Y-70256436D01*
X323144929Y-70256436D02*
X323279616Y-70337248D01*
X323279616Y-70337248D02*
X323360428Y-70418060D01*
X323360428Y-70418060D02*
X323441241Y-70552747D01*
X323441241Y-70552747D02*
X323468178Y-70633560D01*
X323468178Y-70633560D02*
X323468178Y-70741309D01*
X323468178Y-70741309D02*
X323414303Y-70849059D01*
X323414303Y-70849059D02*
X323360428Y-70902934D01*
X323360428Y-70902934D02*
X323252679Y-70956808D01*
X323252679Y-70956808D02*
X323198804Y-70956808D01*
X323198804Y-70956808D02*
X323010242Y-70768247D01*
X323010242Y-70768247D02*
X323117992Y-70660497D01*
X323010242Y-71253120D02*
X322444557Y-70687434D01*
X322444557Y-70687434D02*
X322229057Y-70902934D01*
X322229057Y-70902934D02*
X322202120Y-70983746D01*
X322202120Y-70983746D02*
X322202120Y-71037621D01*
X322202120Y-71037621D02*
X322229057Y-71118433D01*
X322229057Y-71118433D02*
X322309870Y-71199245D01*
X322309870Y-71199245D02*
X322390682Y-71226182D01*
X322390682Y-71226182D02*
X322444557Y-71226182D01*
X322444557Y-71226182D02*
X322525369Y-71199245D01*
X322525369Y-71199245D02*
X322740868Y-70983746D01*
X322148245Y-72115117D02*
X322471494Y-71791868D01*
X322309870Y-71953492D02*
X321744184Y-71387807D01*
X321744184Y-71387807D02*
X321878871Y-71414744D01*
X321878871Y-71414744D02*
X321986621Y-71414744D01*
X321986621Y-71414744D02*
X322067433Y-71387807D01*
X321878871Y-72384491D02*
X321771121Y-72492240D01*
X321771121Y-72492240D02*
X321690309Y-72519178D01*
X321690309Y-72519178D02*
X321636434Y-72519178D01*
X321636434Y-72519178D02*
X321501747Y-72492240D01*
X321501747Y-72492240D02*
X321367060Y-72411428D01*
X321367060Y-72411428D02*
X321151561Y-72195929D01*
X321151561Y-72195929D02*
X321124624Y-72115117D01*
X321124624Y-72115117D02*
X321124624Y-72061242D01*
X321124624Y-72061242D02*
X321151561Y-71980430D01*
X321151561Y-71980430D02*
X321259311Y-71872680D01*
X321259311Y-71872680D02*
X321340123Y-71845743D01*
X321340123Y-71845743D02*
X321393998Y-71845743D01*
X321393998Y-71845743D02*
X321474810Y-71872680D01*
X321474810Y-71872680D02*
X321609497Y-72007367D01*
X321609497Y-72007367D02*
X321636434Y-72088179D01*
X321636434Y-72088179D02*
X321636434Y-72142054D01*
X321636434Y-72142054D02*
X321609497Y-72222866D01*
X321609497Y-72222866D02*
X321501747Y-72330616D01*
X321501747Y-72330616D02*
X321420935Y-72357553D01*
X321420935Y-72357553D02*
X321367060Y-72357553D01*
X321367060Y-72357553D02*
X321286248Y-72330616D01*
X325280868Y-96698998D02*
X325307805Y-96618185D01*
X325307805Y-96618185D02*
X325388618Y-96537373D01*
X325388618Y-96537373D02*
X325496367Y-96483498D01*
X325496367Y-96483498D02*
X325604117Y-96483498D01*
X325604117Y-96483498D02*
X325684929Y-96510436D01*
X325684929Y-96510436D02*
X325819616Y-96591248D01*
X325819616Y-96591248D02*
X325900428Y-96672060D01*
X325900428Y-96672060D02*
X325981241Y-96806747D01*
X325981241Y-96806747D02*
X326008178Y-96887560D01*
X326008178Y-96887560D02*
X326008178Y-96995309D01*
X326008178Y-96995309D02*
X325954303Y-97103059D01*
X325954303Y-97103059D02*
X325900428Y-97156934D01*
X325900428Y-97156934D02*
X325792679Y-97210808D01*
X325792679Y-97210808D02*
X325738804Y-97210808D01*
X325738804Y-97210808D02*
X325550242Y-97022247D01*
X325550242Y-97022247D02*
X325657992Y-96914497D01*
X325550242Y-97507120D02*
X324984557Y-96941434D01*
X324984557Y-96941434D02*
X324769057Y-97156934D01*
X324769057Y-97156934D02*
X324742120Y-97237746D01*
X324742120Y-97237746D02*
X324742120Y-97291621D01*
X324742120Y-97291621D02*
X324769057Y-97372433D01*
X324769057Y-97372433D02*
X324849870Y-97453245D01*
X324849870Y-97453245D02*
X324930682Y-97480182D01*
X324930682Y-97480182D02*
X324984557Y-97480182D01*
X324984557Y-97480182D02*
X325065369Y-97453245D01*
X325065369Y-97453245D02*
X325280868Y-97237746D01*
X324688245Y-98369117D02*
X325011494Y-98045868D01*
X324849870Y-98207492D02*
X324284184Y-97641807D01*
X324284184Y-97641807D02*
X324418871Y-97668744D01*
X324418871Y-97668744D02*
X324526621Y-97668744D01*
X324526621Y-97668744D02*
X324607433Y-97641807D01*
X324149497Y-98907865D02*
X324472746Y-98584616D01*
X324311121Y-98746240D02*
X323745436Y-98180555D01*
X323745436Y-98180555D02*
X323880123Y-98207492D01*
X323880123Y-98207492D02*
X323987873Y-98207492D01*
X323987873Y-98207492D02*
X324068685Y-98180555D01*
X317418431Y-96541435D02*
X317445368Y-96460623D01*
X317445368Y-96460623D02*
X317526180Y-96379811D01*
X317526180Y-96379811D02*
X317633930Y-96325936D01*
X317633930Y-96325936D02*
X317741680Y-96325936D01*
X317741680Y-96325936D02*
X317822492Y-96352873D01*
X317822492Y-96352873D02*
X317957179Y-96433685D01*
X317957179Y-96433685D02*
X318037991Y-96514498D01*
X318037991Y-96514498D02*
X318118803Y-96649185D01*
X318118803Y-96649185D02*
X318145741Y-96729997D01*
X318145741Y-96729997D02*
X318145741Y-96837746D01*
X318145741Y-96837746D02*
X318091866Y-96945496D01*
X318091866Y-96945496D02*
X318037991Y-96999371D01*
X318037991Y-96999371D02*
X317930241Y-97053246D01*
X317930241Y-97053246D02*
X317876367Y-97053246D01*
X317876367Y-97053246D02*
X317687805Y-96864684D01*
X317687805Y-96864684D02*
X317795554Y-96756934D01*
X317687805Y-97349557D02*
X317122119Y-96783872D01*
X317122119Y-96783872D02*
X317364556Y-97672806D01*
X317364556Y-97672806D02*
X316798871Y-97107120D01*
X317095182Y-97942180D02*
X316529497Y-97376494D01*
X316529497Y-97376494D02*
X316394810Y-97511181D01*
X316394810Y-97511181D02*
X316340935Y-97618931D01*
X316340935Y-97618931D02*
X316340935Y-97726680D01*
X316340935Y-97726680D02*
X316367872Y-97807493D01*
X316367872Y-97807493D02*
X316448685Y-97942180D01*
X316448685Y-97942180D02*
X316529497Y-98022992D01*
X316529497Y-98022992D02*
X316664184Y-98103804D01*
X316664184Y-98103804D02*
X316744996Y-98130741D01*
X316744996Y-98130741D02*
X316852746Y-98130741D01*
X316852746Y-98130741D02*
X316960495Y-98076867D01*
X316960495Y-98076867D02*
X317095182Y-97942180D01*
X310444200Y-77159761D02*
X310482295Y-77274047D01*
X310482295Y-77274047D02*
X310482295Y-77464523D01*
X310482295Y-77464523D02*
X310444200Y-77540714D01*
X310444200Y-77540714D02*
X310406104Y-77578809D01*
X310406104Y-77578809D02*
X310329914Y-77616904D01*
X310329914Y-77616904D02*
X310253723Y-77616904D01*
X310253723Y-77616904D02*
X310177533Y-77578809D01*
X310177533Y-77578809D02*
X310139438Y-77540714D01*
X310139438Y-77540714D02*
X310101342Y-77464523D01*
X310101342Y-77464523D02*
X310063247Y-77312142D01*
X310063247Y-77312142D02*
X310025152Y-77235952D01*
X310025152Y-77235952D02*
X309987057Y-77197857D01*
X309987057Y-77197857D02*
X309910866Y-77159761D01*
X309910866Y-77159761D02*
X309834676Y-77159761D01*
X309834676Y-77159761D02*
X309758485Y-77197857D01*
X309758485Y-77197857D02*
X309720390Y-77235952D01*
X309720390Y-77235952D02*
X309682295Y-77312142D01*
X309682295Y-77312142D02*
X309682295Y-77502619D01*
X309682295Y-77502619D02*
X309720390Y-77616904D01*
X309682295Y-77883571D02*
X310482295Y-78074047D01*
X310482295Y-78074047D02*
X309910866Y-78226428D01*
X309910866Y-78226428D02*
X310482295Y-78378809D01*
X310482295Y-78378809D02*
X309682295Y-78569286D01*
X310482295Y-78874048D02*
X309682295Y-78874048D01*
X309682295Y-78874048D02*
X309682295Y-79064524D01*
X309682295Y-79064524D02*
X309720390Y-79178810D01*
X309720390Y-79178810D02*
X309796580Y-79255000D01*
X309796580Y-79255000D02*
X309872771Y-79293095D01*
X309872771Y-79293095D02*
X310025152Y-79331191D01*
X310025152Y-79331191D02*
X310139438Y-79331191D01*
X310139438Y-79331191D02*
X310291819Y-79293095D01*
X310291819Y-79293095D02*
X310368009Y-79255000D01*
X310368009Y-79255000D02*
X310444200Y-79178810D01*
X310444200Y-79178810D02*
X310482295Y-79064524D01*
X310482295Y-79064524D02*
X310482295Y-78874048D01*
X310482295Y-79674048D02*
X309682295Y-79674048D01*
X309682295Y-80207381D02*
X309682295Y-80359762D01*
X309682295Y-80359762D02*
X309720390Y-80435952D01*
X309720390Y-80435952D02*
X309796580Y-80512143D01*
X309796580Y-80512143D02*
X309948961Y-80550238D01*
X309948961Y-80550238D02*
X310215628Y-80550238D01*
X310215628Y-80550238D02*
X310368009Y-80512143D01*
X310368009Y-80512143D02*
X310444200Y-80435952D01*
X310444200Y-80435952D02*
X310482295Y-80359762D01*
X310482295Y-80359762D02*
X310482295Y-80207381D01*
X310482295Y-80207381D02*
X310444200Y-80131190D01*
X310444200Y-80131190D02*
X310368009Y-80055000D01*
X310368009Y-80055000D02*
X310215628Y-80016904D01*
X310215628Y-80016904D02*
X309948961Y-80016904D01*
X309948961Y-80016904D02*
X309796580Y-80055000D01*
X309796580Y-80055000D02*
X309720390Y-80131190D01*
X309720390Y-80131190D02*
X309682295Y-80207381D01*
X355518431Y-70941435D02*
X355545368Y-70860623D01*
X355545368Y-70860623D02*
X355626180Y-70779811D01*
X355626180Y-70779811D02*
X355733930Y-70725936D01*
X355733930Y-70725936D02*
X355841680Y-70725936D01*
X355841680Y-70725936D02*
X355922492Y-70752873D01*
X355922492Y-70752873D02*
X356057179Y-70833685D01*
X356057179Y-70833685D02*
X356137991Y-70914498D01*
X356137991Y-70914498D02*
X356218803Y-71049185D01*
X356218803Y-71049185D02*
X356245741Y-71129997D01*
X356245741Y-71129997D02*
X356245741Y-71237746D01*
X356245741Y-71237746D02*
X356191866Y-71345496D01*
X356191866Y-71345496D02*
X356137991Y-71399371D01*
X356137991Y-71399371D02*
X356030241Y-71453246D01*
X356030241Y-71453246D02*
X355976367Y-71453246D01*
X355976367Y-71453246D02*
X355787805Y-71264684D01*
X355787805Y-71264684D02*
X355895554Y-71156934D01*
X355787805Y-71749557D02*
X355222119Y-71183872D01*
X355222119Y-71183872D02*
X355464556Y-72072806D01*
X355464556Y-72072806D02*
X354898871Y-71507120D01*
X355195182Y-72342180D02*
X354629497Y-71776494D01*
X354629497Y-71776494D02*
X354494810Y-71911181D01*
X354494810Y-71911181D02*
X354440935Y-72018931D01*
X354440935Y-72018931D02*
X354440935Y-72126680D01*
X354440935Y-72126680D02*
X354467872Y-72207493D01*
X354467872Y-72207493D02*
X354548685Y-72342180D01*
X354548685Y-72342180D02*
X354629497Y-72422992D01*
X354629497Y-72422992D02*
X354764184Y-72503804D01*
X354764184Y-72503804D02*
X354844996Y-72530741D01*
X354844996Y-72530741D02*
X354952746Y-72530741D01*
X354952746Y-72530741D02*
X355060495Y-72476867D01*
X355060495Y-72476867D02*
X355195182Y-72342180D01*
X345854868Y-70444998D02*
X345881805Y-70364185D01*
X345881805Y-70364185D02*
X345962618Y-70283373D01*
X345962618Y-70283373D02*
X346070367Y-70229498D01*
X346070367Y-70229498D02*
X346178117Y-70229498D01*
X346178117Y-70229498D02*
X346258929Y-70256436D01*
X346258929Y-70256436D02*
X346393616Y-70337248D01*
X346393616Y-70337248D02*
X346474428Y-70418060D01*
X346474428Y-70418060D02*
X346555241Y-70552747D01*
X346555241Y-70552747D02*
X346582178Y-70633560D01*
X346582178Y-70633560D02*
X346582178Y-70741309D01*
X346582178Y-70741309D02*
X346528303Y-70849059D01*
X346528303Y-70849059D02*
X346474428Y-70902934D01*
X346474428Y-70902934D02*
X346366679Y-70956808D01*
X346366679Y-70956808D02*
X346312804Y-70956808D01*
X346312804Y-70956808D02*
X346124242Y-70768247D01*
X346124242Y-70768247D02*
X346231992Y-70660497D01*
X346124242Y-71253120D02*
X345558557Y-70687434D01*
X345558557Y-70687434D02*
X345343057Y-70902934D01*
X345343057Y-70902934D02*
X345316120Y-70983746D01*
X345316120Y-70983746D02*
X345316120Y-71037621D01*
X345316120Y-71037621D02*
X345343057Y-71118433D01*
X345343057Y-71118433D02*
X345423870Y-71199245D01*
X345423870Y-71199245D02*
X345504682Y-71226182D01*
X345504682Y-71226182D02*
X345558557Y-71226182D01*
X345558557Y-71226182D02*
X345639369Y-71199245D01*
X345639369Y-71199245D02*
X345854868Y-70983746D01*
X345073683Y-71280057D02*
X345019809Y-71280057D01*
X345019809Y-71280057D02*
X344938996Y-71306995D01*
X344938996Y-71306995D02*
X344804309Y-71441682D01*
X344804309Y-71441682D02*
X344777372Y-71522494D01*
X344777372Y-71522494D02*
X344777372Y-71576369D01*
X344777372Y-71576369D02*
X344804309Y-71657181D01*
X344804309Y-71657181D02*
X344858184Y-71711056D01*
X344858184Y-71711056D02*
X344965934Y-71764930D01*
X344965934Y-71764930D02*
X345612431Y-71764930D01*
X345612431Y-71764930D02*
X345262245Y-72115117D01*
X344615747Y-72115117D02*
X344642685Y-72034305D01*
X344642685Y-72034305D02*
X344642685Y-71980430D01*
X344642685Y-71980430D02*
X344615747Y-71899618D01*
X344615747Y-71899618D02*
X344588810Y-71872680D01*
X344588810Y-71872680D02*
X344507998Y-71845743D01*
X344507998Y-71845743D02*
X344454123Y-71845743D01*
X344454123Y-71845743D02*
X344373311Y-71872680D01*
X344373311Y-71872680D02*
X344265561Y-71980430D01*
X344265561Y-71980430D02*
X344238624Y-72061242D01*
X344238624Y-72061242D02*
X344238624Y-72115117D01*
X344238624Y-72115117D02*
X344265561Y-72195929D01*
X344265561Y-72195929D02*
X344292499Y-72222866D01*
X344292499Y-72222866D02*
X344373311Y-72249804D01*
X344373311Y-72249804D02*
X344427186Y-72249804D01*
X344427186Y-72249804D02*
X344507998Y-72222866D01*
X344507998Y-72222866D02*
X344615747Y-72115117D01*
X344615747Y-72115117D02*
X344696560Y-72088179D01*
X344696560Y-72088179D02*
X344750434Y-72088179D01*
X344750434Y-72088179D02*
X344831247Y-72115117D01*
X344831247Y-72115117D02*
X344938996Y-72222866D01*
X344938996Y-72222866D02*
X344965934Y-72303679D01*
X344965934Y-72303679D02*
X344965934Y-72357553D01*
X344965934Y-72357553D02*
X344938996Y-72438366D01*
X344938996Y-72438366D02*
X344831247Y-72546115D01*
X344831247Y-72546115D02*
X344750434Y-72573053D01*
X344750434Y-72573053D02*
X344696560Y-72573053D01*
X344696560Y-72573053D02*
X344615747Y-72546115D01*
X344615747Y-72546115D02*
X344507998Y-72438366D01*
X344507998Y-72438366D02*
X344481060Y-72357553D01*
X344481060Y-72357553D02*
X344481060Y-72303679D01*
X344481060Y-72303679D02*
X344507998Y-72222866D01*
X350610868Y-70545123D02*
X350260682Y-70895309D01*
X350260682Y-70895309D02*
X350664743Y-70922247D01*
X350664743Y-70922247D02*
X350583931Y-71003059D01*
X350583931Y-71003059D02*
X350556993Y-71083871D01*
X350556993Y-71083871D02*
X350556993Y-71137746D01*
X350556993Y-71137746D02*
X350583931Y-71218558D01*
X350583931Y-71218558D02*
X350718618Y-71353245D01*
X350718618Y-71353245D02*
X350799430Y-71380182D01*
X350799430Y-71380182D02*
X350853305Y-71380182D01*
X350853305Y-71380182D02*
X350934117Y-71353245D01*
X350934117Y-71353245D02*
X351095741Y-71191621D01*
X351095741Y-71191621D02*
X351122679Y-71110808D01*
X351122679Y-71110808D02*
X351122679Y-71056934D01*
X350099057Y-71056934D02*
X350476181Y-71811181D01*
X350476181Y-71811181D02*
X349721934Y-71434057D01*
X349587247Y-71568744D02*
X349237061Y-71918930D01*
X349237061Y-71918930D02*
X349641122Y-71945868D01*
X349641122Y-71945868D02*
X349560309Y-72026680D01*
X349560309Y-72026680D02*
X349533372Y-72107492D01*
X349533372Y-72107492D02*
X349533372Y-72161367D01*
X349533372Y-72161367D02*
X349560309Y-72242179D01*
X349560309Y-72242179D02*
X349694996Y-72376866D01*
X349694996Y-72376866D02*
X349775809Y-72403804D01*
X349775809Y-72403804D02*
X349829683Y-72403804D01*
X349829683Y-72403804D02*
X349910496Y-72376866D01*
X349910496Y-72376866D02*
X350072120Y-72215242D01*
X350072120Y-72215242D02*
X350099057Y-72134430D01*
X350099057Y-72134430D02*
X350099057Y-72080555D01*
X361247585Y-69808406D02*
X361624709Y-70562653D01*
X361624709Y-70562653D02*
X360870462Y-70185529D01*
X360762712Y-70832027D02*
X360708838Y-70939776D01*
X360708838Y-70939776D02*
X360708838Y-70993651D01*
X360708838Y-70993651D02*
X360735775Y-71074463D01*
X360735775Y-71074463D02*
X360816587Y-71155276D01*
X360816587Y-71155276D02*
X360897399Y-71182213D01*
X360897399Y-71182213D02*
X360951274Y-71182213D01*
X360951274Y-71182213D02*
X361032086Y-71155276D01*
X361032086Y-71155276D02*
X361247586Y-70939776D01*
X361247586Y-70939776D02*
X360681900Y-70374091D01*
X360681900Y-70374091D02*
X360493338Y-70562653D01*
X360493338Y-70562653D02*
X360466401Y-70643465D01*
X360466401Y-70643465D02*
X360466401Y-70697340D01*
X360466401Y-70697340D02*
X360493338Y-70778152D01*
X360493338Y-70778152D02*
X360547213Y-70832027D01*
X360547213Y-70832027D02*
X360628025Y-70858964D01*
X360628025Y-70858964D02*
X360681900Y-70858964D01*
X360681900Y-70858964D02*
X360762712Y-70832027D01*
X360762712Y-70832027D02*
X360951274Y-70643465D01*
X360116215Y-70939776D02*
X360574151Y-71397712D01*
X360574151Y-71397712D02*
X360601088Y-71478524D01*
X360601088Y-71478524D02*
X360601088Y-71532399D01*
X360601088Y-71532399D02*
X360574151Y-71613211D01*
X360574151Y-71613211D02*
X360466401Y-71720961D01*
X360466401Y-71720961D02*
X360385589Y-71747898D01*
X360385589Y-71747898D02*
X360331714Y-71747898D01*
X360331714Y-71747898D02*
X360250902Y-71720961D01*
X360250902Y-71720961D02*
X359792966Y-71263025D01*
X360089277Y-72044210D02*
X360035403Y-72151959D01*
X360035403Y-72151959D02*
X359900716Y-72286646D01*
X359900716Y-72286646D02*
X359819903Y-72313584D01*
X359819903Y-72313584D02*
X359766029Y-72313584D01*
X359766029Y-72313584D02*
X359685216Y-72286646D01*
X359685216Y-72286646D02*
X359631342Y-72232771D01*
X359631342Y-72232771D02*
X359604404Y-72151959D01*
X359604404Y-72151959D02*
X359604404Y-72098084D01*
X359604404Y-72098084D02*
X359631342Y-72017272D01*
X359631342Y-72017272D02*
X359712154Y-71882585D01*
X359712154Y-71882585D02*
X359739091Y-71801773D01*
X359739091Y-71801773D02*
X359739091Y-71747898D01*
X359739091Y-71747898D02*
X359712154Y-71667086D01*
X359712154Y-71667086D02*
X359658279Y-71613211D01*
X359658279Y-71613211D02*
X359577467Y-71586274D01*
X359577467Y-71586274D02*
X359523592Y-71586274D01*
X359523592Y-71586274D02*
X359442780Y-71613211D01*
X359442780Y-71613211D02*
X359308093Y-71747898D01*
X359308093Y-71747898D02*
X359254218Y-71855648D01*
X312580868Y-70444998D02*
X312607805Y-70364185D01*
X312607805Y-70364185D02*
X312688618Y-70283373D01*
X312688618Y-70283373D02*
X312796367Y-70229498D01*
X312796367Y-70229498D02*
X312904117Y-70229498D01*
X312904117Y-70229498D02*
X312984929Y-70256436D01*
X312984929Y-70256436D02*
X313119616Y-70337248D01*
X313119616Y-70337248D02*
X313200428Y-70418060D01*
X313200428Y-70418060D02*
X313281241Y-70552747D01*
X313281241Y-70552747D02*
X313308178Y-70633560D01*
X313308178Y-70633560D02*
X313308178Y-70741309D01*
X313308178Y-70741309D02*
X313254303Y-70849059D01*
X313254303Y-70849059D02*
X313200428Y-70902934D01*
X313200428Y-70902934D02*
X313092679Y-70956808D01*
X313092679Y-70956808D02*
X313038804Y-70956808D01*
X313038804Y-70956808D02*
X312850242Y-70768247D01*
X312850242Y-70768247D02*
X312957992Y-70660497D01*
X312850242Y-71253120D02*
X312284557Y-70687434D01*
X312284557Y-70687434D02*
X312069057Y-70902934D01*
X312069057Y-70902934D02*
X312042120Y-70983746D01*
X312042120Y-70983746D02*
X312042120Y-71037621D01*
X312042120Y-71037621D02*
X312069057Y-71118433D01*
X312069057Y-71118433D02*
X312149870Y-71199245D01*
X312149870Y-71199245D02*
X312230682Y-71226182D01*
X312230682Y-71226182D02*
X312284557Y-71226182D01*
X312284557Y-71226182D02*
X312365369Y-71199245D01*
X312365369Y-71199245D02*
X312580868Y-70983746D01*
X311988245Y-72115117D02*
X312311494Y-71791868D01*
X312149870Y-71953492D02*
X311584184Y-71387807D01*
X311584184Y-71387807D02*
X311718871Y-71414744D01*
X311718871Y-71414744D02*
X311826621Y-71414744D01*
X311826621Y-71414744D02*
X311907433Y-71387807D01*
X310937686Y-72034305D02*
X311045436Y-71926555D01*
X311045436Y-71926555D02*
X311126248Y-71899618D01*
X311126248Y-71899618D02*
X311180123Y-71899618D01*
X311180123Y-71899618D02*
X311314810Y-71926555D01*
X311314810Y-71926555D02*
X311449497Y-72007367D01*
X311449497Y-72007367D02*
X311664996Y-72222866D01*
X311664996Y-72222866D02*
X311691934Y-72303679D01*
X311691934Y-72303679D02*
X311691934Y-72357553D01*
X311691934Y-72357553D02*
X311664996Y-72438366D01*
X311664996Y-72438366D02*
X311557247Y-72546115D01*
X311557247Y-72546115D02*
X311476434Y-72573053D01*
X311476434Y-72573053D02*
X311422560Y-72573053D01*
X311422560Y-72573053D02*
X311341747Y-72546115D01*
X311341747Y-72546115D02*
X311207060Y-72411428D01*
X311207060Y-72411428D02*
X311180123Y-72330616D01*
X311180123Y-72330616D02*
X311180123Y-72276741D01*
X311180123Y-72276741D02*
X311207060Y-72195929D01*
X311207060Y-72195929D02*
X311314810Y-72088179D01*
X311314810Y-72088179D02*
X311395622Y-72061242D01*
X311395622Y-72061242D02*
X311449497Y-72061242D01*
X311449497Y-72061242D02*
X311530309Y-72088179D01*
X320200868Y-70444998D02*
X320227805Y-70364185D01*
X320227805Y-70364185D02*
X320308618Y-70283373D01*
X320308618Y-70283373D02*
X320416367Y-70229498D01*
X320416367Y-70229498D02*
X320524117Y-70229498D01*
X320524117Y-70229498D02*
X320604929Y-70256436D01*
X320604929Y-70256436D02*
X320739616Y-70337248D01*
X320739616Y-70337248D02*
X320820428Y-70418060D01*
X320820428Y-70418060D02*
X320901241Y-70552747D01*
X320901241Y-70552747D02*
X320928178Y-70633560D01*
X320928178Y-70633560D02*
X320928178Y-70741309D01*
X320928178Y-70741309D02*
X320874303Y-70849059D01*
X320874303Y-70849059D02*
X320820428Y-70902934D01*
X320820428Y-70902934D02*
X320712679Y-70956808D01*
X320712679Y-70956808D02*
X320658804Y-70956808D01*
X320658804Y-70956808D02*
X320470242Y-70768247D01*
X320470242Y-70768247D02*
X320577992Y-70660497D01*
X320470242Y-71253120D02*
X319904557Y-70687434D01*
X319904557Y-70687434D02*
X319689057Y-70902934D01*
X319689057Y-70902934D02*
X319662120Y-70983746D01*
X319662120Y-70983746D02*
X319662120Y-71037621D01*
X319662120Y-71037621D02*
X319689057Y-71118433D01*
X319689057Y-71118433D02*
X319769870Y-71199245D01*
X319769870Y-71199245D02*
X319850682Y-71226182D01*
X319850682Y-71226182D02*
X319904557Y-71226182D01*
X319904557Y-71226182D02*
X319985369Y-71199245D01*
X319985369Y-71199245D02*
X320200868Y-70983746D01*
X319608245Y-72115117D02*
X319931494Y-71791868D01*
X319769870Y-71953492D02*
X319204184Y-71387807D01*
X319204184Y-71387807D02*
X319338871Y-71414744D01*
X319338871Y-71414744D02*
X319446621Y-71414744D01*
X319446621Y-71414744D02*
X319527433Y-71387807D01*
X318961747Y-72115117D02*
X318988685Y-72034305D01*
X318988685Y-72034305D02*
X318988685Y-71980430D01*
X318988685Y-71980430D02*
X318961747Y-71899618D01*
X318961747Y-71899618D02*
X318934810Y-71872680D01*
X318934810Y-71872680D02*
X318853998Y-71845743D01*
X318853998Y-71845743D02*
X318800123Y-71845743D01*
X318800123Y-71845743D02*
X318719311Y-71872680D01*
X318719311Y-71872680D02*
X318611561Y-71980430D01*
X318611561Y-71980430D02*
X318584624Y-72061242D01*
X318584624Y-72061242D02*
X318584624Y-72115117D01*
X318584624Y-72115117D02*
X318611561Y-72195929D01*
X318611561Y-72195929D02*
X318638499Y-72222866D01*
X318638499Y-72222866D02*
X318719311Y-72249804D01*
X318719311Y-72249804D02*
X318773186Y-72249804D01*
X318773186Y-72249804D02*
X318853998Y-72222866D01*
X318853998Y-72222866D02*
X318961747Y-72115117D01*
X318961747Y-72115117D02*
X319042560Y-72088179D01*
X319042560Y-72088179D02*
X319096434Y-72088179D01*
X319096434Y-72088179D02*
X319177247Y-72115117D01*
X319177247Y-72115117D02*
X319284996Y-72222866D01*
X319284996Y-72222866D02*
X319311934Y-72303679D01*
X319311934Y-72303679D02*
X319311934Y-72357553D01*
X319311934Y-72357553D02*
X319284996Y-72438366D01*
X319284996Y-72438366D02*
X319177247Y-72546115D01*
X319177247Y-72546115D02*
X319096434Y-72573053D01*
X319096434Y-72573053D02*
X319042560Y-72573053D01*
X319042560Y-72573053D02*
X318961747Y-72546115D01*
X318961747Y-72546115D02*
X318853998Y-72438366D01*
X318853998Y-72438366D02*
X318827060Y-72357553D01*
X318827060Y-72357553D02*
X318827060Y-72303679D01*
X318827060Y-72303679D02*
X318853998Y-72222866D01*
X315120868Y-70444998D02*
X315147805Y-70364185D01*
X315147805Y-70364185D02*
X315228618Y-70283373D01*
X315228618Y-70283373D02*
X315336367Y-70229498D01*
X315336367Y-70229498D02*
X315444117Y-70229498D01*
X315444117Y-70229498D02*
X315524929Y-70256436D01*
X315524929Y-70256436D02*
X315659616Y-70337248D01*
X315659616Y-70337248D02*
X315740428Y-70418060D01*
X315740428Y-70418060D02*
X315821241Y-70552747D01*
X315821241Y-70552747D02*
X315848178Y-70633560D01*
X315848178Y-70633560D02*
X315848178Y-70741309D01*
X315848178Y-70741309D02*
X315794303Y-70849059D01*
X315794303Y-70849059D02*
X315740428Y-70902934D01*
X315740428Y-70902934D02*
X315632679Y-70956808D01*
X315632679Y-70956808D02*
X315578804Y-70956808D01*
X315578804Y-70956808D02*
X315390242Y-70768247D01*
X315390242Y-70768247D02*
X315497992Y-70660497D01*
X315390242Y-71253120D02*
X314824557Y-70687434D01*
X314824557Y-70687434D02*
X314609057Y-70902934D01*
X314609057Y-70902934D02*
X314582120Y-70983746D01*
X314582120Y-70983746D02*
X314582120Y-71037621D01*
X314582120Y-71037621D02*
X314609057Y-71118433D01*
X314609057Y-71118433D02*
X314689870Y-71199245D01*
X314689870Y-71199245D02*
X314770682Y-71226182D01*
X314770682Y-71226182D02*
X314824557Y-71226182D01*
X314824557Y-71226182D02*
X314905369Y-71199245D01*
X314905369Y-71199245D02*
X315120868Y-70983746D01*
X314528245Y-72115117D02*
X314851494Y-71791868D01*
X314689870Y-71953492D02*
X314124184Y-71387807D01*
X314124184Y-71387807D02*
X314258871Y-71414744D01*
X314258871Y-71414744D02*
X314366621Y-71414744D01*
X314366621Y-71414744D02*
X314447433Y-71387807D01*
X313773998Y-71737993D02*
X313396874Y-72115117D01*
X313396874Y-72115117D02*
X314204996Y-72438366D01*
X322740868Y-96698998D02*
X322767805Y-96618185D01*
X322767805Y-96618185D02*
X322848618Y-96537373D01*
X322848618Y-96537373D02*
X322956367Y-96483498D01*
X322956367Y-96483498D02*
X323064117Y-96483498D01*
X323064117Y-96483498D02*
X323144929Y-96510436D01*
X323144929Y-96510436D02*
X323279616Y-96591248D01*
X323279616Y-96591248D02*
X323360428Y-96672060D01*
X323360428Y-96672060D02*
X323441241Y-96806747D01*
X323441241Y-96806747D02*
X323468178Y-96887560D01*
X323468178Y-96887560D02*
X323468178Y-96995309D01*
X323468178Y-96995309D02*
X323414303Y-97103059D01*
X323414303Y-97103059D02*
X323360428Y-97156934D01*
X323360428Y-97156934D02*
X323252679Y-97210808D01*
X323252679Y-97210808D02*
X323198804Y-97210808D01*
X323198804Y-97210808D02*
X323010242Y-97022247D01*
X323010242Y-97022247D02*
X323117992Y-96914497D01*
X323010242Y-97507120D02*
X322444557Y-96941434D01*
X322444557Y-96941434D02*
X322229057Y-97156934D01*
X322229057Y-97156934D02*
X322202120Y-97237746D01*
X322202120Y-97237746D02*
X322202120Y-97291621D01*
X322202120Y-97291621D02*
X322229057Y-97372433D01*
X322229057Y-97372433D02*
X322309870Y-97453245D01*
X322309870Y-97453245D02*
X322390682Y-97480182D01*
X322390682Y-97480182D02*
X322444557Y-97480182D01*
X322444557Y-97480182D02*
X322525369Y-97453245D01*
X322525369Y-97453245D02*
X322740868Y-97237746D01*
X322148245Y-98369117D02*
X322471494Y-98045868D01*
X322309870Y-98207492D02*
X321744184Y-97641807D01*
X321744184Y-97641807D02*
X321878871Y-97668744D01*
X321878871Y-97668744D02*
X321986621Y-97668744D01*
X321986621Y-97668744D02*
X322067433Y-97641807D01*
X321420935Y-98072805D02*
X321367060Y-98072805D01*
X321367060Y-98072805D02*
X321286248Y-98099743D01*
X321286248Y-98099743D02*
X321151561Y-98234430D01*
X321151561Y-98234430D02*
X321124624Y-98315242D01*
X321124624Y-98315242D02*
X321124624Y-98369117D01*
X321124624Y-98369117D02*
X321151561Y-98449929D01*
X321151561Y-98449929D02*
X321205436Y-98503804D01*
X321205436Y-98503804D02*
X321313186Y-98557679D01*
X321313186Y-98557679D02*
X321959683Y-98557679D01*
X321959683Y-98557679D02*
X321609497Y-98907865D01*
X315120868Y-96598998D02*
X315147805Y-96518185D01*
X315147805Y-96518185D02*
X315228618Y-96437373D01*
X315228618Y-96437373D02*
X315336367Y-96383498D01*
X315336367Y-96383498D02*
X315444117Y-96383498D01*
X315444117Y-96383498D02*
X315524929Y-96410436D01*
X315524929Y-96410436D02*
X315659616Y-96491248D01*
X315659616Y-96491248D02*
X315740428Y-96572060D01*
X315740428Y-96572060D02*
X315821241Y-96706747D01*
X315821241Y-96706747D02*
X315848178Y-96787560D01*
X315848178Y-96787560D02*
X315848178Y-96895309D01*
X315848178Y-96895309D02*
X315794303Y-97003059D01*
X315794303Y-97003059D02*
X315740428Y-97056934D01*
X315740428Y-97056934D02*
X315632679Y-97110808D01*
X315632679Y-97110808D02*
X315578804Y-97110808D01*
X315578804Y-97110808D02*
X315390242Y-96922247D01*
X315390242Y-96922247D02*
X315497992Y-96814497D01*
X315390242Y-97407120D02*
X314824557Y-96841434D01*
X314824557Y-96841434D02*
X314609057Y-97056934D01*
X314609057Y-97056934D02*
X314582120Y-97137746D01*
X314582120Y-97137746D02*
X314582120Y-97191621D01*
X314582120Y-97191621D02*
X314609057Y-97272433D01*
X314609057Y-97272433D02*
X314689870Y-97353245D01*
X314689870Y-97353245D02*
X314770682Y-97380182D01*
X314770682Y-97380182D02*
X314824557Y-97380182D01*
X314824557Y-97380182D02*
X314905369Y-97353245D01*
X314905369Y-97353245D02*
X315120868Y-97137746D01*
X314528245Y-98269117D02*
X314851494Y-97945868D01*
X314689870Y-98107492D02*
X314124184Y-97541807D01*
X314124184Y-97541807D02*
X314258871Y-97568744D01*
X314258871Y-97568744D02*
X314366621Y-97568744D01*
X314366621Y-97568744D02*
X314447433Y-97541807D01*
X313666248Y-98376866D02*
X314043372Y-98753990D01*
X313585436Y-98026680D02*
X314124184Y-98296054D01*
X314124184Y-98296054D02*
X313773998Y-98646240D01*
X355518431Y-96541435D02*
X355545368Y-96460623D01*
X355545368Y-96460623D02*
X355626180Y-96379811D01*
X355626180Y-96379811D02*
X355733930Y-96325936D01*
X355733930Y-96325936D02*
X355841680Y-96325936D01*
X355841680Y-96325936D02*
X355922492Y-96352873D01*
X355922492Y-96352873D02*
X356057179Y-96433685D01*
X356057179Y-96433685D02*
X356137991Y-96514498D01*
X356137991Y-96514498D02*
X356218803Y-96649185D01*
X356218803Y-96649185D02*
X356245741Y-96729997D01*
X356245741Y-96729997D02*
X356245741Y-96837746D01*
X356245741Y-96837746D02*
X356191866Y-96945496D01*
X356191866Y-96945496D02*
X356137991Y-96999371D01*
X356137991Y-96999371D02*
X356030241Y-97053246D01*
X356030241Y-97053246D02*
X355976367Y-97053246D01*
X355976367Y-97053246D02*
X355787805Y-96864684D01*
X355787805Y-96864684D02*
X355895554Y-96756934D01*
X355787805Y-97349557D02*
X355222119Y-96783872D01*
X355222119Y-96783872D02*
X355464556Y-97672806D01*
X355464556Y-97672806D02*
X354898871Y-97107120D01*
X355195182Y-97942180D02*
X354629497Y-97376494D01*
X354629497Y-97376494D02*
X354494810Y-97511181D01*
X354494810Y-97511181D02*
X354440935Y-97618931D01*
X354440935Y-97618931D02*
X354440935Y-97726680D01*
X354440935Y-97726680D02*
X354467872Y-97807493D01*
X354467872Y-97807493D02*
X354548685Y-97942180D01*
X354548685Y-97942180D02*
X354629497Y-98022992D01*
X354629497Y-98022992D02*
X354764184Y-98103804D01*
X354764184Y-98103804D02*
X354844996Y-98130741D01*
X354844996Y-98130741D02*
X354952746Y-98130741D01*
X354952746Y-98130741D02*
X355060495Y-98076867D01*
X355060495Y-98076867D02*
X355195182Y-97942180D01*
X342818431Y-96541435D02*
X342845368Y-96460623D01*
X342845368Y-96460623D02*
X342926180Y-96379811D01*
X342926180Y-96379811D02*
X343033930Y-96325936D01*
X343033930Y-96325936D02*
X343141680Y-96325936D01*
X343141680Y-96325936D02*
X343222492Y-96352873D01*
X343222492Y-96352873D02*
X343357179Y-96433685D01*
X343357179Y-96433685D02*
X343437991Y-96514498D01*
X343437991Y-96514498D02*
X343518803Y-96649185D01*
X343518803Y-96649185D02*
X343545741Y-96729997D01*
X343545741Y-96729997D02*
X343545741Y-96837746D01*
X343545741Y-96837746D02*
X343491866Y-96945496D01*
X343491866Y-96945496D02*
X343437991Y-96999371D01*
X343437991Y-96999371D02*
X343330241Y-97053246D01*
X343330241Y-97053246D02*
X343276367Y-97053246D01*
X343276367Y-97053246D02*
X343087805Y-96864684D01*
X343087805Y-96864684D02*
X343195554Y-96756934D01*
X343087805Y-97349557D02*
X342522119Y-96783872D01*
X342522119Y-96783872D02*
X342764556Y-97672806D01*
X342764556Y-97672806D02*
X342198871Y-97107120D01*
X342495182Y-97942180D02*
X341929497Y-97376494D01*
X341929497Y-97376494D02*
X341794810Y-97511181D01*
X341794810Y-97511181D02*
X341740935Y-97618931D01*
X341740935Y-97618931D02*
X341740935Y-97726680D01*
X341740935Y-97726680D02*
X341767872Y-97807493D01*
X341767872Y-97807493D02*
X341848685Y-97942180D01*
X341848685Y-97942180D02*
X341929497Y-98022992D01*
X341929497Y-98022992D02*
X342064184Y-98103804D01*
X342064184Y-98103804D02*
X342144996Y-98130741D01*
X342144996Y-98130741D02*
X342252746Y-98130741D01*
X342252746Y-98130741D02*
X342360495Y-98076867D01*
X342360495Y-98076867D02*
X342495182Y-97942180D01*
X320200868Y-96552998D02*
X320227805Y-96472185D01*
X320227805Y-96472185D02*
X320308618Y-96391373D01*
X320308618Y-96391373D02*
X320416367Y-96337498D01*
X320416367Y-96337498D02*
X320524117Y-96337498D01*
X320524117Y-96337498D02*
X320604929Y-96364436D01*
X320604929Y-96364436D02*
X320739616Y-96445248D01*
X320739616Y-96445248D02*
X320820428Y-96526060D01*
X320820428Y-96526060D02*
X320901241Y-96660747D01*
X320901241Y-96660747D02*
X320928178Y-96741560D01*
X320928178Y-96741560D02*
X320928178Y-96849309D01*
X320928178Y-96849309D02*
X320874303Y-96957059D01*
X320874303Y-96957059D02*
X320820428Y-97010934D01*
X320820428Y-97010934D02*
X320712679Y-97064808D01*
X320712679Y-97064808D02*
X320658804Y-97064808D01*
X320658804Y-97064808D02*
X320470242Y-96876247D01*
X320470242Y-96876247D02*
X320577992Y-96768497D01*
X320470242Y-97361120D02*
X319904557Y-96795434D01*
X319904557Y-96795434D02*
X319689057Y-97010934D01*
X319689057Y-97010934D02*
X319662120Y-97091746D01*
X319662120Y-97091746D02*
X319662120Y-97145621D01*
X319662120Y-97145621D02*
X319689057Y-97226433D01*
X319689057Y-97226433D02*
X319769870Y-97307245D01*
X319769870Y-97307245D02*
X319850682Y-97334182D01*
X319850682Y-97334182D02*
X319904557Y-97334182D01*
X319904557Y-97334182D02*
X319985369Y-97307245D01*
X319985369Y-97307245D02*
X320200868Y-97091746D01*
X319608245Y-98223117D02*
X319931494Y-97899868D01*
X319769870Y-98061492D02*
X319204184Y-97495807D01*
X319204184Y-97495807D02*
X319338871Y-97522744D01*
X319338871Y-97522744D02*
X319446621Y-97522744D01*
X319446621Y-97522744D02*
X319527433Y-97495807D01*
X318853998Y-97845993D02*
X318503812Y-98196179D01*
X318503812Y-98196179D02*
X318907873Y-98223117D01*
X318907873Y-98223117D02*
X318827060Y-98303929D01*
X318827060Y-98303929D02*
X318800123Y-98384741D01*
X318800123Y-98384741D02*
X318800123Y-98438616D01*
X318800123Y-98438616D02*
X318827060Y-98519428D01*
X318827060Y-98519428D02*
X318961747Y-98654115D01*
X318961747Y-98654115D02*
X319042560Y-98681053D01*
X319042560Y-98681053D02*
X319096434Y-98681053D01*
X319096434Y-98681053D02*
X319177247Y-98654115D01*
X319177247Y-98654115D02*
X319338871Y-98492491D01*
X319338871Y-98492491D02*
X319365808Y-98411679D01*
X319365808Y-98411679D02*
X319365808Y-98357804D01*
X330118431Y-70941435D02*
X330145368Y-70860623D01*
X330145368Y-70860623D02*
X330226180Y-70779811D01*
X330226180Y-70779811D02*
X330333930Y-70725936D01*
X330333930Y-70725936D02*
X330441680Y-70725936D01*
X330441680Y-70725936D02*
X330522492Y-70752873D01*
X330522492Y-70752873D02*
X330657179Y-70833685D01*
X330657179Y-70833685D02*
X330737991Y-70914498D01*
X330737991Y-70914498D02*
X330818803Y-71049185D01*
X330818803Y-71049185D02*
X330845741Y-71129997D01*
X330845741Y-71129997D02*
X330845741Y-71237746D01*
X330845741Y-71237746D02*
X330791866Y-71345496D01*
X330791866Y-71345496D02*
X330737991Y-71399371D01*
X330737991Y-71399371D02*
X330630241Y-71453246D01*
X330630241Y-71453246D02*
X330576367Y-71453246D01*
X330576367Y-71453246D02*
X330387805Y-71264684D01*
X330387805Y-71264684D02*
X330495554Y-71156934D01*
X330387805Y-71749557D02*
X329822119Y-71183872D01*
X329822119Y-71183872D02*
X330064556Y-72072806D01*
X330064556Y-72072806D02*
X329498871Y-71507120D01*
X329795182Y-72342180D02*
X329229497Y-71776494D01*
X329229497Y-71776494D02*
X329094810Y-71911181D01*
X329094810Y-71911181D02*
X329040935Y-72018931D01*
X329040935Y-72018931D02*
X329040935Y-72126680D01*
X329040935Y-72126680D02*
X329067872Y-72207493D01*
X329067872Y-72207493D02*
X329148685Y-72342180D01*
X329148685Y-72342180D02*
X329229497Y-72422992D01*
X329229497Y-72422992D02*
X329364184Y-72503804D01*
X329364184Y-72503804D02*
X329444996Y-72530741D01*
X329444996Y-72530741D02*
X329552746Y-72530741D01*
X329552746Y-72530741D02*
X329660495Y-72476867D01*
X329660495Y-72476867D02*
X329795182Y-72342180D01*
X327810868Y-70444998D02*
X327837805Y-70364185D01*
X327837805Y-70364185D02*
X327918618Y-70283373D01*
X327918618Y-70283373D02*
X328026367Y-70229498D01*
X328026367Y-70229498D02*
X328134117Y-70229498D01*
X328134117Y-70229498D02*
X328214929Y-70256436D01*
X328214929Y-70256436D02*
X328349616Y-70337248D01*
X328349616Y-70337248D02*
X328430428Y-70418060D01*
X328430428Y-70418060D02*
X328511241Y-70552747D01*
X328511241Y-70552747D02*
X328538178Y-70633560D01*
X328538178Y-70633560D02*
X328538178Y-70741309D01*
X328538178Y-70741309D02*
X328484303Y-70849059D01*
X328484303Y-70849059D02*
X328430428Y-70902934D01*
X328430428Y-70902934D02*
X328322679Y-70956808D01*
X328322679Y-70956808D02*
X328268804Y-70956808D01*
X328268804Y-70956808D02*
X328080242Y-70768247D01*
X328080242Y-70768247D02*
X328187992Y-70660497D01*
X328080242Y-71253120D02*
X327514557Y-70687434D01*
X327514557Y-70687434D02*
X327299057Y-70902934D01*
X327299057Y-70902934D02*
X327272120Y-70983746D01*
X327272120Y-70983746D02*
X327272120Y-71037621D01*
X327272120Y-71037621D02*
X327299057Y-71118433D01*
X327299057Y-71118433D02*
X327379870Y-71199245D01*
X327379870Y-71199245D02*
X327460682Y-71226182D01*
X327460682Y-71226182D02*
X327514557Y-71226182D01*
X327514557Y-71226182D02*
X327595369Y-71199245D01*
X327595369Y-71199245D02*
X327810868Y-70983746D01*
X327029683Y-71280057D02*
X326975809Y-71280057D01*
X326975809Y-71280057D02*
X326894996Y-71306995D01*
X326894996Y-71306995D02*
X326760309Y-71441682D01*
X326760309Y-71441682D02*
X326733372Y-71522494D01*
X326733372Y-71522494D02*
X326733372Y-71576369D01*
X326733372Y-71576369D02*
X326760309Y-71657181D01*
X326760309Y-71657181D02*
X326814184Y-71711056D01*
X326814184Y-71711056D02*
X326921934Y-71764930D01*
X326921934Y-71764930D02*
X327568431Y-71764930D01*
X327568431Y-71764930D02*
X327218245Y-72115117D01*
X326679497Y-72653865D02*
X327002746Y-72330616D01*
X326841121Y-72492240D02*
X326275436Y-71926555D01*
X326275436Y-71926555D02*
X326410123Y-71953492D01*
X326410123Y-71953492D02*
X326517873Y-71953492D01*
X326517873Y-71953492D02*
X326598685Y-71926555D01*
X317418431Y-70941435D02*
X317445368Y-70860623D01*
X317445368Y-70860623D02*
X317526180Y-70779811D01*
X317526180Y-70779811D02*
X317633930Y-70725936D01*
X317633930Y-70725936D02*
X317741680Y-70725936D01*
X317741680Y-70725936D02*
X317822492Y-70752873D01*
X317822492Y-70752873D02*
X317957179Y-70833685D01*
X317957179Y-70833685D02*
X318037991Y-70914498D01*
X318037991Y-70914498D02*
X318118803Y-71049185D01*
X318118803Y-71049185D02*
X318145741Y-71129997D01*
X318145741Y-71129997D02*
X318145741Y-71237746D01*
X318145741Y-71237746D02*
X318091866Y-71345496D01*
X318091866Y-71345496D02*
X318037991Y-71399371D01*
X318037991Y-71399371D02*
X317930241Y-71453246D01*
X317930241Y-71453246D02*
X317876367Y-71453246D01*
X317876367Y-71453246D02*
X317687805Y-71264684D01*
X317687805Y-71264684D02*
X317795554Y-71156934D01*
X317687805Y-71749557D02*
X317122119Y-71183872D01*
X317122119Y-71183872D02*
X317364556Y-72072806D01*
X317364556Y-72072806D02*
X316798871Y-71507120D01*
X317095182Y-72342180D02*
X316529497Y-71776494D01*
X316529497Y-71776494D02*
X316394810Y-71911181D01*
X316394810Y-71911181D02*
X316340935Y-72018931D01*
X316340935Y-72018931D02*
X316340935Y-72126680D01*
X316340935Y-72126680D02*
X316367872Y-72207493D01*
X316367872Y-72207493D02*
X316448685Y-72342180D01*
X316448685Y-72342180D02*
X316529497Y-72422992D01*
X316529497Y-72422992D02*
X316664184Y-72503804D01*
X316664184Y-72503804D02*
X316744996Y-72530741D01*
X316744996Y-72530741D02*
X316852746Y-72530741D01*
X316852746Y-72530741D02*
X316960495Y-72476867D01*
X316960495Y-72476867D02*
X317095182Y-72342180D01*
X358570242Y-69975749D02*
X358947366Y-70729996D01*
X358947366Y-70729996D02*
X358193118Y-70352873D01*
X358570242Y-71053245D02*
X358516367Y-71160995D01*
X358516367Y-71160995D02*
X358381680Y-71295682D01*
X358381680Y-71295682D02*
X358300868Y-71322619D01*
X358300868Y-71322619D02*
X358246993Y-71322619D01*
X358246993Y-71322619D02*
X358166181Y-71295682D01*
X358166181Y-71295682D02*
X358112306Y-71241807D01*
X358112306Y-71241807D02*
X358085369Y-71160995D01*
X358085369Y-71160995D02*
X358085369Y-71107120D01*
X358085369Y-71107120D02*
X358112306Y-71026308D01*
X358112306Y-71026308D02*
X358193118Y-70891621D01*
X358193118Y-70891621D02*
X358220056Y-70810808D01*
X358220056Y-70810808D02*
X358220056Y-70756934D01*
X358220056Y-70756934D02*
X358193118Y-70676121D01*
X358193118Y-70676121D02*
X358139244Y-70622247D01*
X358139244Y-70622247D02*
X358058431Y-70595309D01*
X358058431Y-70595309D02*
X358004557Y-70595309D01*
X358004557Y-70595309D02*
X357923744Y-70622247D01*
X357923744Y-70622247D02*
X357789057Y-70756934D01*
X357789057Y-70756934D02*
X357735183Y-70864683D01*
X357654370Y-71484244D02*
X357923744Y-71753618D01*
X357546621Y-70999370D02*
X357654370Y-71484244D01*
X357654370Y-71484244D02*
X357169497Y-71376494D01*
X357546621Y-72076866D02*
X357492746Y-72184616D01*
X357492746Y-72184616D02*
X357358059Y-72319303D01*
X357358059Y-72319303D02*
X357277247Y-72346240D01*
X357277247Y-72346240D02*
X357223372Y-72346240D01*
X357223372Y-72346240D02*
X357142560Y-72319303D01*
X357142560Y-72319303D02*
X357088685Y-72265428D01*
X357088685Y-72265428D02*
X357061748Y-72184616D01*
X357061748Y-72184616D02*
X357061748Y-72130741D01*
X357061748Y-72130741D02*
X357088685Y-72049929D01*
X357088685Y-72049929D02*
X357169497Y-71915242D01*
X357169497Y-71915242D02*
X357196435Y-71834430D01*
X357196435Y-71834430D02*
X357196435Y-71780555D01*
X357196435Y-71780555D02*
X357169497Y-71699743D01*
X357169497Y-71699743D02*
X357115622Y-71645868D01*
X357115622Y-71645868D02*
X357034810Y-71618930D01*
X357034810Y-71618930D02*
X356980935Y-71618930D01*
X356980935Y-71618930D02*
X356900123Y-71645868D01*
X356900123Y-71645868D02*
X356765436Y-71780555D01*
X356765436Y-71780555D02*
X356711561Y-71888304D01*
X358041494Y-96668372D02*
X358068431Y-96587560D01*
X358068431Y-96587560D02*
X358149243Y-96506748D01*
X358149243Y-96506748D02*
X358256993Y-96452873D01*
X358256993Y-96452873D02*
X358364742Y-96452873D01*
X358364742Y-96452873D02*
X358445555Y-96479810D01*
X358445555Y-96479810D02*
X358580242Y-96560623D01*
X358580242Y-96560623D02*
X358661054Y-96641435D01*
X358661054Y-96641435D02*
X358741866Y-96776122D01*
X358741866Y-96776122D02*
X358768803Y-96856934D01*
X358768803Y-96856934D02*
X358768803Y-96964684D01*
X358768803Y-96964684D02*
X358714929Y-97072433D01*
X358714929Y-97072433D02*
X358661054Y-97126308D01*
X358661054Y-97126308D02*
X358553304Y-97180183D01*
X358553304Y-97180183D02*
X358499429Y-97180183D01*
X358499429Y-97180183D02*
X358310868Y-96991621D01*
X358310868Y-96991621D02*
X358418617Y-96883871D01*
X358310868Y-97476494D02*
X357745182Y-96910809D01*
X357745182Y-96910809D02*
X357529683Y-97126308D01*
X357529683Y-97126308D02*
X357502746Y-97207120D01*
X357502746Y-97207120D02*
X357502746Y-97260995D01*
X357502746Y-97260995D02*
X357529683Y-97341807D01*
X357529683Y-97341807D02*
X357610495Y-97422619D01*
X357610495Y-97422619D02*
X357691307Y-97449557D01*
X357691307Y-97449557D02*
X357745182Y-97449557D01*
X357745182Y-97449557D02*
X357825994Y-97422619D01*
X357825994Y-97422619D02*
X358041494Y-97207120D01*
X357448871Y-98338491D02*
X357772120Y-98015242D01*
X357610495Y-98176867D02*
X357044810Y-97611181D01*
X357044810Y-97611181D02*
X357179497Y-97638119D01*
X357179497Y-97638119D02*
X357287246Y-97638119D01*
X357287246Y-97638119D02*
X357368059Y-97611181D01*
X332900868Y-70444998D02*
X332927805Y-70364185D01*
X332927805Y-70364185D02*
X333008618Y-70283373D01*
X333008618Y-70283373D02*
X333116367Y-70229498D01*
X333116367Y-70229498D02*
X333224117Y-70229498D01*
X333224117Y-70229498D02*
X333304929Y-70256436D01*
X333304929Y-70256436D02*
X333439616Y-70337248D01*
X333439616Y-70337248D02*
X333520428Y-70418060D01*
X333520428Y-70418060D02*
X333601241Y-70552747D01*
X333601241Y-70552747D02*
X333628178Y-70633560D01*
X333628178Y-70633560D02*
X333628178Y-70741309D01*
X333628178Y-70741309D02*
X333574303Y-70849059D01*
X333574303Y-70849059D02*
X333520428Y-70902934D01*
X333520428Y-70902934D02*
X333412679Y-70956808D01*
X333412679Y-70956808D02*
X333358804Y-70956808D01*
X333358804Y-70956808D02*
X333170242Y-70768247D01*
X333170242Y-70768247D02*
X333277992Y-70660497D01*
X333170242Y-71253120D02*
X332604557Y-70687434D01*
X332604557Y-70687434D02*
X332389057Y-70902934D01*
X332389057Y-70902934D02*
X332362120Y-70983746D01*
X332362120Y-70983746D02*
X332362120Y-71037621D01*
X332362120Y-71037621D02*
X332389057Y-71118433D01*
X332389057Y-71118433D02*
X332469870Y-71199245D01*
X332469870Y-71199245D02*
X332550682Y-71226182D01*
X332550682Y-71226182D02*
X332604557Y-71226182D01*
X332604557Y-71226182D02*
X332685369Y-71199245D01*
X332685369Y-71199245D02*
X332900868Y-70983746D01*
X332119683Y-71280057D02*
X332065809Y-71280057D01*
X332065809Y-71280057D02*
X331984996Y-71306995D01*
X331984996Y-71306995D02*
X331850309Y-71441682D01*
X331850309Y-71441682D02*
X331823372Y-71522494D01*
X331823372Y-71522494D02*
X331823372Y-71576369D01*
X331823372Y-71576369D02*
X331850309Y-71657181D01*
X331850309Y-71657181D02*
X331904184Y-71711056D01*
X331904184Y-71711056D02*
X332011934Y-71764930D01*
X332011934Y-71764930D02*
X332658431Y-71764930D01*
X332658431Y-71764930D02*
X332308245Y-72115117D01*
X331580935Y-71818805D02*
X331527060Y-71818805D01*
X331527060Y-71818805D02*
X331446248Y-71845743D01*
X331446248Y-71845743D02*
X331311561Y-71980430D01*
X331311561Y-71980430D02*
X331284624Y-72061242D01*
X331284624Y-72061242D02*
X331284624Y-72115117D01*
X331284624Y-72115117D02*
X331311561Y-72195929D01*
X331311561Y-72195929D02*
X331365436Y-72249804D01*
X331365436Y-72249804D02*
X331473186Y-72303679D01*
X331473186Y-72303679D02*
X332119683Y-72303679D01*
X332119683Y-72303679D02*
X331769497Y-72653865D01*
X337980868Y-70444998D02*
X338007805Y-70364185D01*
X338007805Y-70364185D02*
X338088618Y-70283373D01*
X338088618Y-70283373D02*
X338196367Y-70229498D01*
X338196367Y-70229498D02*
X338304117Y-70229498D01*
X338304117Y-70229498D02*
X338384929Y-70256436D01*
X338384929Y-70256436D02*
X338519616Y-70337248D01*
X338519616Y-70337248D02*
X338600428Y-70418060D01*
X338600428Y-70418060D02*
X338681241Y-70552747D01*
X338681241Y-70552747D02*
X338708178Y-70633560D01*
X338708178Y-70633560D02*
X338708178Y-70741309D01*
X338708178Y-70741309D02*
X338654303Y-70849059D01*
X338654303Y-70849059D02*
X338600428Y-70902934D01*
X338600428Y-70902934D02*
X338492679Y-70956808D01*
X338492679Y-70956808D02*
X338438804Y-70956808D01*
X338438804Y-70956808D02*
X338250242Y-70768247D01*
X338250242Y-70768247D02*
X338357992Y-70660497D01*
X338250242Y-71253120D02*
X337684557Y-70687434D01*
X337684557Y-70687434D02*
X337469057Y-70902934D01*
X337469057Y-70902934D02*
X337442120Y-70983746D01*
X337442120Y-70983746D02*
X337442120Y-71037621D01*
X337442120Y-71037621D02*
X337469057Y-71118433D01*
X337469057Y-71118433D02*
X337549870Y-71199245D01*
X337549870Y-71199245D02*
X337630682Y-71226182D01*
X337630682Y-71226182D02*
X337684557Y-71226182D01*
X337684557Y-71226182D02*
X337765369Y-71199245D01*
X337765369Y-71199245D02*
X337980868Y-70983746D01*
X337199683Y-71280057D02*
X337145809Y-71280057D01*
X337145809Y-71280057D02*
X337064996Y-71306995D01*
X337064996Y-71306995D02*
X336930309Y-71441682D01*
X336930309Y-71441682D02*
X336903372Y-71522494D01*
X336903372Y-71522494D02*
X336903372Y-71576369D01*
X336903372Y-71576369D02*
X336930309Y-71657181D01*
X336930309Y-71657181D02*
X336984184Y-71711056D01*
X336984184Y-71711056D02*
X337091934Y-71764930D01*
X337091934Y-71764930D02*
X337738431Y-71764930D01*
X337738431Y-71764930D02*
X337388245Y-72115117D01*
X336337686Y-72034305D02*
X336445436Y-71926555D01*
X336445436Y-71926555D02*
X336526248Y-71899618D01*
X336526248Y-71899618D02*
X336580123Y-71899618D01*
X336580123Y-71899618D02*
X336714810Y-71926555D01*
X336714810Y-71926555D02*
X336849497Y-72007367D01*
X336849497Y-72007367D02*
X337064996Y-72222866D01*
X337064996Y-72222866D02*
X337091934Y-72303679D01*
X337091934Y-72303679D02*
X337091934Y-72357553D01*
X337091934Y-72357553D02*
X337064996Y-72438366D01*
X337064996Y-72438366D02*
X336957247Y-72546115D01*
X336957247Y-72546115D02*
X336876434Y-72573053D01*
X336876434Y-72573053D02*
X336822560Y-72573053D01*
X336822560Y-72573053D02*
X336741747Y-72546115D01*
X336741747Y-72546115D02*
X336607060Y-72411428D01*
X336607060Y-72411428D02*
X336580123Y-72330616D01*
X336580123Y-72330616D02*
X336580123Y-72276741D01*
X336580123Y-72276741D02*
X336607060Y-72195929D01*
X336607060Y-72195929D02*
X336714810Y-72088179D01*
X336714810Y-72088179D02*
X336795622Y-72061242D01*
X336795622Y-72061242D02*
X336849497Y-72061242D01*
X336849497Y-72061242D02*
X336930309Y-72088179D01*
X335723710Y-71293651D02*
X335642898Y-70835716D01*
X336046959Y-70970403D02*
X335481274Y-70404717D01*
X335481274Y-70404717D02*
X335265775Y-70620216D01*
X335265775Y-70620216D02*
X335238837Y-70701029D01*
X335238837Y-70701029D02*
X335238837Y-70754903D01*
X335238837Y-70754903D02*
X335265775Y-70835716D01*
X335265775Y-70835716D02*
X335346587Y-70916528D01*
X335346587Y-70916528D02*
X335427399Y-70943465D01*
X335427399Y-70943465D02*
X335481274Y-70943465D01*
X335481274Y-70943465D02*
X335562086Y-70916528D01*
X335562086Y-70916528D02*
X335777585Y-70701029D01*
X334915588Y-70970403D02*
X335373524Y-71428338D01*
X335373524Y-71428338D02*
X335400462Y-71509151D01*
X335400462Y-71509151D02*
X335400462Y-71563025D01*
X335400462Y-71563025D02*
X335373524Y-71643838D01*
X335373524Y-71643838D02*
X335265775Y-71751587D01*
X335265775Y-71751587D02*
X335184962Y-71778525D01*
X335184962Y-71778525D02*
X335131088Y-71778525D01*
X335131088Y-71778525D02*
X335050275Y-71751587D01*
X335050275Y-71751587D02*
X334592340Y-71293651D01*
X334888651Y-72128711D02*
X334322966Y-71563025D01*
X334322966Y-71563025D02*
X334565402Y-72451959D01*
X334565402Y-72451959D02*
X333999717Y-71886274D01*
X345331494Y-96568372D02*
X345358431Y-96487560D01*
X345358431Y-96487560D02*
X345439243Y-96406748D01*
X345439243Y-96406748D02*
X345546993Y-96352873D01*
X345546993Y-96352873D02*
X345654742Y-96352873D01*
X345654742Y-96352873D02*
X345735555Y-96379810D01*
X345735555Y-96379810D02*
X345870242Y-96460623D01*
X345870242Y-96460623D02*
X345951054Y-96541435D01*
X345951054Y-96541435D02*
X346031866Y-96676122D01*
X346031866Y-96676122D02*
X346058803Y-96756934D01*
X346058803Y-96756934D02*
X346058803Y-96864684D01*
X346058803Y-96864684D02*
X346004929Y-96972433D01*
X346004929Y-96972433D02*
X345951054Y-97026308D01*
X345951054Y-97026308D02*
X345843304Y-97080183D01*
X345843304Y-97080183D02*
X345789429Y-97080183D01*
X345789429Y-97080183D02*
X345600868Y-96891621D01*
X345600868Y-96891621D02*
X345708617Y-96783871D01*
X345600868Y-97376494D02*
X345035182Y-96810809D01*
X345035182Y-96810809D02*
X344819683Y-97026308D01*
X344819683Y-97026308D02*
X344792746Y-97107120D01*
X344792746Y-97107120D02*
X344792746Y-97160995D01*
X344792746Y-97160995D02*
X344819683Y-97241807D01*
X344819683Y-97241807D02*
X344900495Y-97322619D01*
X344900495Y-97322619D02*
X344981307Y-97349557D01*
X344981307Y-97349557D02*
X345035182Y-97349557D01*
X345035182Y-97349557D02*
X345115994Y-97322619D01*
X345115994Y-97322619D02*
X345331494Y-97107120D01*
X344200123Y-97645868D02*
X344469497Y-97376494D01*
X344469497Y-97376494D02*
X344765808Y-97618931D01*
X344765808Y-97618931D02*
X344711933Y-97618931D01*
X344711933Y-97618931D02*
X344631121Y-97645868D01*
X344631121Y-97645868D02*
X344496434Y-97780555D01*
X344496434Y-97780555D02*
X344469497Y-97861367D01*
X344469497Y-97861367D02*
X344469497Y-97915242D01*
X344469497Y-97915242D02*
X344496434Y-97996054D01*
X344496434Y-97996054D02*
X344631121Y-98130741D01*
X344631121Y-98130741D02*
X344711933Y-98157679D01*
X344711933Y-98157679D02*
X344765808Y-98157679D01*
X344765808Y-98157679D02*
X344846620Y-98130741D01*
X344846620Y-98130741D02*
X344981307Y-97996054D01*
X344981307Y-97996054D02*
X345008245Y-97915242D01*
X345008245Y-97915242D02*
X345008245Y-97861367D01*
X325280868Y-70444998D02*
X325307805Y-70364185D01*
X325307805Y-70364185D02*
X325388618Y-70283373D01*
X325388618Y-70283373D02*
X325496367Y-70229498D01*
X325496367Y-70229498D02*
X325604117Y-70229498D01*
X325604117Y-70229498D02*
X325684929Y-70256436D01*
X325684929Y-70256436D02*
X325819616Y-70337248D01*
X325819616Y-70337248D02*
X325900428Y-70418060D01*
X325900428Y-70418060D02*
X325981241Y-70552747D01*
X325981241Y-70552747D02*
X326008178Y-70633560D01*
X326008178Y-70633560D02*
X326008178Y-70741309D01*
X326008178Y-70741309D02*
X325954303Y-70849059D01*
X325954303Y-70849059D02*
X325900428Y-70902934D01*
X325900428Y-70902934D02*
X325792679Y-70956808D01*
X325792679Y-70956808D02*
X325738804Y-70956808D01*
X325738804Y-70956808D02*
X325550242Y-70768247D01*
X325550242Y-70768247D02*
X325657992Y-70660497D01*
X325550242Y-71253120D02*
X324984557Y-70687434D01*
X324984557Y-70687434D02*
X324769057Y-70902934D01*
X324769057Y-70902934D02*
X324742120Y-70983746D01*
X324742120Y-70983746D02*
X324742120Y-71037621D01*
X324742120Y-71037621D02*
X324769057Y-71118433D01*
X324769057Y-71118433D02*
X324849870Y-71199245D01*
X324849870Y-71199245D02*
X324930682Y-71226182D01*
X324930682Y-71226182D02*
X324984557Y-71226182D01*
X324984557Y-71226182D02*
X325065369Y-71199245D01*
X325065369Y-71199245D02*
X325280868Y-70983746D01*
X324499683Y-71280057D02*
X324445809Y-71280057D01*
X324445809Y-71280057D02*
X324364996Y-71306995D01*
X324364996Y-71306995D02*
X324230309Y-71441682D01*
X324230309Y-71441682D02*
X324203372Y-71522494D01*
X324203372Y-71522494D02*
X324203372Y-71576369D01*
X324203372Y-71576369D02*
X324230309Y-71657181D01*
X324230309Y-71657181D02*
X324284184Y-71711056D01*
X324284184Y-71711056D02*
X324391934Y-71764930D01*
X324391934Y-71764930D02*
X325038431Y-71764930D01*
X325038431Y-71764930D02*
X324688245Y-72115117D01*
X323772373Y-71899618D02*
X323718499Y-71953492D01*
X323718499Y-71953492D02*
X323691561Y-72034305D01*
X323691561Y-72034305D02*
X323691561Y-72088179D01*
X323691561Y-72088179D02*
X323718499Y-72168992D01*
X323718499Y-72168992D02*
X323799311Y-72303679D01*
X323799311Y-72303679D02*
X323933998Y-72438366D01*
X323933998Y-72438366D02*
X324068685Y-72519178D01*
X324068685Y-72519178D02*
X324149497Y-72546115D01*
X324149497Y-72546115D02*
X324203372Y-72546115D01*
X324203372Y-72546115D02*
X324284184Y-72519178D01*
X324284184Y-72519178D02*
X324338059Y-72465303D01*
X324338059Y-72465303D02*
X324364996Y-72384491D01*
X324364996Y-72384491D02*
X324364996Y-72330616D01*
X324364996Y-72330616D02*
X324338059Y-72249804D01*
X324338059Y-72249804D02*
X324257247Y-72115117D01*
X324257247Y-72115117D02*
X324122560Y-71980430D01*
X324122560Y-71980430D02*
X323987873Y-71899618D01*
X323987873Y-71899618D02*
X323907060Y-71872680D01*
X323907060Y-71872680D02*
X323853186Y-71872680D01*
X323853186Y-71872680D02*
X323772373Y-71899618D01*
X352951494Y-96668372D02*
X352978431Y-96587560D01*
X352978431Y-96587560D02*
X353059243Y-96506748D01*
X353059243Y-96506748D02*
X353166993Y-96452873D01*
X353166993Y-96452873D02*
X353274742Y-96452873D01*
X353274742Y-96452873D02*
X353355555Y-96479810D01*
X353355555Y-96479810D02*
X353490242Y-96560623D01*
X353490242Y-96560623D02*
X353571054Y-96641435D01*
X353571054Y-96641435D02*
X353651866Y-96776122D01*
X353651866Y-96776122D02*
X353678803Y-96856934D01*
X353678803Y-96856934D02*
X353678803Y-96964684D01*
X353678803Y-96964684D02*
X353624929Y-97072433D01*
X353624929Y-97072433D02*
X353571054Y-97126308D01*
X353571054Y-97126308D02*
X353463304Y-97180183D01*
X353463304Y-97180183D02*
X353409429Y-97180183D01*
X353409429Y-97180183D02*
X353220868Y-96991621D01*
X353220868Y-96991621D02*
X353328617Y-96883871D01*
X353220868Y-97476494D02*
X352655182Y-96910809D01*
X352655182Y-96910809D02*
X352439683Y-97126308D01*
X352439683Y-97126308D02*
X352412746Y-97207120D01*
X352412746Y-97207120D02*
X352412746Y-97260995D01*
X352412746Y-97260995D02*
X352439683Y-97341807D01*
X352439683Y-97341807D02*
X352520495Y-97422619D01*
X352520495Y-97422619D02*
X352601307Y-97449557D01*
X352601307Y-97449557D02*
X352655182Y-97449557D01*
X352655182Y-97449557D02*
X352735994Y-97422619D01*
X352735994Y-97422619D02*
X352951494Y-97207120D01*
X352170309Y-97503432D02*
X352116434Y-97503432D01*
X352116434Y-97503432D02*
X352035622Y-97530369D01*
X352035622Y-97530369D02*
X351900935Y-97665056D01*
X351900935Y-97665056D02*
X351873998Y-97745868D01*
X351873998Y-97745868D02*
X351873998Y-97799743D01*
X351873998Y-97799743D02*
X351900935Y-97880555D01*
X351900935Y-97880555D02*
X351954810Y-97934430D01*
X351954810Y-97934430D02*
X352062559Y-97988305D01*
X352062559Y-97988305D02*
X352709057Y-97988305D01*
X352709057Y-97988305D02*
X352358871Y-98338491D01*
X337741494Y-96468372D02*
X337768431Y-96387560D01*
X337768431Y-96387560D02*
X337849243Y-96306748D01*
X337849243Y-96306748D02*
X337956993Y-96252873D01*
X337956993Y-96252873D02*
X338064742Y-96252873D01*
X338064742Y-96252873D02*
X338145555Y-96279810D01*
X338145555Y-96279810D02*
X338280242Y-96360623D01*
X338280242Y-96360623D02*
X338361054Y-96441435D01*
X338361054Y-96441435D02*
X338441866Y-96576122D01*
X338441866Y-96576122D02*
X338468803Y-96656934D01*
X338468803Y-96656934D02*
X338468803Y-96764684D01*
X338468803Y-96764684D02*
X338414929Y-96872433D01*
X338414929Y-96872433D02*
X338361054Y-96926308D01*
X338361054Y-96926308D02*
X338253304Y-96980183D01*
X338253304Y-96980183D02*
X338199429Y-96980183D01*
X338199429Y-96980183D02*
X338010868Y-96791621D01*
X338010868Y-96791621D02*
X338118617Y-96683871D01*
X338010868Y-97276494D02*
X337445182Y-96710809D01*
X337445182Y-96710809D02*
X337229683Y-96926308D01*
X337229683Y-96926308D02*
X337202746Y-97007120D01*
X337202746Y-97007120D02*
X337202746Y-97060995D01*
X337202746Y-97060995D02*
X337229683Y-97141807D01*
X337229683Y-97141807D02*
X337310495Y-97222619D01*
X337310495Y-97222619D02*
X337391307Y-97249557D01*
X337391307Y-97249557D02*
X337445182Y-97249557D01*
X337445182Y-97249557D02*
X337525994Y-97222619D01*
X337525994Y-97222619D02*
X337741494Y-97007120D01*
X336933372Y-97222619D02*
X336556248Y-97599743D01*
X336556248Y-97599743D02*
X337364370Y-97922992D01*
X340510868Y-70444998D02*
X340537805Y-70364185D01*
X340537805Y-70364185D02*
X340618618Y-70283373D01*
X340618618Y-70283373D02*
X340726367Y-70229498D01*
X340726367Y-70229498D02*
X340834117Y-70229498D01*
X340834117Y-70229498D02*
X340914929Y-70256436D01*
X340914929Y-70256436D02*
X341049616Y-70337248D01*
X341049616Y-70337248D02*
X341130428Y-70418060D01*
X341130428Y-70418060D02*
X341211241Y-70552747D01*
X341211241Y-70552747D02*
X341238178Y-70633560D01*
X341238178Y-70633560D02*
X341238178Y-70741309D01*
X341238178Y-70741309D02*
X341184303Y-70849059D01*
X341184303Y-70849059D02*
X341130428Y-70902934D01*
X341130428Y-70902934D02*
X341022679Y-70956808D01*
X341022679Y-70956808D02*
X340968804Y-70956808D01*
X340968804Y-70956808D02*
X340780242Y-70768247D01*
X340780242Y-70768247D02*
X340887992Y-70660497D01*
X340780242Y-71253120D02*
X340214557Y-70687434D01*
X340214557Y-70687434D02*
X339999057Y-70902934D01*
X339999057Y-70902934D02*
X339972120Y-70983746D01*
X339972120Y-70983746D02*
X339972120Y-71037621D01*
X339972120Y-71037621D02*
X339999057Y-71118433D01*
X339999057Y-71118433D02*
X340079870Y-71199245D01*
X340079870Y-71199245D02*
X340160682Y-71226182D01*
X340160682Y-71226182D02*
X340214557Y-71226182D01*
X340214557Y-71226182D02*
X340295369Y-71199245D01*
X340295369Y-71199245D02*
X340510868Y-70983746D01*
X339729683Y-71280057D02*
X339675809Y-71280057D01*
X339675809Y-71280057D02*
X339594996Y-71306995D01*
X339594996Y-71306995D02*
X339460309Y-71441682D01*
X339460309Y-71441682D02*
X339433372Y-71522494D01*
X339433372Y-71522494D02*
X339433372Y-71576369D01*
X339433372Y-71576369D02*
X339460309Y-71657181D01*
X339460309Y-71657181D02*
X339514184Y-71711056D01*
X339514184Y-71711056D02*
X339621934Y-71764930D01*
X339621934Y-71764930D02*
X340268431Y-71764930D01*
X340268431Y-71764930D02*
X339918245Y-72115117D01*
X339163998Y-71737993D02*
X338786874Y-72115117D01*
X338786874Y-72115117D02*
X339594996Y-72438366D01*
X360571494Y-96568372D02*
X360598431Y-96487560D01*
X360598431Y-96487560D02*
X360679243Y-96406748D01*
X360679243Y-96406748D02*
X360786993Y-96352873D01*
X360786993Y-96352873D02*
X360894742Y-96352873D01*
X360894742Y-96352873D02*
X360975555Y-96379810D01*
X360975555Y-96379810D02*
X361110242Y-96460623D01*
X361110242Y-96460623D02*
X361191054Y-96541435D01*
X361191054Y-96541435D02*
X361271866Y-96676122D01*
X361271866Y-96676122D02*
X361298803Y-96756934D01*
X361298803Y-96756934D02*
X361298803Y-96864684D01*
X361298803Y-96864684D02*
X361244929Y-96972433D01*
X361244929Y-96972433D02*
X361191054Y-97026308D01*
X361191054Y-97026308D02*
X361083304Y-97080183D01*
X361083304Y-97080183D02*
X361029429Y-97080183D01*
X361029429Y-97080183D02*
X360840868Y-96891621D01*
X360840868Y-96891621D02*
X360948617Y-96783871D01*
X360840868Y-97376494D02*
X360275182Y-96810809D01*
X360275182Y-96810809D02*
X360059683Y-97026308D01*
X360059683Y-97026308D02*
X360032746Y-97107120D01*
X360032746Y-97107120D02*
X360032746Y-97160995D01*
X360032746Y-97160995D02*
X360059683Y-97241807D01*
X360059683Y-97241807D02*
X360140495Y-97322619D01*
X360140495Y-97322619D02*
X360221307Y-97349557D01*
X360221307Y-97349557D02*
X360275182Y-97349557D01*
X360275182Y-97349557D02*
X360355994Y-97322619D01*
X360355994Y-97322619D02*
X360571494Y-97107120D01*
X359601747Y-97484244D02*
X359547872Y-97538119D01*
X359547872Y-97538119D02*
X359520935Y-97618931D01*
X359520935Y-97618931D02*
X359520935Y-97672806D01*
X359520935Y-97672806D02*
X359547872Y-97753618D01*
X359547872Y-97753618D02*
X359628685Y-97888305D01*
X359628685Y-97888305D02*
X359763372Y-98022992D01*
X359763372Y-98022992D02*
X359898059Y-98103804D01*
X359898059Y-98103804D02*
X359978871Y-98130741D01*
X359978871Y-98130741D02*
X360032746Y-98130741D01*
X360032746Y-98130741D02*
X360113558Y-98103804D01*
X360113558Y-98103804D02*
X360167433Y-98049929D01*
X360167433Y-98049929D02*
X360194370Y-97969117D01*
X360194370Y-97969117D02*
X360194370Y-97915242D01*
X360194370Y-97915242D02*
X360167433Y-97834430D01*
X360167433Y-97834430D02*
X360086620Y-97699743D01*
X360086620Y-97699743D02*
X359951933Y-97565056D01*
X359951933Y-97565056D02*
X359817246Y-97484244D01*
X359817246Y-97484244D02*
X359736434Y-97457306D01*
X359736434Y-97457306D02*
X359682559Y-97457306D01*
X359682559Y-97457306D02*
X359601747Y-97484244D01*
X310444200Y-88345475D02*
X310482295Y-88459761D01*
X310482295Y-88459761D02*
X310482295Y-88650237D01*
X310482295Y-88650237D02*
X310444200Y-88726428D01*
X310444200Y-88726428D02*
X310406104Y-88764523D01*
X310406104Y-88764523D02*
X310329914Y-88802618D01*
X310329914Y-88802618D02*
X310253723Y-88802618D01*
X310253723Y-88802618D02*
X310177533Y-88764523D01*
X310177533Y-88764523D02*
X310139438Y-88726428D01*
X310139438Y-88726428D02*
X310101342Y-88650237D01*
X310101342Y-88650237D02*
X310063247Y-88497856D01*
X310063247Y-88497856D02*
X310025152Y-88421666D01*
X310025152Y-88421666D02*
X309987057Y-88383571D01*
X309987057Y-88383571D02*
X309910866Y-88345475D01*
X309910866Y-88345475D02*
X309834676Y-88345475D01*
X309834676Y-88345475D02*
X309758485Y-88383571D01*
X309758485Y-88383571D02*
X309720390Y-88421666D01*
X309720390Y-88421666D02*
X309682295Y-88497856D01*
X309682295Y-88497856D02*
X309682295Y-88688333D01*
X309682295Y-88688333D02*
X309720390Y-88802618D01*
X309682295Y-89069285D02*
X310482295Y-89259761D01*
X310482295Y-89259761D02*
X309910866Y-89412142D01*
X309910866Y-89412142D02*
X310482295Y-89564523D01*
X310482295Y-89564523D02*
X309682295Y-89755000D01*
X310406104Y-90516905D02*
X310444200Y-90478809D01*
X310444200Y-90478809D02*
X310482295Y-90364524D01*
X310482295Y-90364524D02*
X310482295Y-90288333D01*
X310482295Y-90288333D02*
X310444200Y-90174047D01*
X310444200Y-90174047D02*
X310368009Y-90097857D01*
X310368009Y-90097857D02*
X310291819Y-90059762D01*
X310291819Y-90059762D02*
X310139438Y-90021666D01*
X310139438Y-90021666D02*
X310025152Y-90021666D01*
X310025152Y-90021666D02*
X309872771Y-90059762D01*
X309872771Y-90059762D02*
X309796580Y-90097857D01*
X309796580Y-90097857D02*
X309720390Y-90174047D01*
X309720390Y-90174047D02*
X309682295Y-90288333D01*
X309682295Y-90288333D02*
X309682295Y-90364524D01*
X309682295Y-90364524D02*
X309720390Y-90478809D01*
X309720390Y-90478809D02*
X309758485Y-90516905D01*
X310482295Y-91240714D02*
X310482295Y-90859762D01*
X310482295Y-90859762D02*
X309682295Y-90859762D01*
X310482295Y-91507381D02*
X309682295Y-91507381D01*
X310482295Y-91964524D02*
X310025152Y-91621666D01*
X309682295Y-91964524D02*
X310139438Y-91507381D01*
X327820868Y-96552998D02*
X327847805Y-96472185D01*
X327847805Y-96472185D02*
X327928618Y-96391373D01*
X327928618Y-96391373D02*
X328036367Y-96337498D01*
X328036367Y-96337498D02*
X328144117Y-96337498D01*
X328144117Y-96337498D02*
X328224929Y-96364436D01*
X328224929Y-96364436D02*
X328359616Y-96445248D01*
X328359616Y-96445248D02*
X328440428Y-96526060D01*
X328440428Y-96526060D02*
X328521241Y-96660747D01*
X328521241Y-96660747D02*
X328548178Y-96741560D01*
X328548178Y-96741560D02*
X328548178Y-96849309D01*
X328548178Y-96849309D02*
X328494303Y-96957059D01*
X328494303Y-96957059D02*
X328440428Y-97010934D01*
X328440428Y-97010934D02*
X328332679Y-97064808D01*
X328332679Y-97064808D02*
X328278804Y-97064808D01*
X328278804Y-97064808D02*
X328090242Y-96876247D01*
X328090242Y-96876247D02*
X328197992Y-96768497D01*
X328090242Y-97361120D02*
X327524557Y-96795434D01*
X327524557Y-96795434D02*
X327309057Y-97010934D01*
X327309057Y-97010934D02*
X327282120Y-97091746D01*
X327282120Y-97091746D02*
X327282120Y-97145621D01*
X327282120Y-97145621D02*
X327309057Y-97226433D01*
X327309057Y-97226433D02*
X327389870Y-97307245D01*
X327389870Y-97307245D02*
X327470682Y-97334182D01*
X327470682Y-97334182D02*
X327524557Y-97334182D01*
X327524557Y-97334182D02*
X327605369Y-97307245D01*
X327605369Y-97307245D02*
X327820868Y-97091746D01*
X327228245Y-98223117D02*
X327551494Y-97899868D01*
X327389870Y-98061492D02*
X326824184Y-97495807D01*
X326824184Y-97495807D02*
X326958871Y-97522744D01*
X326958871Y-97522744D02*
X327066621Y-97522744D01*
X327066621Y-97522744D02*
X327147433Y-97495807D01*
X326312373Y-98007618D02*
X326258499Y-98061492D01*
X326258499Y-98061492D02*
X326231561Y-98142305D01*
X326231561Y-98142305D02*
X326231561Y-98196179D01*
X326231561Y-98196179D02*
X326258499Y-98276992D01*
X326258499Y-98276992D02*
X326339311Y-98411679D01*
X326339311Y-98411679D02*
X326473998Y-98546366D01*
X326473998Y-98546366D02*
X326608685Y-98627178D01*
X326608685Y-98627178D02*
X326689497Y-98654115D01*
X326689497Y-98654115D02*
X326743372Y-98654115D01*
X326743372Y-98654115D02*
X326824184Y-98627178D01*
X326824184Y-98627178D02*
X326878059Y-98573303D01*
X326878059Y-98573303D02*
X326904996Y-98492491D01*
X326904996Y-98492491D02*
X326904996Y-98438616D01*
X326904996Y-98438616D02*
X326878059Y-98357804D01*
X326878059Y-98357804D02*
X326797247Y-98223117D01*
X326797247Y-98223117D02*
X326662560Y-98088430D01*
X326662560Y-98088430D02*
X326527873Y-98007618D01*
X326527873Y-98007618D02*
X326447060Y-97980680D01*
X326447060Y-97980680D02*
X326393186Y-97980680D01*
X326393186Y-97980680D02*
X326312373Y-98007618D01*
X312580868Y-96552998D02*
X312607805Y-96472185D01*
X312607805Y-96472185D02*
X312688618Y-96391373D01*
X312688618Y-96391373D02*
X312796367Y-96337498D01*
X312796367Y-96337498D02*
X312904117Y-96337498D01*
X312904117Y-96337498D02*
X312984929Y-96364436D01*
X312984929Y-96364436D02*
X313119616Y-96445248D01*
X313119616Y-96445248D02*
X313200428Y-96526060D01*
X313200428Y-96526060D02*
X313281241Y-96660747D01*
X313281241Y-96660747D02*
X313308178Y-96741560D01*
X313308178Y-96741560D02*
X313308178Y-96849309D01*
X313308178Y-96849309D02*
X313254303Y-96957059D01*
X313254303Y-96957059D02*
X313200428Y-97010934D01*
X313200428Y-97010934D02*
X313092679Y-97064808D01*
X313092679Y-97064808D02*
X313038804Y-97064808D01*
X313038804Y-97064808D02*
X312850242Y-96876247D01*
X312850242Y-96876247D02*
X312957992Y-96768497D01*
X312850242Y-97361120D02*
X312284557Y-96795434D01*
X312284557Y-96795434D02*
X312069057Y-97010934D01*
X312069057Y-97010934D02*
X312042120Y-97091746D01*
X312042120Y-97091746D02*
X312042120Y-97145621D01*
X312042120Y-97145621D02*
X312069057Y-97226433D01*
X312069057Y-97226433D02*
X312149870Y-97307245D01*
X312149870Y-97307245D02*
X312230682Y-97334182D01*
X312230682Y-97334182D02*
X312284557Y-97334182D01*
X312284557Y-97334182D02*
X312365369Y-97307245D01*
X312365369Y-97307245D02*
X312580868Y-97091746D01*
X311988245Y-98223117D02*
X312311494Y-97899868D01*
X312149870Y-98061492D02*
X311584184Y-97495807D01*
X311584184Y-97495807D02*
X311718871Y-97522744D01*
X311718871Y-97522744D02*
X311826621Y-97522744D01*
X311826621Y-97522744D02*
X311907433Y-97495807D01*
X310910749Y-98169242D02*
X311180123Y-97899868D01*
X311180123Y-97899868D02*
X311476434Y-98142305D01*
X311476434Y-98142305D02*
X311422560Y-98142305D01*
X311422560Y-98142305D02*
X311341747Y-98169242D01*
X311341747Y-98169242D02*
X311207060Y-98303929D01*
X311207060Y-98303929D02*
X311180123Y-98384741D01*
X311180123Y-98384741D02*
X311180123Y-98438616D01*
X311180123Y-98438616D02*
X311207060Y-98519428D01*
X311207060Y-98519428D02*
X311341747Y-98654115D01*
X311341747Y-98654115D02*
X311422560Y-98681053D01*
X311422560Y-98681053D02*
X311476434Y-98681053D01*
X311476434Y-98681053D02*
X311557247Y-98654115D01*
X311557247Y-98654115D02*
X311691934Y-98519428D01*
X311691934Y-98519428D02*
X311718871Y-98438616D01*
X311718871Y-98438616D02*
X311718871Y-98384741D01*
X350854049Y-68610064D02*
X350584675Y-68879438D01*
X351069549Y-68717813D02*
X350315301Y-68340690D01*
X350315301Y-68340690D02*
X350692425Y-69094937D01*
X350503863Y-69283499D02*
X349938178Y-68717813D01*
X349938178Y-68717813D02*
X349803491Y-68852500D01*
X349803491Y-68852500D02*
X349749616Y-68960250D01*
X349749616Y-68960250D02*
X349749616Y-69067999D01*
X349749616Y-69067999D02*
X349776553Y-69148812D01*
X349776553Y-69148812D02*
X349857366Y-69283499D01*
X349857366Y-69283499D02*
X349938178Y-69364311D01*
X349938178Y-69364311D02*
X350072865Y-69445123D01*
X350072865Y-69445123D02*
X350153677Y-69472060D01*
X350153677Y-69472060D02*
X350261427Y-69472060D01*
X350261427Y-69472060D02*
X350369176Y-69418186D01*
X350369176Y-69418186D02*
X350503863Y-69283499D01*
X349561054Y-70118558D02*
X349614929Y-70118558D01*
X349614929Y-70118558D02*
X349722679Y-70064683D01*
X349722679Y-70064683D02*
X349776553Y-70010808D01*
X349776553Y-70010808D02*
X349830428Y-69903059D01*
X349830428Y-69903059D02*
X349830428Y-69795309D01*
X349830428Y-69795309D02*
X349803491Y-69714497D01*
X349803491Y-69714497D02*
X349722679Y-69579810D01*
X349722679Y-69579810D02*
X349641866Y-69498998D01*
X349641866Y-69498998D02*
X349507179Y-69418186D01*
X349507179Y-69418186D02*
X349426367Y-69391248D01*
X349426367Y-69391248D02*
X349318618Y-69391248D01*
X349318618Y-69391248D02*
X349210868Y-69445123D01*
X349210868Y-69445123D02*
X349156993Y-69498998D01*
X349156993Y-69498998D02*
X349103118Y-69606747D01*
X349103118Y-69606747D02*
X349103118Y-69660622D01*
X349561054Y-70334057D02*
X349130056Y-70765056D01*
X348456621Y-70199370D02*
X348833744Y-70953618D01*
X348833744Y-70953618D02*
X348079497Y-70576494D01*
X348133372Y-71653990D02*
X348052560Y-71196054D01*
X348456621Y-71330741D02*
X347890935Y-70765056D01*
X347890935Y-70765056D02*
X347675436Y-70980555D01*
X347675436Y-70980555D02*
X347648499Y-71061367D01*
X347648499Y-71061367D02*
X347648499Y-71115242D01*
X347648499Y-71115242D02*
X347675436Y-71196054D01*
X347675436Y-71196054D02*
X347756248Y-71276866D01*
X347756248Y-71276866D02*
X347837061Y-71303804D01*
X347837061Y-71303804D02*
X347890935Y-71303804D01*
X347890935Y-71303804D02*
X347971748Y-71276866D01*
X347971748Y-71276866D02*
X348187247Y-71061367D01*
X347594624Y-71600115D02*
X347406062Y-71788677D01*
X347621561Y-72165800D02*
X347890935Y-71896426D01*
X347890935Y-71896426D02*
X347325250Y-71330741D01*
X347325250Y-71330741D02*
X347055876Y-71600115D01*
X346894251Y-72300488D02*
X347082813Y-72111926D01*
X347379125Y-72408237D02*
X346813439Y-71842552D01*
X346813439Y-71842552D02*
X346544065Y-72111926D01*
X340251494Y-96568372D02*
X340278431Y-96487560D01*
X340278431Y-96487560D02*
X340359243Y-96406748D01*
X340359243Y-96406748D02*
X340466993Y-96352873D01*
X340466993Y-96352873D02*
X340574742Y-96352873D01*
X340574742Y-96352873D02*
X340655555Y-96379810D01*
X340655555Y-96379810D02*
X340790242Y-96460623D01*
X340790242Y-96460623D02*
X340871054Y-96541435D01*
X340871054Y-96541435D02*
X340951866Y-96676122D01*
X340951866Y-96676122D02*
X340978803Y-96756934D01*
X340978803Y-96756934D02*
X340978803Y-96864684D01*
X340978803Y-96864684D02*
X340924929Y-96972433D01*
X340924929Y-96972433D02*
X340871054Y-97026308D01*
X340871054Y-97026308D02*
X340763304Y-97080183D01*
X340763304Y-97080183D02*
X340709429Y-97080183D01*
X340709429Y-97080183D02*
X340520868Y-96891621D01*
X340520868Y-96891621D02*
X340628617Y-96783871D01*
X340520868Y-97376494D02*
X339955182Y-96810809D01*
X339955182Y-96810809D02*
X339739683Y-97026308D01*
X339739683Y-97026308D02*
X339712746Y-97107120D01*
X339712746Y-97107120D02*
X339712746Y-97160995D01*
X339712746Y-97160995D02*
X339739683Y-97241807D01*
X339739683Y-97241807D02*
X339820495Y-97322619D01*
X339820495Y-97322619D02*
X339901307Y-97349557D01*
X339901307Y-97349557D02*
X339955182Y-97349557D01*
X339955182Y-97349557D02*
X340035994Y-97322619D01*
X340035994Y-97322619D02*
X340251494Y-97107120D01*
X339147060Y-97618931D02*
X339254810Y-97511181D01*
X339254810Y-97511181D02*
X339335622Y-97484244D01*
X339335622Y-97484244D02*
X339389497Y-97484244D01*
X339389497Y-97484244D02*
X339524184Y-97511181D01*
X339524184Y-97511181D02*
X339658871Y-97591993D01*
X339658871Y-97591993D02*
X339874370Y-97807493D01*
X339874370Y-97807493D02*
X339901307Y-97888305D01*
X339901307Y-97888305D02*
X339901307Y-97942180D01*
X339901307Y-97942180D02*
X339874370Y-98022992D01*
X339874370Y-98022992D02*
X339766620Y-98130741D01*
X339766620Y-98130741D02*
X339685808Y-98157679D01*
X339685808Y-98157679D02*
X339631933Y-98157679D01*
X339631933Y-98157679D02*
X339551121Y-98130741D01*
X339551121Y-98130741D02*
X339416434Y-97996054D01*
X339416434Y-97996054D02*
X339389497Y-97915242D01*
X339389497Y-97915242D02*
X339389497Y-97861367D01*
X339389497Y-97861367D02*
X339416434Y-97780555D01*
X339416434Y-97780555D02*
X339524184Y-97672806D01*
X339524184Y-97672806D02*
X339604996Y-97645868D01*
X339604996Y-97645868D02*
X339658871Y-97645868D01*
X339658871Y-97645868D02*
X339739683Y-97672806D01*
X335171494Y-96568372D02*
X335198431Y-96487560D01*
X335198431Y-96487560D02*
X335279243Y-96406748D01*
X335279243Y-96406748D02*
X335386993Y-96352873D01*
X335386993Y-96352873D02*
X335494742Y-96352873D01*
X335494742Y-96352873D02*
X335575555Y-96379810D01*
X335575555Y-96379810D02*
X335710242Y-96460623D01*
X335710242Y-96460623D02*
X335791054Y-96541435D01*
X335791054Y-96541435D02*
X335871866Y-96676122D01*
X335871866Y-96676122D02*
X335898803Y-96756934D01*
X335898803Y-96756934D02*
X335898803Y-96864684D01*
X335898803Y-96864684D02*
X335844929Y-96972433D01*
X335844929Y-96972433D02*
X335791054Y-97026308D01*
X335791054Y-97026308D02*
X335683304Y-97080183D01*
X335683304Y-97080183D02*
X335629429Y-97080183D01*
X335629429Y-97080183D02*
X335440868Y-96891621D01*
X335440868Y-96891621D02*
X335548617Y-96783871D01*
X335440868Y-97376494D02*
X334875182Y-96810809D01*
X334875182Y-96810809D02*
X334659683Y-97026308D01*
X334659683Y-97026308D02*
X334632746Y-97107120D01*
X334632746Y-97107120D02*
X334632746Y-97160995D01*
X334632746Y-97160995D02*
X334659683Y-97241807D01*
X334659683Y-97241807D02*
X334740495Y-97322619D01*
X334740495Y-97322619D02*
X334821307Y-97349557D01*
X334821307Y-97349557D02*
X334875182Y-97349557D01*
X334875182Y-97349557D02*
X334955994Y-97322619D01*
X334955994Y-97322619D02*
X335171494Y-97107120D01*
X334471121Y-97699743D02*
X334498059Y-97618931D01*
X334498059Y-97618931D02*
X334498059Y-97565056D01*
X334498059Y-97565056D02*
X334471121Y-97484244D01*
X334471121Y-97484244D02*
X334444184Y-97457306D01*
X334444184Y-97457306D02*
X334363372Y-97430369D01*
X334363372Y-97430369D02*
X334309497Y-97430369D01*
X334309497Y-97430369D02*
X334228685Y-97457306D01*
X334228685Y-97457306D02*
X334120935Y-97565056D01*
X334120935Y-97565056D02*
X334093998Y-97645868D01*
X334093998Y-97645868D02*
X334093998Y-97699743D01*
X334093998Y-97699743D02*
X334120935Y-97780555D01*
X334120935Y-97780555D02*
X334147872Y-97807493D01*
X334147872Y-97807493D02*
X334228685Y-97834430D01*
X334228685Y-97834430D02*
X334282559Y-97834430D01*
X334282559Y-97834430D02*
X334363372Y-97807493D01*
X334363372Y-97807493D02*
X334471121Y-97699743D01*
X334471121Y-97699743D02*
X334551933Y-97672806D01*
X334551933Y-97672806D02*
X334605808Y-97672806D01*
X334605808Y-97672806D02*
X334686620Y-97699743D01*
X334686620Y-97699743D02*
X334794370Y-97807493D01*
X334794370Y-97807493D02*
X334821307Y-97888305D01*
X334821307Y-97888305D02*
X334821307Y-97942180D01*
X334821307Y-97942180D02*
X334794370Y-98022992D01*
X334794370Y-98022992D02*
X334686620Y-98130741D01*
X334686620Y-98130741D02*
X334605808Y-98157679D01*
X334605808Y-98157679D02*
X334551933Y-98157679D01*
X334551933Y-98157679D02*
X334471121Y-98130741D01*
X334471121Y-98130741D02*
X334363372Y-98022992D01*
X334363372Y-98022992D02*
X334336434Y-97942180D01*
X334336434Y-97942180D02*
X334336434Y-97888305D01*
X334336434Y-97888305D02*
X334363372Y-97807493D01*
X332631494Y-96568372D02*
X332658431Y-96487560D01*
X332658431Y-96487560D02*
X332739243Y-96406748D01*
X332739243Y-96406748D02*
X332846993Y-96352873D01*
X332846993Y-96352873D02*
X332954742Y-96352873D01*
X332954742Y-96352873D02*
X333035555Y-96379810D01*
X333035555Y-96379810D02*
X333170242Y-96460623D01*
X333170242Y-96460623D02*
X333251054Y-96541435D01*
X333251054Y-96541435D02*
X333331866Y-96676122D01*
X333331866Y-96676122D02*
X333358803Y-96756934D01*
X333358803Y-96756934D02*
X333358803Y-96864684D01*
X333358803Y-96864684D02*
X333304929Y-96972433D01*
X333304929Y-96972433D02*
X333251054Y-97026308D01*
X333251054Y-97026308D02*
X333143304Y-97080183D01*
X333143304Y-97080183D02*
X333089429Y-97080183D01*
X333089429Y-97080183D02*
X332900868Y-96891621D01*
X332900868Y-96891621D02*
X333008617Y-96783871D01*
X332900868Y-97376494D02*
X332335182Y-96810809D01*
X332335182Y-96810809D02*
X332119683Y-97026308D01*
X332119683Y-97026308D02*
X332092746Y-97107120D01*
X332092746Y-97107120D02*
X332092746Y-97160995D01*
X332092746Y-97160995D02*
X332119683Y-97241807D01*
X332119683Y-97241807D02*
X332200495Y-97322619D01*
X332200495Y-97322619D02*
X332281307Y-97349557D01*
X332281307Y-97349557D02*
X332335182Y-97349557D01*
X332335182Y-97349557D02*
X332415994Y-97322619D01*
X332415994Y-97322619D02*
X332631494Y-97107120D01*
X332308245Y-97969117D02*
X332200495Y-98076867D01*
X332200495Y-98076867D02*
X332119683Y-98103804D01*
X332119683Y-98103804D02*
X332065808Y-98103804D01*
X332065808Y-98103804D02*
X331931121Y-98076867D01*
X331931121Y-98076867D02*
X331796434Y-97996054D01*
X331796434Y-97996054D02*
X331580935Y-97780555D01*
X331580935Y-97780555D02*
X331553998Y-97699743D01*
X331553998Y-97699743D02*
X331553998Y-97645868D01*
X331553998Y-97645868D02*
X331580935Y-97565056D01*
X331580935Y-97565056D02*
X331688685Y-97457306D01*
X331688685Y-97457306D02*
X331769497Y-97430369D01*
X331769497Y-97430369D02*
X331823372Y-97430369D01*
X331823372Y-97430369D02*
X331904184Y-97457306D01*
X331904184Y-97457306D02*
X332038871Y-97591993D01*
X332038871Y-97591993D02*
X332065808Y-97672806D01*
X332065808Y-97672806D02*
X332065808Y-97726680D01*
X332065808Y-97726680D02*
X332038871Y-97807493D01*
X332038871Y-97807493D02*
X331931121Y-97915242D01*
X331931121Y-97915242D02*
X331850309Y-97942180D01*
X331850309Y-97942180D02*
X331796434Y-97942180D01*
X331796434Y-97942180D02*
X331715622Y-97915242D01*
X354678584Y-68977407D02*
X354328398Y-69327593D01*
X354328398Y-69327593D02*
X354732459Y-69354531D01*
X354732459Y-69354531D02*
X354651646Y-69435343D01*
X354651646Y-69435343D02*
X354624709Y-69516155D01*
X354624709Y-69516155D02*
X354624709Y-69570030D01*
X354624709Y-69570030D02*
X354651646Y-69650842D01*
X354651646Y-69650842D02*
X354786333Y-69785529D01*
X354786333Y-69785529D02*
X354867146Y-69812467D01*
X354867146Y-69812467D02*
X354921020Y-69812467D01*
X354921020Y-69812467D02*
X355001833Y-69785529D01*
X355001833Y-69785529D02*
X355163457Y-69623905D01*
X355163457Y-69623905D02*
X355190394Y-69543093D01*
X355190394Y-69543093D02*
X355190394Y-69489218D01*
X354166773Y-69489218D02*
X354543897Y-70243465D01*
X354543897Y-70243465D02*
X353789649Y-69866342D01*
X353654963Y-70001028D02*
X353304776Y-70351215D01*
X353304776Y-70351215D02*
X353708837Y-70378152D01*
X353708837Y-70378152D02*
X353628025Y-70458964D01*
X353628025Y-70458964D02*
X353601088Y-70539776D01*
X353601088Y-70539776D02*
X353601088Y-70593651D01*
X353601088Y-70593651D02*
X353628025Y-70674464D01*
X353628025Y-70674464D02*
X353762712Y-70809151D01*
X353762712Y-70809151D02*
X353843524Y-70836088D01*
X353843524Y-70836088D02*
X353897399Y-70836088D01*
X353897399Y-70836088D02*
X353978211Y-70809151D01*
X353978211Y-70809151D02*
X354139836Y-70647526D01*
X354139836Y-70647526D02*
X354166773Y-70566714D01*
X354166773Y-70566714D02*
X354166773Y-70512839D01*
X353816587Y-71078525D02*
X353385588Y-71509523D01*
X352900715Y-71294024D02*
X352712153Y-71482586D01*
X352927652Y-71859709D02*
X353197026Y-71590335D01*
X353197026Y-71590335D02*
X352631341Y-71024650D01*
X352631341Y-71024650D02*
X352361967Y-71294024D01*
X352685215Y-72102146D02*
X352119530Y-71536461D01*
X352119530Y-71536461D02*
X352361967Y-72425395D01*
X352361967Y-72425395D02*
X351796281Y-71859710D01*
D15*
%TO.C,U1*%
X310820000Y-73955000D02*
X310820000Y-80755000D01*
X310820000Y-83355000D02*
X310820000Y-82955000D01*
X310820000Y-85955000D02*
X310820000Y-85555000D01*
X310820000Y-88155000D02*
X310820000Y-94955000D01*
X313620000Y-73955000D02*
X313220000Y-73955000D01*
X313620000Y-94955000D02*
X313220000Y-94955000D01*
X316220000Y-73955000D02*
X315820000Y-73955000D01*
X316220000Y-94955000D02*
X315820000Y-94955000D01*
X318720000Y-73955000D02*
X318320000Y-73955000D01*
X318720000Y-94955000D02*
X318320000Y-94955000D01*
X321220000Y-73955000D02*
X320820000Y-73955000D01*
X321220000Y-94955000D02*
X320820000Y-94955000D01*
X323820000Y-73955000D02*
X323420000Y-73955000D01*
X323820000Y-94955000D02*
X323420000Y-94955000D01*
X326320000Y-73955000D02*
X325920000Y-73955000D01*
X326320000Y-94955000D02*
X325920000Y-94955000D01*
X328920000Y-73955000D02*
X328520000Y-73955000D01*
X328920000Y-94955000D02*
X328520000Y-94955000D01*
X331420000Y-73955000D02*
X331020000Y-73955000D01*
X331420000Y-94955000D02*
X331020000Y-94955000D01*
X334020000Y-73955000D02*
X333620000Y-73955000D01*
X334020000Y-94955000D02*
X333620000Y-94955000D01*
X336520000Y-73955000D02*
X336120000Y-73955000D01*
X336520000Y-94955000D02*
X336120000Y-94955000D01*
X339020000Y-73955000D02*
X338620000Y-73955000D01*
X339020000Y-94955000D02*
X338620000Y-94955000D01*
X341620000Y-73955000D02*
X341220000Y-73955000D01*
X341620000Y-94955000D02*
X341220000Y-94955000D01*
X344120000Y-73955000D02*
X343720000Y-73955000D01*
X344120000Y-94955000D02*
X343720000Y-94955000D01*
X346720000Y-73955000D02*
X346320000Y-73955000D01*
X346720000Y-94955000D02*
X346320000Y-94955000D01*
X349220000Y-73955000D02*
X348820000Y-73955000D01*
X349220000Y-94955000D02*
X348820000Y-94955000D01*
X351720000Y-73955000D02*
X351320000Y-73955000D01*
X351720000Y-94955000D02*
X351320000Y-94955000D01*
X354320000Y-73955000D02*
X353920000Y-73955000D01*
X354320000Y-94955000D02*
X353920000Y-94955000D01*
X356820000Y-73955000D02*
X356420000Y-73955000D01*
X356820000Y-94955000D02*
X356420000Y-94955000D01*
X359153000Y-91948000D02*
X361820000Y-91948000D01*
X359153000Y-94955000D02*
X359153000Y-91948000D01*
X359420000Y-73955000D02*
X359020000Y-73955000D01*
X359420000Y-94955000D02*
X359020000Y-94955000D01*
X361820000Y-73955000D02*
X361520000Y-73955000D01*
X361820000Y-94955000D02*
X361520000Y-94955000D01*
X361820000Y-94955000D02*
X361820000Y-73955000D01*
%TD*%
M02*
