%TF.GenerationSoftware,KiCad,Pcbnew,9.0.7*%
%TF.CreationDate,2026-06-29T14:59:53+05:30*%
%TF.ProjectId,keyboard,6b657962-6f61-4726-942e-6b696361645f,rev?*%
%TF.SameCoordinates,Original*%
%TF.FileFunction,Soldermask,Bot*%
%TF.FilePolarity,Negative*%
%FSLAX46Y46*%
G04 Gerber Fmt 4.6, Leading zero omitted, Abs format (unit mm)*
G04 Created by KiCad (PCBNEW 9.0.7) date 2026-06-29 14:59:53*
%MOMM*%
%LPD*%
G01*
G04 APERTURE LIST*
%ADD10C,1.700000*%
%ADD11C,4.000000*%
%ADD12C,2.200000*%
%ADD13R,1.700000X1.700000*%
%ADD14R,2.000000X2.000000*%
%ADD15C,2.000000*%
%ADD16R,3.200000X2.000000*%
%ADD17O,1.800000X1.800000*%
%ADD18O,1.500000X1.500000*%
%ADD19O,1.700000X1.700000*%
%ADD20R,1.700000X3.500000*%
%ADD21R,3.500000X1.700000*%
G04 APERTURE END LIST*
D10*
%TO.C,n3*%
X73501250Y-45243750D03*
D11*
X78581250Y-45243750D03*
D10*
X83661250Y-45243750D03*
D12*
X81121250Y-40163750D03*
X74771250Y-42703750D03*
%TD*%
D10*
%TO.C,U2*%
X159226250Y-64293750D03*
D11*
X164306250Y-64293750D03*
D10*
X169386250Y-64293750D03*
D12*
X166846250Y-59213750D03*
X160496250Y-61753750D03*
%TD*%
D10*
%TO.C,L1*%
X202088750Y-83343750D03*
D11*
X207168750Y-83343750D03*
D10*
X212248750Y-83343750D03*
D12*
X209708750Y-78263750D03*
X203358750Y-80803750D03*
%TD*%
D10*
%TO.C,F8*%
X197326250Y-21431250D03*
D11*
X202406250Y-21431250D03*
D10*
X207486250Y-21431250D03*
D12*
X204946250Y-16351250D03*
X198596250Y-18891250D03*
%TD*%
D10*
%TO.C,n0*%
X206851250Y-45243750D03*
D11*
X211931250Y-45243750D03*
D10*
X217011250Y-45243750D03*
D12*
X214471250Y-40163750D03*
X208121250Y-42703750D03*
%TD*%
D10*
%TO.C,RARROW1*%
X344963750Y-121443750D03*
D11*
X350043750Y-121443750D03*
D10*
X355123750Y-121443750D03*
D12*
X352583750Y-116363750D03*
X346233750Y-118903750D03*
%TD*%
D10*
%TO.C,OBRACKET1*%
X235426250Y-64293750D03*
D11*
X240506250Y-64293750D03*
D10*
X245586250Y-64293750D03*
D12*
X243046250Y-59213750D03*
X236696250Y-61753750D03*
%TD*%
D10*
%TO.C,F5*%
X140176250Y-21431250D03*
D11*
X145256250Y-21431250D03*
D10*
X150336250Y-21431250D03*
D12*
X147796250Y-16351250D03*
X141446250Y-18891250D03*
%TD*%
D10*
%TO.C,S1*%
X68738750Y-83343750D03*
D11*
X73818750Y-83343750D03*
D10*
X78898750Y-83343750D03*
D12*
X76358750Y-78263750D03*
X70008750Y-80803750D03*
%TD*%
D10*
%TO.C,n7*%
X149701250Y-45243750D03*
D11*
X154781250Y-45243750D03*
D10*
X159861250Y-45243750D03*
D12*
X157321250Y-40163750D03*
X150971250Y-42703750D03*
%TD*%
D10*
%TO.C,PGUP1*%
X344963750Y-45243750D03*
D11*
X350043750Y-45243750D03*
D10*
X355123750Y-45243750D03*
D12*
X352583750Y-40163750D03*
X346233750Y-42703750D03*
%TD*%
D10*
%TO.C,rSHIFT1*%
X266382500Y-102393750D03*
D11*
X271462500Y-102393750D03*
D10*
X276542500Y-102393750D03*
D12*
X274002500Y-97313750D03*
X267652500Y-99853750D03*
%TD*%
D10*
%TO.C,E1*%
X83026250Y-64293750D03*
D11*
X88106250Y-64293750D03*
D10*
X93186250Y-64293750D03*
D12*
X90646250Y-59213750D03*
X84296250Y-61753750D03*
%TD*%
D10*
%TO.C,P1*%
X216376250Y-64293750D03*
D11*
X221456250Y-64293750D03*
D10*
X226536250Y-64293750D03*
D12*
X223996250Y-59213750D03*
X217646250Y-61753750D03*
%TD*%
D10*
%TO.C,D67*%
X87788750Y-83343750D03*
D11*
X92868750Y-83343750D03*
D10*
X97948750Y-83343750D03*
D12*
X95408750Y-78263750D03*
X89058750Y-80803750D03*
%TD*%
D10*
%TO.C,F10*%
X244951250Y-21431250D03*
D11*
X250031250Y-21431250D03*
D10*
X255111250Y-21431250D03*
D12*
X252571250Y-16351250D03*
X246221250Y-18891250D03*
%TD*%
D10*
%TO.C,CAPS1*%
X23495000Y-83343750D03*
D11*
X28575000Y-83343750D03*
D10*
X33655000Y-83343750D03*
D12*
X31115000Y-78263750D03*
X24765000Y-80803750D03*
%TD*%
D10*
%TO.C,BSLASH1*%
X278288750Y-64293750D03*
D11*
X283368750Y-64293750D03*
D10*
X288448750Y-64293750D03*
D12*
X285908750Y-59213750D03*
X279558750Y-61753750D03*
%TD*%
D13*
%TO.C,OLED DISPLAY1*%
X304800000Y-17780000D03*
D10*
X304800000Y-20320000D03*
X304800000Y-22860000D03*
X304800000Y-25400000D03*
%TD*%
%TO.C,rCTRL1*%
X280670000Y-121443750D03*
D11*
X285750000Y-121443750D03*
D10*
X290830000Y-121443750D03*
D12*
X288290000Y-116363750D03*
X281940000Y-118903750D03*
%TD*%
D10*
%TO.C,W1*%
X63976250Y-64293750D03*
D11*
X69056250Y-64293750D03*
D10*
X74136250Y-64293750D03*
D12*
X71596250Y-59213750D03*
X65246250Y-61753750D03*
%TD*%
D10*
%TO.C,F3*%
X92551250Y-21431250D03*
D11*
X97631250Y-21431250D03*
D10*
X102711250Y-21431250D03*
D12*
X100171250Y-16351250D03*
X93821250Y-18891250D03*
%TD*%
D10*
%TO.C,PLUS1*%
X244951250Y-45243750D03*
D11*
X250031250Y-45243750D03*
D10*
X255111250Y-45243750D03*
D12*
X252571250Y-40163750D03*
X246221250Y-42703750D03*
%TD*%
D10*
%TO.C,TAB1*%
X21113750Y-64293750D03*
D11*
X26193750Y-64293750D03*
D10*
X31273750Y-64293750D03*
D12*
X28733750Y-59213750D03*
X22383750Y-61753750D03*
%TD*%
D10*
%TO.C,J1*%
X163988750Y-83343750D03*
D11*
X169068750Y-83343750D03*
D10*
X174148750Y-83343750D03*
D12*
X171608750Y-78263750D03*
X165258750Y-80803750D03*
%TD*%
D10*
%TO.C,TILDE1*%
X16351250Y-45243750D03*
D11*
X21431250Y-45243750D03*
D10*
X26511250Y-45243750D03*
D12*
X23971250Y-40163750D03*
X17621250Y-42703750D03*
%TD*%
D10*
%TO.C,n1*%
X35401250Y-45243750D03*
D11*
X40481250Y-45243750D03*
D10*
X45561250Y-45243750D03*
D12*
X43021250Y-40163750D03*
X36671250Y-42703750D03*
%TD*%
D10*
%TO.C,X1*%
X78263750Y-102393750D03*
D11*
X83343750Y-102393750D03*
D10*
X88423750Y-102393750D03*
D12*
X85883750Y-97313750D03*
X79533750Y-99853750D03*
%TD*%
D10*
%TO.C,n5*%
X111601250Y-45243750D03*
D11*
X116681250Y-45243750D03*
D10*
X121761250Y-45243750D03*
D12*
X119221250Y-40163750D03*
X112871250Y-42703750D03*
%TD*%
D10*
%TO.C,DARROW1*%
X325913750Y-121443750D03*
D11*
X330993750Y-121443750D03*
D10*
X336073750Y-121443750D03*
D12*
X333533750Y-116363750D03*
X327183750Y-118903750D03*
%TD*%
D10*
%TO.C,Q1*%
X44926250Y-64293750D03*
D11*
X50006250Y-64293750D03*
D10*
X55086250Y-64293750D03*
D12*
X52546250Y-59213750D03*
X46196250Y-61753750D03*
%TD*%
D10*
%TO.C,F7*%
X178276250Y-21431250D03*
D11*
X183356250Y-21431250D03*
D10*
X188436250Y-21431250D03*
D12*
X185896250Y-16351250D03*
X179546250Y-18891250D03*
%TD*%
D10*
%TO.C,F13*%
X106838750Y-83343750D03*
D11*
X111918750Y-83343750D03*
D10*
X116998750Y-83343750D03*
D12*
X114458750Y-78263750D03*
X108108750Y-80803750D03*
%TD*%
D10*
%TO.C,rWIN1*%
X233045000Y-121443750D03*
D11*
X238125000Y-121443750D03*
D10*
X243205000Y-121443750D03*
D12*
X240665000Y-116363750D03*
X234315000Y-118903750D03*
%TD*%
D10*
%TO.C,SHIFT1*%
X28257500Y-102393750D03*
D11*
X33337500Y-102393750D03*
D10*
X38417500Y-102393750D03*
D12*
X35877500Y-97313750D03*
X29527500Y-99853750D03*
%TD*%
D10*
%TO.C,A1*%
X49688750Y-83343750D03*
D11*
X54768750Y-83343750D03*
D10*
X59848750Y-83343750D03*
D12*
X57308750Y-78263750D03*
X50958750Y-80803750D03*
%TD*%
D10*
%TO.C,CTRL1*%
X18732500Y-121443750D03*
D11*
X23812500Y-121443750D03*
D10*
X28892500Y-121443750D03*
D12*
X26352500Y-116363750D03*
X20002500Y-118903750D03*
%TD*%
D10*
%TO.C,Z1*%
X59213750Y-102393750D03*
D11*
X64293750Y-102393750D03*
D10*
X69373750Y-102393750D03*
D12*
X66833750Y-97313750D03*
X60483750Y-99853750D03*
%TD*%
D10*
%TO.C,F9*%
X225901250Y-21431250D03*
D11*
X230981250Y-21431250D03*
D10*
X236061250Y-21431250D03*
D12*
X233521250Y-16351250D03*
X227171250Y-18891250D03*
%TD*%
D10*
%TO.C,CBRACKET1*%
X254476250Y-64293750D03*
D11*
X259556250Y-64293750D03*
D10*
X264636250Y-64293750D03*
D12*
X262096250Y-59213750D03*
X255746250Y-61753750D03*
%TD*%
D10*
%TO.C,F11*%
X264001250Y-21431250D03*
D11*
X269081250Y-21431250D03*
D10*
X274161250Y-21431250D03*
D12*
X271621250Y-16351250D03*
X265271250Y-18891250D03*
%TD*%
D10*
%TO.C,COLON1*%
X221138750Y-83343750D03*
D11*
X226218750Y-83343750D03*
D10*
X231298750Y-83343750D03*
D12*
X228758750Y-78263750D03*
X222408750Y-80803750D03*
%TD*%
D10*
%TO.C,ENTER1*%
X271145000Y-83343750D03*
D11*
X276225000Y-83343750D03*
D10*
X281305000Y-83343750D03*
D12*
X278765000Y-78263750D03*
X272415000Y-80803750D03*
%TD*%
D10*
%TO.C,F6*%
X159226250Y-21431250D03*
D11*
X164306250Y-21431250D03*
D10*
X169386250Y-21431250D03*
D12*
X166846250Y-16351250D03*
X160496250Y-18891250D03*
%TD*%
D10*
%TO.C,F2*%
X73501250Y-21431250D03*
D11*
X78581250Y-21431250D03*
D10*
X83661250Y-21431250D03*
D12*
X81121250Y-16351250D03*
X74771250Y-18891250D03*
%TD*%
D10*
%TO.C,COMMA1*%
X192563750Y-102393750D03*
D11*
X197643750Y-102393750D03*
D10*
X202723750Y-102393750D03*
D12*
X200183750Y-97313750D03*
X193833750Y-99853750D03*
%TD*%
D10*
%TO.C,O1*%
X197326250Y-64293750D03*
D11*
X202406250Y-64293750D03*
D10*
X207486250Y-64293750D03*
D12*
X204946250Y-59213750D03*
X198596250Y-61753750D03*
%TD*%
D10*
%TO.C,R1*%
X102076250Y-64293750D03*
D11*
X107156250Y-64293750D03*
D10*
X112236250Y-64293750D03*
D12*
X109696250Y-59213750D03*
X103346250Y-61753750D03*
%TD*%
D10*
%TO.C,QUOTE1*%
X240188750Y-83343750D03*
D11*
X245268750Y-83343750D03*
D10*
X250348750Y-83343750D03*
D12*
X247808750Y-78263750D03*
X241458750Y-80803750D03*
%TD*%
D10*
%TO.C,n9*%
X187801250Y-45243750D03*
D11*
X192881250Y-45243750D03*
D10*
X197961250Y-45243750D03*
D12*
X195421250Y-40163750D03*
X189071250Y-42703750D03*
%TD*%
D10*
%TO.C,BACKSPACE1*%
X273526250Y-45243750D03*
D11*
X278606250Y-45243750D03*
D10*
X283686250Y-45243750D03*
D12*
X281146250Y-40163750D03*
X274796250Y-42703750D03*
%TD*%
D10*
%TO.C,rALT1*%
X209232500Y-121443750D03*
D11*
X214312500Y-121443750D03*
D10*
X219392500Y-121443750D03*
D12*
X216852500Y-116363750D03*
X210502500Y-118903750D03*
%TD*%
D10*
%TO.C,T1*%
X121126250Y-64293750D03*
D11*
X126206250Y-64293750D03*
D10*
X131286250Y-64293750D03*
D12*
X128746250Y-59213750D03*
X122396250Y-61753750D03*
%TD*%
D10*
%TO.C,ALT1*%
X66357500Y-121443750D03*
D11*
X71437500Y-121443750D03*
D10*
X76517500Y-121443750D03*
D12*
X73977500Y-116363750D03*
X67627500Y-118903750D03*
%TD*%
D10*
%TO.C,DEL1*%
X306863750Y-64293750D03*
D11*
X311943750Y-64293750D03*
D10*
X317023750Y-64293750D03*
D12*
X314483750Y-59213750D03*
X308133750Y-61753750D03*
%TD*%
D10*
%TO.C,C1*%
X97313750Y-102393750D03*
D11*
X102393750Y-102393750D03*
D10*
X107473750Y-102393750D03*
D12*
X104933750Y-97313750D03*
X98583750Y-99853750D03*
%TD*%
D10*
%TO.C,I1*%
X178276250Y-64293750D03*
D11*
X183356250Y-64293750D03*
D10*
X188436250Y-64293750D03*
D12*
X185896250Y-59213750D03*
X179546250Y-61753750D03*
%TD*%
D10*
%TO.C,WIN1*%
X42545000Y-121443750D03*
D11*
X47625000Y-121443750D03*
D10*
X52705000Y-121443750D03*
D12*
X50165000Y-116363750D03*
X43815000Y-118903750D03*
%TD*%
D10*
%TO.C,MACRO1*%
X256857500Y-121443750D03*
D11*
X261937500Y-121443750D03*
D10*
X267017500Y-121443750D03*
D12*
X264477500Y-116363750D03*
X258127500Y-118903750D03*
%TD*%
D10*
%TO.C,PGDN1*%
X344963750Y-64293750D03*
D11*
X350043750Y-64293750D03*
D10*
X355123750Y-64293750D03*
D12*
X352583750Y-59213750D03*
X346233750Y-61753750D03*
%TD*%
D10*
%TO.C,n2*%
X54451250Y-45243750D03*
D11*
X59531250Y-45243750D03*
D10*
X64611250Y-45243750D03*
D12*
X62071250Y-40163750D03*
X55721250Y-42703750D03*
%TD*%
D10*
%TO.C,N10*%
X154463750Y-102393750D03*
D11*
X159543750Y-102393750D03*
D10*
X164623750Y-102393750D03*
D12*
X162083750Y-97313750D03*
X155733750Y-99853750D03*
%TD*%
D10*
%TO.C,LARROW1*%
X306863750Y-121443750D03*
D11*
X311943750Y-121443750D03*
D10*
X317023750Y-121443750D03*
D12*
X314483750Y-116363750D03*
X308133750Y-118903750D03*
%TD*%
D10*
%TO.C,MINUS1*%
X225901250Y-45243750D03*
D11*
X230981250Y-45243750D03*
D10*
X236061250Y-45243750D03*
D12*
X233521250Y-40163750D03*
X227171250Y-42703750D03*
%TD*%
D10*
%TO.C,SLASH1*%
X230663750Y-102393750D03*
D11*
X235743750Y-102393750D03*
D10*
X240823750Y-102393750D03*
D12*
X238283750Y-97313750D03*
X231933750Y-99853750D03*
%TD*%
D10*
%TO.C,END1*%
X325913750Y-64293750D03*
D11*
X330993750Y-64293750D03*
D10*
X336073750Y-64293750D03*
D12*
X333533750Y-59213750D03*
X327183750Y-61753750D03*
%TD*%
D10*
%TO.C,ESC1*%
X16351250Y-21431250D03*
D11*
X21431250Y-21431250D03*
D10*
X26511250Y-21431250D03*
D12*
X23971250Y-16351250D03*
X17621250Y-18891250D03*
%TD*%
D10*
%TO.C,F12*%
X283051250Y-21431250D03*
D11*
X288131250Y-21431250D03*
D10*
X293211250Y-21431250D03*
D12*
X290671250Y-16351250D03*
X284321250Y-18891250D03*
%TD*%
D10*
%TO.C,n6*%
X130651250Y-45243750D03*
D11*
X135731250Y-45243750D03*
D10*
X140811250Y-45243750D03*
D12*
X138271250Y-40163750D03*
X131921250Y-42703750D03*
%TD*%
D10*
%TO.C,INS1*%
X306863750Y-45243750D03*
D11*
X311943750Y-45243750D03*
D10*
X317023750Y-45243750D03*
D12*
X314483750Y-40163750D03*
X308133750Y-42703750D03*
%TD*%
D10*
%TO.C,H1*%
X144938750Y-83343750D03*
D11*
X150018750Y-83343750D03*
D10*
X155098750Y-83343750D03*
D12*
X152558750Y-78263750D03*
X146208750Y-80803750D03*
%TD*%
D14*
%TO.C,SW1*%
X347450000Y-18812500D03*
D15*
X347450000Y-23812500D03*
X347450000Y-21312500D03*
D16*
X354950000Y-15712500D03*
X354950000Y-26912500D03*
D15*
X361950000Y-23812500D03*
X361950000Y-18812500D03*
%TD*%
D10*
%TO.C,Y1*%
X140176250Y-64293750D03*
D11*
X145256250Y-64293750D03*
D10*
X150336250Y-64293750D03*
D12*
X147796250Y-59213750D03*
X141446250Y-61753750D03*
%TD*%
D10*
%TO.C,M1*%
X173513750Y-102393750D03*
D11*
X178593750Y-102393750D03*
D10*
X183673750Y-102393750D03*
D12*
X181133750Y-97313750D03*
X174783750Y-99853750D03*
%TD*%
D10*
%TO.C,K1*%
X183038750Y-83343750D03*
D11*
X188118750Y-83343750D03*
D10*
X193198750Y-83343750D03*
D12*
X190658750Y-78263750D03*
X184308750Y-80803750D03*
%TD*%
D10*
%TO.C,F1*%
X54451250Y-21431250D03*
D11*
X59531250Y-21431250D03*
D10*
X64611250Y-21431250D03*
D12*
X62071250Y-16351250D03*
X55721250Y-18891250D03*
%TD*%
D10*
%TO.C,n8*%
X168751250Y-45243750D03*
D11*
X173831250Y-45243750D03*
D10*
X178911250Y-45243750D03*
D12*
X176371250Y-40163750D03*
X170021250Y-42703750D03*
%TD*%
D10*
%TO.C,V1*%
X116363750Y-102393750D03*
D11*
X121443750Y-102393750D03*
D10*
X126523750Y-102393750D03*
D12*
X123983750Y-97313750D03*
X117633750Y-99853750D03*
%TD*%
D10*
%TO.C,B1*%
X135413750Y-102393750D03*
D11*
X140493750Y-102393750D03*
D10*
X145573750Y-102393750D03*
D12*
X143033750Y-97313750D03*
X136683750Y-99853750D03*
%TD*%
D10*
%TO.C,SPACE1*%
X137795000Y-121443750D03*
D11*
X142875000Y-121443750D03*
D10*
X147955000Y-121443750D03*
D12*
X145415000Y-116363750D03*
X139065000Y-118903750D03*
%TD*%
D10*
%TO.C,HOME1*%
X325913750Y-45243750D03*
D11*
X330993750Y-45243750D03*
D10*
X336073750Y-45243750D03*
D12*
X333533750Y-40163750D03*
X327183750Y-42703750D03*
%TD*%
D10*
%TO.C,UARROW1*%
X325913750Y-102393750D03*
D11*
X330993750Y-102393750D03*
D10*
X336073750Y-102393750D03*
D12*
X333533750Y-97313750D03*
X327183750Y-99853750D03*
%TD*%
D10*
%TO.C,n4*%
X92551250Y-45243750D03*
D11*
X97631250Y-45243750D03*
D10*
X102711250Y-45243750D03*
D12*
X100171250Y-40163750D03*
X93821250Y-42703750D03*
%TD*%
D10*
%TO.C,F4*%
X111601250Y-21431250D03*
D11*
X116681250Y-21431250D03*
D10*
X121761250Y-21431250D03*
D12*
X119221250Y-16351250D03*
X112871250Y-18891250D03*
%TD*%
D10*
%TO.C,PERIOD1*%
X211613750Y-102393750D03*
D11*
X216693750Y-102393750D03*
D10*
X221773750Y-102393750D03*
D12*
X219233750Y-97313750D03*
X212883750Y-99853750D03*
%TD*%
D10*
%TO.C,G1*%
X125888750Y-83343750D03*
D11*
X130968750Y-83343750D03*
D10*
X136048750Y-83343750D03*
D12*
X133508750Y-78263750D03*
X127158750Y-80803750D03*
%TD*%
D17*
%TO.C,U1*%
X360320000Y-87180000D03*
D18*
X357290000Y-86880000D03*
X357290000Y-82030000D03*
D17*
X360320000Y-81730000D03*
D19*
X360450000Y-93345000D03*
D20*
X360450000Y-94245000D03*
D19*
X357910000Y-93345000D03*
D20*
X357910000Y-94245000D03*
D13*
X355370000Y-93345000D03*
D20*
X355370000Y-94245000D03*
D19*
X352830000Y-93345000D03*
D20*
X352830000Y-94245000D03*
D19*
X350290000Y-93345000D03*
D20*
X350290000Y-94245000D03*
D19*
X347750000Y-93345000D03*
D20*
X347750000Y-94245000D03*
D19*
X345210000Y-93345000D03*
D20*
X345210000Y-94245000D03*
D13*
X342670000Y-93345000D03*
D20*
X342670000Y-94245000D03*
D19*
X340130000Y-93345000D03*
D20*
X340130000Y-94245000D03*
D19*
X337590000Y-93345000D03*
D20*
X337590000Y-94245000D03*
D19*
X335050000Y-93345000D03*
D20*
X335050000Y-94245000D03*
D19*
X332510000Y-93345000D03*
D20*
X332510000Y-94245000D03*
D13*
X329970000Y-93345000D03*
D20*
X329970000Y-94245000D03*
D19*
X327430000Y-93345000D03*
D20*
X327430000Y-94245000D03*
D19*
X324890000Y-93345000D03*
D20*
X324890000Y-94245000D03*
D19*
X322350000Y-93345000D03*
D20*
X322350000Y-94245000D03*
D19*
X319810000Y-93345000D03*
D20*
X319810000Y-94245000D03*
D13*
X317270000Y-93345000D03*
D20*
X317270000Y-94245000D03*
D19*
X314730000Y-93345000D03*
D20*
X314730000Y-94245000D03*
D19*
X312190000Y-93345000D03*
D20*
X312190000Y-94245000D03*
D19*
X312190000Y-75565000D03*
D20*
X312190000Y-74665000D03*
D19*
X314730000Y-75565000D03*
D20*
X314730000Y-74665000D03*
D13*
X317270000Y-75565000D03*
D20*
X317270000Y-74665000D03*
D19*
X319810000Y-75565000D03*
D20*
X319810000Y-74665000D03*
D19*
X322350000Y-75565000D03*
D20*
X322350000Y-74665000D03*
D19*
X324890000Y-75565000D03*
D20*
X324890000Y-74665000D03*
D19*
X327430000Y-75565000D03*
D20*
X327430000Y-74665000D03*
D13*
X329970000Y-75565000D03*
D20*
X329970000Y-74665000D03*
D19*
X332510000Y-75565000D03*
D20*
X332510000Y-74665000D03*
D19*
X335050000Y-75565000D03*
D20*
X335050000Y-74665000D03*
D19*
X337590000Y-75565000D03*
D20*
X337590000Y-74665000D03*
D19*
X340130000Y-75565000D03*
D20*
X340130000Y-74665000D03*
D13*
X342670000Y-75565000D03*
D20*
X342670000Y-74665000D03*
D19*
X345210000Y-75565000D03*
D20*
X345210000Y-74665000D03*
D19*
X347750000Y-75565000D03*
D20*
X347750000Y-74665000D03*
D19*
X350290000Y-75565000D03*
D20*
X350290000Y-74665000D03*
D19*
X352830000Y-75565000D03*
D20*
X352830000Y-74665000D03*
D13*
X355370000Y-75565000D03*
D20*
X355370000Y-74665000D03*
D19*
X357910000Y-75565000D03*
D20*
X357910000Y-74665000D03*
D19*
X360450000Y-75565000D03*
D20*
X360450000Y-74665000D03*
D19*
X312420000Y-86995000D03*
D21*
X311520000Y-86995000D03*
D13*
X312420000Y-84455000D03*
D21*
X311520000Y-84455000D03*
D19*
X312420000Y-81915000D03*
D21*
X311520000Y-81915000D03*
%TD*%
M02*
