%TF.GenerationSoftware,KiCad,Pcbnew,9.0.7*%
%TF.CreationDate,2026-06-29T14:59:53+05:30*%
%TF.ProjectId,keyboard,6b657962-6f61-4726-942e-6b696361645f,rev?*%
%TF.SameCoordinates,Original*%
%TF.FileFunction,Paste,Top*%
%TF.FilePolarity,Positive*%
%FSLAX46Y46*%
G04 Gerber Fmt 4.6, Leading zero omitted, Abs format (unit mm)*
G04 Created by KiCad (PCBNEW 9.0.7) date 2026-06-29 14:59:53*
%MOMM*%
%LPD*%
G01*
G04 APERTURE LIST*
G04 Aperture macros list*
%AMRoundRect*
0 Rectangle with rounded corners*
0 $1 Rounding radius*
0 $2 $3 $4 $5 $6 $7 $8 $9 X,Y pos of 4 corners*
0 Add a 4 corners polygon primitive as box body*
4,1,4,$2,$3,$4,$5,$6,$7,$8,$9,$2,$3,0*
0 Add four circle primitives for the rounded corners*
1,1,$1+$1,$2,$3*
1,1,$1+$1,$4,$5*
1,1,$1+$1,$6,$7*
1,1,$1+$1,$8,$9*
0 Add four rect primitives between the rounded corners*
20,1,$1+$1,$2,$3,$4,$5,0*
20,1,$1+$1,$4,$5,$6,$7,0*
20,1,$1+$1,$6,$7,$8,$9,0*
20,1,$1+$1,$8,$9,$2,$3,0*%
G04 Aperture macros list end*
%ADD10RoundRect,0.225000X-0.225000X-0.375000X0.225000X-0.375000X0.225000X0.375000X-0.225000X0.375000X0*%
%ADD11RoundRect,0.225000X-0.375000X0.225000X-0.375000X-0.225000X0.375000X-0.225000X0.375000X0.225000X0*%
G04 APERTURE END LIST*
D10*
%TO.C,D78*%
X315056250Y-130175000D03*
X318356250Y-130175000D03*
%TD*%
%TO.C,D28*%
X119000000Y-92075000D03*
X122300000Y-92075000D03*
%TD*%
%TO.C,D38*%
X154560000Y-92075000D03*
X157860000Y-92075000D03*
%TD*%
%TO.C,D68*%
X264035000Y-130175000D03*
X267335000Y-130175000D03*
%TD*%
%TO.C,D45*%
X207900000Y-29845000D03*
X211200000Y-29845000D03*
%TD*%
%TO.C,D27*%
X113920000Y-73025000D03*
X117220000Y-73025000D03*
%TD*%
%TO.C,D59*%
X226315000Y-73025000D03*
X229615000Y-73025000D03*
%TD*%
%TO.C,D51*%
X237110000Y-29845000D03*
X240410000Y-29845000D03*
%TD*%
%TO.C,D9*%
X56135000Y-72390000D03*
X59435000Y-72390000D03*
%TD*%
%TO.C,D41*%
X160275000Y-53975000D03*
X163575000Y-53975000D03*
%TD*%
%TO.C,D79*%
X334106250Y-130175000D03*
X337406250Y-130175000D03*
%TD*%
%TO.C,D85*%
X339980000Y-53975000D03*
X343280000Y-53975000D03*
%TD*%
%TO.C,D70*%
X255525000Y-53975000D03*
X258825000Y-53975000D03*
%TD*%
D11*
%TO.C,D83*%
X321468750Y-59945000D03*
X321468750Y-63245000D03*
%TD*%
D10*
%TO.C,D13*%
X85345000Y-29845000D03*
X88645000Y-29845000D03*
%TD*%
%TO.C,D66*%
X249175000Y-92075000D03*
X252475000Y-92075000D03*
%TD*%
%TO.C,D64*%
X235840000Y-53975000D03*
X239140000Y-53975000D03*
%TD*%
%TO.C,D30*%
X150605000Y-30480000D03*
X153905000Y-30480000D03*
%TD*%
%TO.C,D5*%
X35718750Y-111125000D03*
X39018750Y-111125000D03*
%TD*%
%TO.C,D56*%
X217425000Y-130175000D03*
X220725000Y-130175000D03*
%TD*%
%TO.C,D86*%
X320930000Y-53975000D03*
X324230000Y-53975000D03*
%TD*%
%TO.C,D73*%
X266700000Y-110490000D03*
X270000000Y-110490000D03*
%TD*%
%TO.C,D22*%
X99695000Y-92075000D03*
X102995000Y-92075000D03*
%TD*%
%TO.C,D26*%
X104395000Y-53975000D03*
X107695000Y-53975000D03*
%TD*%
%TO.C,D77*%
X285750000Y-73025000D03*
X289050000Y-73025000D03*
%TD*%
%TO.C,D37*%
X151385000Y-73025000D03*
X154685000Y-73025000D03*
%TD*%
%TO.C,D25*%
X124080000Y-29845000D03*
X127380000Y-29845000D03*
%TD*%
%TO.C,D33*%
X138050000Y-92075000D03*
X141350000Y-92075000D03*
%TD*%
%TO.C,D61*%
X234570000Y-111125000D03*
X237870000Y-111125000D03*
%TD*%
%TO.C,D55*%
X216155000Y-111125000D03*
X219455000Y-111125000D03*
%TD*%
%TO.C,D60*%
X230760000Y-92075000D03*
X234060000Y-92075000D03*
%TD*%
%TO.C,D69*%
X293625000Y-29845000D03*
X296925000Y-29845000D03*
%TD*%
%TO.C,D14*%
X66675000Y-53975000D03*
X69975000Y-53975000D03*
%TD*%
%TO.C,D53*%
X207265000Y-73025000D03*
X210565000Y-73025000D03*
%TD*%
%TO.C,D47*%
X187835000Y-73025000D03*
X191135000Y-73025000D03*
%TD*%
%TO.C,D80*%
X334106250Y-111125000D03*
X337406250Y-111125000D03*
%TD*%
%TO.C,D32*%
X132335000Y-73025000D03*
X135635000Y-73025000D03*
%TD*%
%TO.C,D74*%
X288800000Y-130175000D03*
X292100000Y-130175000D03*
%TD*%
%TO.C,D48*%
X193295000Y-92075000D03*
X196595000Y-92075000D03*
%TD*%
%TO.C,D10*%
X61595000Y-92075000D03*
X64895000Y-92075000D03*
%TD*%
D11*
%TO.C,D82*%
X340518750Y-59310000D03*
X340518750Y-62610000D03*
%TD*%
D10*
%TO.C,D84*%
X355537500Y-53975000D03*
X358837500Y-53975000D03*
%TD*%
%TO.C,D7*%
X65660000Y-29845000D03*
X68960000Y-29845000D03*
%TD*%
%TO.C,D58*%
X217425000Y-53975000D03*
X220725000Y-53975000D03*
%TD*%
%TO.C,D46*%
X178945000Y-53975000D03*
X182245000Y-53975000D03*
%TD*%
%TO.C,D12*%
X51945000Y-130175000D03*
X55245000Y-130175000D03*
%TD*%
%TO.C,D2*%
X27815000Y-53975000D03*
X31115000Y-53975000D03*
%TD*%
%TO.C,D6*%
X27940000Y-130175000D03*
X31240000Y-130175000D03*
%TD*%
%TO.C,D34*%
X141480000Y-111125000D03*
X144780000Y-111125000D03*
%TD*%
%TO.C,D62*%
X240285000Y-130175000D03*
X243585000Y-130175000D03*
%TD*%
%TO.C,D43*%
X174245000Y-92075000D03*
X177545000Y-92075000D03*
%TD*%
%TO.C,D40*%
X188850000Y-29845000D03*
X192150000Y-29845000D03*
%TD*%
%TO.C,D76*%
X283465000Y-53340000D03*
X286765000Y-53340000D03*
%TD*%
%TO.C,D52*%
X197995000Y-53975000D03*
X201295000Y-53975000D03*
%TD*%
%TO.C,D3*%
X32260000Y-73025000D03*
X35560000Y-73025000D03*
%TD*%
%TO.C,D54*%
X211710000Y-92075000D03*
X215010000Y-92075000D03*
%TD*%
%TO.C,D39*%
X160275000Y-111125000D03*
X163575000Y-111125000D03*
%TD*%
%TO.C,D29*%
X123065000Y-111125000D03*
X126365000Y-111125000D03*
%TD*%
%TO.C,D23*%
X103760000Y-111125000D03*
X107060000Y-111125000D03*
%TD*%
%TO.C,D8*%
X46865000Y-53975000D03*
X50165000Y-53975000D03*
%TD*%
%TO.C,D31*%
X123445000Y-53975000D03*
X126745000Y-53975000D03*
%TD*%
%TO.C,D63*%
X273940000Y-29845000D03*
X277240000Y-29845000D03*
%TD*%
%TO.C,D65*%
X245620000Y-73025000D03*
X248920000Y-73025000D03*
%TD*%
%TO.C,D4*%
X34800000Y-91440000D03*
X38100000Y-91440000D03*
%TD*%
%TO.C,D36*%
X141480000Y-53975000D03*
X144780000Y-53975000D03*
%TD*%
%TO.C,D35*%
X170435000Y-30480000D03*
X173735000Y-30480000D03*
%TD*%
%TO.C,D57*%
X255525000Y-29845000D03*
X258825000Y-29845000D03*
%TD*%
%TO.C,D21*%
X94870000Y-73025000D03*
X98170000Y-73025000D03*
%TD*%
%TO.C,D11*%
X66295000Y-111125000D03*
X69595000Y-111125000D03*
%TD*%
%TO.C,D42*%
X169800000Y-73025000D03*
X173100000Y-73025000D03*
%TD*%
D11*
%TO.C,D81*%
X359568750Y-60262500D03*
X359568750Y-63562500D03*
%TD*%
D10*
%TO.C,D24*%
X145035000Y-130175000D03*
X148335000Y-130175000D03*
%TD*%
%TO.C,D44*%
X179325000Y-111125000D03*
X182625000Y-111125000D03*
%TD*%
%TO.C,D15*%
X75820000Y-73025000D03*
X79120000Y-73025000D03*
%TD*%
%TO.C,D16*%
X80645000Y-92075000D03*
X83945000Y-92075000D03*
%TD*%
%TO.C,D1*%
X27656250Y-30480000D03*
X30956250Y-30480000D03*
%TD*%
%TO.C,D20*%
X85600000Y-53975000D03*
X88900000Y-53975000D03*
%TD*%
%TO.C,D18*%
X76200000Y-130175000D03*
X79500000Y-130175000D03*
%TD*%
%TO.C,D71*%
X263780000Y-73025000D03*
X267080000Y-73025000D03*
%TD*%
%TO.C,D50*%
X280925000Y-92075000D03*
X284225000Y-92075000D03*
%TD*%
%TO.C,D49*%
X197740000Y-111125000D03*
X201040000Y-111125000D03*
%TD*%
%TO.C,D17*%
X85345000Y-111125000D03*
X88645000Y-111125000D03*
%TD*%
%TO.C,D72*%
X353156250Y-130175000D03*
X356456250Y-130175000D03*
%TD*%
%TO.C,D19*%
X104140000Y-29845000D03*
X107440000Y-29845000D03*
%TD*%
M02*
